{"glyphs":{"0":{"ha":778,"x_min":42,"x_max":735,"o":"m 389 932 q 541 906 476 932 q 649 822 606 879 q 713 673 692 764 q 735 454 735 582 q 713 237 735 326 q 649 91 692 147 q 540 10 606 35 q 389 -15 475 -15 q 238 10 303 -15 q 128 90 172 35 q 63 235 85 146 q 42 453 42 325 q 55 632 42 546 q 106 785 68 718 q 211 892 143 851 q 389 932 279 932 m 389 797 q 303 780 339 797 q 245 722 268 763 q 212 617 222 682 q 201 456 201 551 q 213 296 201 360 q 247 192 224 232 q 306 136 269 153 q 390 119 342 119 q 474 136 439 119 q 532 192 510 153 q 565 296 554 232 q 575 456 575 360 q 572 567 575 507 q 551 678 569 626 q 496 763 533 729 q 389 797 458 797 z "},"1":{"ha":778,"x_min":122,"x_max":563,"o":"m 421 917 l 122 718 l 193 603 l 408 742 l 408 0 l 563 0 l 563 917 l 421 917 z "},"2":{"ha":778,"x_min":93,"x_max":683,"o":"m 683 135 l 683 0 l 93 0 l 93 132 l 319 365 q 406 458 371 418 q 464 531 442 497 q 496 595 486 564 q 506 663 506 626 q 465 764 506 733 q 333 794 425 794 q 143 775 251 794 l 108 769 l 99 892 q 378 932 236 932 q 665 676 665 932 q 655 585 665 626 q 622 503 644 543 q 560 420 599 463 q 465 325 522 378 l 269 135 l 683 135 z "},"3":{"ha":778,"x_min":82,"x_max":688,"o":"m 104 771 l 92 888 q 375 932 222 932 q 600 874 531 932 q 669 686 669 815 q 638 565 669 611 q 549 479 606 518 q 613 444 586 463 q 656 403 639 426 q 680 349 672 381 q 688 271 688 317 q 615 54 688 124 q 382 -15 542 -15 q 315 -12 351 -15 q 244 -5 279 -10 q 178 6 210 0 q 125 17 147 11 l 82 28 l 92 147 q 216 126 154 136 q 335 117 278 117 q 411 124 376 117 q 472 148 446 131 q 513 194 499 165 q 528 267 528 224 q 485 368 528 333 q 371 404 442 403 l 186 404 l 186 533 l 371 533 q 421 545 396 533 q 466 576 446 557 q 498 622 486 596 q 510 679 510 649 q 472 769 510 740 q 367 797 433 797 q 255 792 311 797 q 140 778 199 788 l 104 771 z "},"4":{"ha":778,"x_min":56,"x_max":724,"o":"m 624 0 l 624 164 l 724 164 l 724 299 l 624 299 l 624 568 l 468 568 l 468 299 l 213 299 l 468 917 l 297 917 l 56 282 l 56 164 l 468 164 l 468 0 l 624 0 z "},"5":{"ha":778,"x_min":78,"x_max":704,"o":"m 124 917 l 672 917 l 672 781 l 247 781 l 224 539 q 410 582 315 582 q 704 307 704 582 q 624 68 704 151 q 393 -15 543 -15 q 325 -12 363 -15 q 251 -3 288 -8 q 182 8 215 1 q 125 19 149 14 l 78 32 l 94 149 q 247 128 178 135 q 375 121 317 121 q 500 165 456 121 q 544 292 544 208 q 506 410 544 375 q 404 446 467 446 q 221 418 293 446 l 196 408 l 99 429 l 124 917 z "},"6":{"ha":778,"x_min":57,"x_max":728,"o":"m 694 899 l 681 778 q 552 792 613 788 q 436 797 492 797 q 272 729 326 797 q 217 539 218 661 l 249 550 q 417 582 351 582 q 728 290 728 582 q 642 62 728 139 q 390 -15 557 -15 q 140 107 224 -15 q 57 458 57 229 q 429 932 57 932 q 654 907 533 932 l 694 899 m 242 415 l 215 406 q 399 119 218 119 q 525 164 482 119 q 568 288 568 208 q 526 406 568 367 q 406 446 483 446 q 242 415 325 446 z "},"7":{"ha":778,"x_min":101,"x_max":679,"o":"m 524 778 l 524 736 l 197 26 l 342 -15 l 679 733 l 679 917 l 101 917 l 101 778 l 524 778 z "},"8":{"ha":778,"x_min":42,"x_max":735,"o":"m 386 932 q 630 869 539 932 q 721 688 721 806 q 715 616 721 646 q 695 562 710 586 q 658 517 681 538 q 599 475 635 497 q 660 430 635 453 q 703 381 686 407 q 727 323 719 356 q 735 249 735 290 q 710 129 735 179 q 639 47 685 79 q 529 0 593 15 q 386 -15 465 -15 q 42 233 42 -15 q 49 314 42 279 q 74 376 57 349 q 115 427 90 404 q 175 475 140 450 q 83 565 110 518 q 57 689 57 611 q 86 806 57 758 q 163 881 115 853 q 268 920 210 908 q 386 932 326 932 m 207 267 q 389 124 207 124 q 569 269 569 124 q 453 401 569 367 l 319 401 q 207 267 207 367 m 556 665 q 389 793 556 793 q 222 665 222 793 q 319 533 222 581 l 453 533 q 556 665 556 582 z "},"9":{"ha":778,"x_min":47,"x_max":718,"o":"m 344 119 q 558 386 557 119 l 525 375 q 356 339 417 339 q 126 410 204 339 q 47 625 47 482 q 135 850 47 768 q 375 932 224 932 q 634 809 550 932 q 718 443 718 686 q 623 93 718 201 q 344 -15 528 -15 q 119 10 240 -15 l 79 18 l 93 139 q 224 124 161 129 q 344 119 286 119 m 368 475 q 531 506 449 475 l 560 515 q 375 797 557 797 q 251 751 296 797 q 207 626 207 706 q 368 475 207 475 z "},"\u0000":{"ha":0,"x_min":0,"x_max":0,"o":""},"\r":{"ha":347,"x_min":0,"x_max":0,"o":""}," ":{"ha":306,"x_min":0,"x_max":0,"o":""},"가":{"ha":1250,"x_min":181,"x_max":1181,"o":"m 1181 656 l 1181 788 l 1000 788 l 1000 1058 l 861 1058 l 861 44 l 1000 44 l 1000 656 l 1181 656 m 728 957 l 626 1031 l 181 1031 l 181 899 l 522 899 l 196 431 l 308 357 l 728 957 z "},"각":{"ha":1250,"x_min":167,"x_max":1181,"o":"m 711 940 l 619 1031 l 167 1031 l 167 899 l 501 899 l 186 524 l 292 440 l 711 940 m 1000 -275 l 1000 239 l 1000 697 l 1181 697 l 1181 829 l 1000 829 l 1000 1058 l 861 1058 l 861 239 l 403 239 l 403 107 l 861 107 l 861 -275 l 1000 -275 z "},"간":{"ha":1250,"x_min":167,"x_max":1181,"o":"m 1181 697 l 1181 829 l 1000 829 l 1000 1058 l 861 1058 l 861 183 l 1000 183 l 1000 697 l 1181 697 m 711 940 l 619 1031 l 167 1031 l 167 899 l 501 899 l 186 524 l 292 440 l 711 940 m 1014 -275 l 1014 -143 l 556 -143 l 556 183 l 417 183 l 417 -164 q 449 -242 417 -210 q 528 -275 482 -275 l 1014 -275 z "},"갇":{"ha":1250,"x_min":167,"x_max":1181,"o":"m 711 940 l 619 1031 l 167 1031 l 167 899 l 501 899 l 186 524 l 292 440 l 711 940 m 1014 -275 l 1014 -143 l 556 -143 l 556 107 l 1000 107 l 1000 239 l 1000 697 l 1181 697 l 1181 829 l 1000 829 l 1000 1058 l 861 1058 l 861 239 l 417 239 l 417 -164 q 449 -242 417 -210 q 528 -275 482 -275 l 1014 -275 z "},"갈":{"ha":1250,"x_min":167,"x_max":1181,"o":"m 711 940 l 619 1031 l 167 1031 l 167 899 l 501 899 l 186 524 l 292 440 l 711 940 m 1014 -303 l 1014 -178 l 556 -178 l 556 -85 l 1000 -85 l 1000 253 l 1000 697 l 1181 697 l 1181 829 l 1000 829 l 1000 1058 l 861 1058 l 861 253 l 417 253 l 417 128 l 861 128 l 861 36 l 417 36 l 417 -192 q 449 -270 417 -237 q 528 -303 482 -303 l 1014 -303 z "},"갉":{"ha":1250,"x_min":167,"x_max":1181,"o":"m 711 940 l 619 1031 l 167 1031 l 167 899 l 501 899 l 186 524 l 292 440 l 711 940 m 681 -289 l 681 -164 l 431 -164 l 431 -78 l 667 -78 l 667 121 l 861 121 l 861 -289 l 1000 -289 l 1000 253 l 1000 697 l 1181 697 l 1181 829 l 1000 829 l 1000 1058 l 861 1058 l 861 253 l 611 253 l 292 253 l 292 128 l 528 128 l 528 43 l 292 43 l 292 -178 q 324 -256 292 -224 q 403 -289 357 -289 l 681 -289 z "},"갊":{"ha":1250,"x_min":167,"x_max":1181,"o":"m 711 940 l 619 1031 l 167 1031 l 167 899 l 501 899 l 186 524 l 292 440 l 711 940 m 1000 -178 l 1000 253 l 1000 697 l 1181 697 l 1181 829 l 1000 829 l 1000 1058 l 861 1058 l 861 253 l 625 253 l 625 -178 q 658 -256 625 -224 q 736 -289 690 -289 l 889 -289 q 967 -256 935 -289 q 1000 -178 1000 -224 m 861 -157 l 764 -157 l 764 121 l 861 121 l 861 -157 m 583 -289 l 583 -164 l 361 -164 l 361 -78 l 569 -78 l 569 253 l 222 253 l 222 128 l 431 128 l 431 43 l 222 43 l 222 -178 q 255 -256 222 -224 q 333 -289 288 -289 l 583 -289 z "},"감":{"ha":1250,"x_min":167,"x_max":1181,"o":"m 711 940 l 619 1031 l 167 1031 l 167 899 l 501 899 l 186 524 l 292 440 l 711 940 m 1000 -164 l 1000 239 l 1000 697 l 1181 697 l 1181 829 l 1000 829 l 1000 1058 l 861 1058 l 861 239 l 417 239 l 417 -164 q 449 -242 417 -210 q 528 -275 482 -275 l 889 -275 q 967 -242 935 -275 q 1000 -164 1000 -210 m 861 -143 l 556 -143 l 556 107 l 861 107 l 861 -143 z "},"갑":{"ha":1250,"x_min":167,"x_max":1181,"o":"m 711 940 l 619 1031 l 167 1031 l 167 899 l 501 899 l 186 524 l 292 440 l 711 940 m 1000 -171 l 1000 239 l 1000 697 l 1181 697 l 1181 829 l 1000 829 l 1000 1058 l 861 1058 l 861 183 l 861 114 l 556 114 l 556 239 l 417 239 l 417 -171 q 449 -249 417 -217 q 528 -282 482 -282 l 889 -282 q 967 -249 935 -282 q 1000 -171 1000 -217 m 861 -150 l 556 -150 l 556 -18 l 861 -18 l 861 -150 z "},"값":{"ha":1250,"x_min":167,"x_max":1181,"o":"m 1181 697 l 1181 829 l 1000 829 l 1000 1058 l 861 1058 l 861 183 l 1000 183 l 1000 697 l 1181 697 m 711 940 l 619 1031 l 167 1031 l 167 899 l 501 899 l 186 524 l 292 440 l 711 940 m 1068 -217 l 840 156 l 613 -217 l 726 -289 l 840 -101 l 954 -289 l 1068 -217 m 625 -164 l 625 253 l 486 253 l 486 121 l 389 121 l 389 253 l 250 253 l 250 -164 q 283 -242 250 -210 q 361 -275 315 -275 l 514 -275 q 592 -242 560 -275 q 625 -164 625 -210 m 486 -143 l 389 -143 l 389 -11 l 486 -11 l 486 -143 z "},"갓":{"ha":1250,"x_min":167,"x_max":1181,"o":"m 1181 697 l 1181 829 l 1000 829 l 1000 1058 l 861 1058 l 861 183 l 1000 183 l 1000 697 l 1181 697 m 711 940 l 619 1031 l 167 1031 l 167 899 l 501 899 l 186 524 l 292 440 l 711 940 m 1043 -204 l 681 225 l 318 -204 l 426 -289 l 681 15 l 935 -289 l 1043 -204 z "},"갔":{"ha":1250,"x_min":167,"x_max":1181,"o":"m 1181 697 l 1181 829 l 1000 829 l 1000 1058 l 861 1058 l 861 183 l 1000 183 l 1000 697 l 1181 697 m 711 940 l 619 1031 l 167 1031 l 167 899 l 501 899 l 186 524 l 292 440 l 711 940 m 1043 -236 l 810 239 l 639 -43 l 469 239 l 236 -236 l 358 -289 l 482 -36 l 639 -275 l 797 -36 l 921 -289 l 1043 -236 z "},"강":{"ha":1250,"x_min":167,"x_max":1181,"o":"m 1181 697 l 1181 829 l 1000 829 l 1000 1058 l 861 1058 l 861 192 q 724 228 800 228 q 617 207 667 228 q 529 150 567 186 q 469 66 492 114 q 447 -37 447 18 q 469 -141 447 -93 q 529 -225 492 -189 q 617 -282 567 -261 q 724 -303 667 -303 q 830 -282 779 -303 q 918 -225 881 -261 q 978 -140 956 -189 q 1000 -37 1000 -92 l 1000 697 l 1181 697 m 861 -37 q 822 -135 861 -97 q 724 -174 782 -174 q 627 -135 668 -174 q 586 -37 586 -97 q 627 62 586 25 q 724 99 668 99 q 822 62 782 99 q 861 -37 861 25 m 711 940 l 619 1031 l 167 1031 l 167 899 l 501 899 l 186 524 l 292 440 l 711 940 z "},"갖":{"ha":1250,"x_min":167,"x_max":1181,"o":"m 711 940 l 619 1031 l 167 1031 l 167 899 l 501 899 l 186 524 l 292 440 l 711 940 m 1063 -204 l 804 107 l 1000 107 l 1000 239 l 1000 697 l 1181 697 l 1181 829 l 1000 829 l 1000 1058 l 861 1058 l 861 239 l 417 239 l 417 107 l 613 107 l 354 -204 l 460 -289 l 708 13 l 957 -289 l 1063 -204 z "},"갗":{"ha":1250,"x_min":167,"x_max":1181,"o":"m 711 940 l 619 1031 l 167 1031 l 167 899 l 501 899 l 186 524 l 292 440 l 711 940 m 1063 -194 l 804 79 l 1000 79 l 1000 211 l 1000 697 l 1181 697 l 1181 829 l 1000 829 l 1000 1058 l 861 1058 l 861 211 l 778 211 l 778 322 l 639 322 l 639 211 l 417 211 l 417 79 l 613 79 l 354 -194 l 454 -289 l 708 -12 l 963 -289 l 1063 -194 z "},"같":{"ha":1250,"x_min":167,"x_max":1181,"o":"m 711 940 l 619 1031 l 167 1031 l 167 899 l 501 899 l 186 524 l 292 440 l 711 940 m 1000 -289 l 1000 -164 l 556 -164 l 556 -85 l 986 -85 l 986 36 l 556 36 l 556 114 l 1000 114 l 1000 239 l 1000 697 l 1181 697 l 1181 829 l 1000 829 l 1000 1058 l 861 1058 l 861 239 l 417 239 l 417 -178 q 449 -256 417 -224 q 528 -289 482 -289 l 1000 -289 z "},"갚":{"ha":1250,"x_min":167,"x_max":1181,"o":"m 711 940 l 619 1031 l 167 1031 l 167 899 l 501 899 l 186 524 l 292 440 l 711 940 m 597 -143 l 597 107 l 764 107 l 764 -143 l 597 -143 m 1007 -275 l 1007 -143 l 903 -143 l 903 107 l 1000 107 l 1000 239 l 1000 697 l 1181 697 l 1181 829 l 1000 829 l 1000 1058 l 861 1058 l 861 239 l 361 239 l 361 107 l 458 107 l 458 -143 l 354 -143 l 354 -275 l 1007 -275 z "},"갛":{"ha":1250,"x_min":167,"x_max":1181,"o":"m 711 940 l 619 1031 l 167 1031 l 167 899 l 501 899 l 186 524 l 292 440 l 711 940 m 919 -54 q 879 79 919 19 l 1000 79 l 1000 211 l 1000 697 l 1181 697 l 1181 829 l 1000 829 l 1000 1058 l 861 1058 l 861 211 l 729 211 l 729 322 l 590 322 l 590 211 l 319 211 l 319 79 l 440 79 q 411 16 422 50 q 400 -54 400 -18 q 421 -151 400 -106 q 477 -230 442 -196 q 560 -283 513 -264 q 660 -303 607 -303 q 758 -283 711 -303 q 842 -230 806 -264 q 899 -151 878 -196 q 919 -54 919 -106 m 781 -54 q 745 -140 781 -106 q 660 -174 710 -174 q 574 -140 610 -174 q 539 -54 539 -106 q 574 32 539 -1 q 660 65 610 65 q 745 32 710 65 q 781 -54 781 -1 z "},"개":{"ha":1250,"x_min":160,"x_max":1056,"o":"m 1056 44 l 1056 1058 l 917 1058 l 917 801 l 810 801 l 810 1058 l 674 1058 l 674 44 l 810 44 l 810 669 l 917 669 l 917 44 l 1056 44 m 608 965 l 504 1031 l 167 1031 l 167 899 l 417 899 l 160 451 l 276 388 l 608 965 z "},"객":{"ha":1250,"x_min":167,"x_max":1056,"o":"m 624 965 l 533 1031 l 167 1031 l 167 899 l 421 899 l 169 513 l 283 442 l 624 965 m 1056 -275 l 1056 239 l 1056 1058 l 917 1058 l 917 829 l 810 829 l 810 1058 l 674 1058 l 674 350 l 810 350 l 810 697 l 917 697 l 917 239 l 458 239 l 458 107 l 917 107 l 917 -275 l 1056 -275 z "},"갠":{"ha":1250,"x_min":167,"x_max":1069,"o":"m 1056 183 l 1056 1058 l 917 1058 l 917 829 l 810 829 l 810 1058 l 674 1058 l 674 183 l 810 183 l 810 697 l 917 697 l 917 183 l 1056 183 m 624 965 l 533 1031 l 167 1031 l 167 899 l 421 899 l 169 513 l 283 442 l 624 965 m 1069 -275 l 1069 -143 l 611 -143 l 611 183 l 472 183 l 472 -164 q 505 -242 472 -210 q 583 -275 538 -275 l 1069 -275 z "},"갤":{"ha":1250,"x_min":167,"x_max":1069,"o":"m 624 965 l 533 1031 l 167 1031 l 167 899 l 421 899 l 169 513 l 283 442 l 624 965 m 1069 -303 l 1069 -178 l 611 -178 l 611 -85 l 1056 -85 l 1056 253 l 1056 1058 l 917 1058 l 917 829 l 810 829 l 810 1058 l 674 1058 l 674 350 l 810 350 l 810 697 l 917 697 l 917 253 l 472 253 l 472 128 l 917 128 l 917 36 l 472 36 l 472 -192 q 505 -270 472 -237 q 583 -303 538 -303 l 1069 -303 z "},"갬":{"ha":1250,"x_min":167,"x_max":1056,"o":"m 624 965 l 533 1031 l 167 1031 l 167 899 l 421 899 l 169 513 l 283 442 l 624 965 m 1056 -164 l 1056 239 l 1056 1058 l 917 1058 l 917 829 l 810 829 l 810 1058 l 674 1058 l 674 350 l 810 350 l 810 697 l 917 697 l 917 239 l 472 239 l 472 -164 q 505 -242 472 -210 q 583 -275 538 -275 l 944 -275 q 1023 -242 990 -275 q 1056 -164 1056 -210 m 917 -143 l 611 -143 l 611 107 l 917 107 l 917 -143 z "},"갭":{"ha":1250,"x_min":167,"x_max":1056,"o":"m 624 965 l 533 1031 l 167 1031 l 167 899 l 421 899 l 169 513 l 283 442 l 624 965 m 1056 -171 l 1056 239 l 1056 1058 l 917 1058 l 917 829 l 810 829 l 810 1058 l 674 1058 l 674 350 l 810 350 l 810 697 l 917 697 l 917 183 l 917 114 l 611 114 l 611 239 l 472 239 l 472 -171 q 505 -249 472 -217 q 583 -282 538 -282 l 944 -282 q 1023 -249 990 -282 q 1056 -171 1056 -217 m 917 -150 l 611 -150 l 611 -18 l 917 -18 l 917 -150 z "},"갯":{"ha":1250,"x_min":167,"x_max":1099,"o":"m 1056 183 l 1056 1058 l 917 1058 l 917 829 l 810 829 l 810 1058 l 674 1058 l 674 350 l 810 350 l 810 697 l 917 697 l 917 183 l 1056 183 m 624 965 l 533 1031 l 167 1031 l 167 899 l 421 899 l 169 513 l 283 442 l 624 965 m 1099 -204 l 736 225 l 374 -204 l 482 -289 l 736 15 l 990 -289 l 1099 -204 z "},"갰":{"ha":1250,"x_min":167,"x_max":1099,"o":"m 1056 183 l 1056 1058 l 917 1058 l 917 829 l 810 829 l 810 1058 l 674 1058 l 674 350 l 810 350 l 810 697 l 917 697 l 917 183 l 1056 183 m 624 965 l 533 1031 l 167 1031 l 167 899 l 421 899 l 169 513 l 283 442 l 624 965 m 1099 -236 l 865 239 l 694 -43 l 525 239 l 292 -236 l 414 -289 l 538 -36 l 694 -275 l 853 -36 l 976 -289 l 1099 -236 z "},"갱":{"ha":1250,"x_min":167,"x_max":1056,"o":"m 1056 -37 l 1056 1058 l 917 1058 l 917 829 l 810 829 l 810 1058 l 674 1058 l 674 350 l 810 350 l 810 697 l 917 697 l 917 192 q 779 228 856 228 q 672 207 722 228 q 585 150 622 186 q 525 66 547 114 q 503 -37 503 18 q 525 -141 503 -93 q 585 -225 547 -189 q 672 -282 622 -261 q 779 -303 722 -303 q 885 -282 835 -303 q 974 -225 936 -261 q 1033 -140 1011 -189 q 1056 -37 1056 -92 m 917 -37 q 877 -135 917 -97 q 779 -174 838 -174 q 683 -135 724 -174 q 642 -37 642 -97 q 683 62 642 25 q 779 99 724 99 q 877 62 838 99 q 917 -37 917 25 m 624 965 l 533 1031 l 167 1031 l 167 899 l 421 899 l 169 513 l 283 442 l 624 965 z "},"갸":{"ha":1250,"x_min":181,"x_max":1181,"o":"m 1181 538 l 1181 669 l 1000 669 l 1000 788 l 1181 788 l 1181 919 l 1000 919 l 1000 1058 l 861 1058 l 861 44 l 1000 44 l 1000 538 l 1181 538 m 728 957 l 626 1031 l 181 1031 l 181 899 l 522 899 l 196 431 l 308 357 l 728 957 z "},"갹":{"ha":1250,"x_min":167,"x_max":1181,"o":"m 711 940 l 619 1031 l 167 1031 l 167 899 l 501 899 l 186 524 l 292 440 l 711 940 m 1000 -275 l 1000 239 l 1000 579 l 1181 579 l 1181 711 l 1000 711 l 1000 815 l 1181 815 l 1181 947 l 1000 947 l 1000 1058 l 861 1058 l 861 239 l 403 239 l 403 107 l 861 107 l 861 -275 l 1000 -275 z "},"갼":{"ha":1250,"x_min":167,"x_max":1181,"o":"m 1181 579 l 1181 711 l 1000 711 l 1000 815 l 1181 815 l 1181 947 l 1000 947 l 1000 1058 l 861 1058 l 861 183 l 1000 183 l 1000 579 l 1181 579 m 711 940 l 619 1031 l 167 1031 l 167 899 l 501 899 l 186 524 l 292 440 l 711 940 m 1014 -275 l 1014 -143 l 556 -143 l 556 183 l 417 183 l 417 -164 q 449 -242 417 -210 q 528 -275 482 -275 l 1014 -275 z "},"걀":{"ha":1250,"x_min":167,"x_max":1181,"o":"m 711 940 l 619 1031 l 167 1031 l 167 899 l 501 899 l 186 524 l 292 440 l 711 940 m 1014 -303 l 1014 -178 l 556 -178 l 556 -85 l 1000 -85 l 1000 253 l 1000 579 l 1181 579 l 1181 711 l 1000 711 l 1000 815 l 1181 815 l 1181 947 l 1000 947 l 1000 1058 l 861 1058 l 861 253 l 417 253 l 417 128 l 861 128 l 861 36 l 417 36 l 417 -192 q 449 -270 417 -237 q 528 -303 482 -303 l 1014 -303 z "},"걋":{"ha":1250,"x_min":167,"x_max":1181,"o":"m 1181 579 l 1181 711 l 1000 711 l 1000 815 l 1181 815 l 1181 947 l 1000 947 l 1000 1058 l 861 1058 l 861 183 l 1000 183 l 1000 579 l 1181 579 m 711 940 l 619 1031 l 167 1031 l 167 899 l 501 899 l 186 524 l 292 440 l 711 940 m 1043 -204 l 681 225 l 318 -204 l 426 -289 l 681 15 l 935 -289 l 1043 -204 z "},"걍":{"ha":1250,"x_min":167,"x_max":1181,"o":"m 1181 579 l 1181 711 l 1000 711 l 1000 815 l 1181 815 l 1181 947 l 1000 947 l 1000 1058 l 861 1058 l 861 192 q 724 228 800 228 q 617 207 667 228 q 529 150 567 186 q 469 66 492 114 q 447 -37 447 18 q 469 -141 447 -93 q 529 -225 492 -189 q 617 -282 567 -261 q 724 -303 667 -303 q 830 -282 779 -303 q 918 -225 881 -261 q 978 -140 956 -189 q 1000 -37 1000 -92 l 1000 579 l 1181 579 m 861 -37 q 822 -135 861 -97 q 724 -174 782 -174 q 627 -135 668 -174 q 586 -37 586 -97 q 627 62 586 25 q 724 99 668 99 q 822 62 782 99 q 861 -37 861 25 m 711 940 l 619 1031 l 167 1031 l 167 899 l 501 899 l 186 524 l 292 440 l 711 940 z "},"걔":{"ha":1250,"x_min":160,"x_max":1056,"o":"m 1056 44 l 1056 1058 l 917 1058 l 917 933 l 810 933 l 810 1058 l 674 1058 l 674 44 l 810 44 l 810 524 l 917 524 l 917 44 l 1056 44 m 917 656 l 810 656 l 810 801 l 917 801 l 917 656 m 608 965 l 504 1031 l 167 1031 l 167 899 l 417 899 l 160 451 l 276 388 l 608 965 z "},"걘":{"ha":1250,"x_min":167,"x_max":1069,"o":"m 1056 183 l 1056 1058 l 917 1058 l 917 947 l 810 947 l 810 1058 l 674 1058 l 674 183 l 810 183 l 810 565 l 917 565 l 917 183 l 1056 183 m 917 697 l 810 697 l 810 815 l 917 815 l 917 697 m 624 965 l 533 1031 l 167 1031 l 167 899 l 421 899 l 169 513 l 283 442 l 624 965 m 1069 -275 l 1069 -143 l 611 -143 l 611 183 l 472 183 l 472 -164 q 505 -242 472 -210 q 583 -275 538 -275 l 1069 -275 z "},"걜":{"ha":1250,"x_min":167,"x_max":1069,"o":"m 624 965 l 533 1031 l 167 1031 l 167 899 l 421 899 l 169 513 l 283 442 l 624 965 m 1069 -303 l 1069 -178 l 611 -178 l 611 -85 l 1056 -85 l 1056 253 l 1056 1058 l 917 1058 l 917 947 l 810 947 l 810 1058 l 674 1058 l 674 350 l 810 350 l 810 565 l 917 565 l 917 253 l 472 253 l 472 128 l 917 128 l 917 36 l 472 36 l 472 -192 q 505 -270 472 -237 q 583 -303 538 -303 l 1069 -303 m 917 697 l 810 697 l 810 815 l 917 815 l 917 697 z "},"거":{"ha":1250,"x_min":181,"x_max":1014,"o":"m 1014 44 l 1014 1058 l 875 1058 l 875 760 l 639 760 l 639 628 l 875 628 l 875 44 l 1014 44 m 728 957 l 626 1031 l 181 1031 l 181 899 l 522 899 l 196 431 l 308 357 l 728 957 z "},"걱":{"ha":1250,"x_min":181,"x_max":1014,"o":"m 725 940 l 633 1031 l 181 1031 l 181 899 l 515 899 l 200 524 l 306 440 l 725 940 m 1014 -275 l 1014 239 l 1014 1058 l 875 1058 l 875 788 l 639 788 l 639 656 l 875 656 l 875 239 l 417 239 l 417 107 l 875 107 l 875 -275 l 1014 -275 z "},"건":{"ha":1250,"x_min":181,"x_max":1028,"o":"m 1014 183 l 1014 1058 l 875 1058 l 875 788 l 639 788 l 639 656 l 875 656 l 875 183 l 1014 183 m 725 940 l 633 1031 l 181 1031 l 181 899 l 515 899 l 200 524 l 306 440 l 725 940 m 1028 -275 l 1028 -143 l 569 -143 l 569 183 l 431 183 l 431 -164 q 463 -242 431 -210 q 542 -275 496 -275 l 1028 -275 z "},"걷":{"ha":1250,"x_min":181,"x_max":1028,"o":"m 725 940 l 633 1031 l 181 1031 l 181 899 l 515 899 l 200 524 l 306 440 l 725 940 m 1028 -275 l 1028 -143 l 569 -143 l 569 107 l 1014 107 l 1014 239 l 1014 1058 l 875 1058 l 875 788 l 639 788 l 639 656 l 875 656 l 875 239 l 431 239 l 431 -164 q 463 -242 431 -210 q 542 -275 496 -275 l 1028 -275 z "},"걸":{"ha":1250,"x_min":181,"x_max":1028,"o":"m 725 940 l 633 1031 l 181 1031 l 181 899 l 515 899 l 200 524 l 306 440 l 725 940 m 1028 -303 l 1028 -178 l 569 -178 l 569 -85 l 1014 -85 l 1014 253 l 1014 1058 l 875 1058 l 875 788 l 639 788 l 639 656 l 875 656 l 875 253 l 431 253 l 431 128 l 875 128 l 875 36 l 431 36 l 431 -192 q 463 -270 431 -237 q 542 -303 496 -303 l 1028 -303 z "},"걺":{"ha":1250,"x_min":181,"x_max":1014,"o":"m 725 940 l 633 1031 l 181 1031 l 181 899 l 515 899 l 200 524 l 306 440 l 725 940 m 1014 -178 l 1014 253 l 1014 1058 l 875 1058 l 875 788 l 639 788 l 639 656 l 875 656 l 875 253 l 639 253 l 639 -178 q 672 -256 639 -224 q 750 -289 704 -289 l 903 -289 q 981 -256 949 -289 q 1014 -178 1014 -224 m 875 -157 l 778 -157 l 778 121 l 875 121 l 875 -157 m 597 -289 l 597 -164 l 375 -164 l 375 -78 l 583 -78 l 583 253 l 236 253 l 236 128 l 444 128 l 444 43 l 236 43 l 236 -178 q 269 -256 236 -224 q 347 -289 301 -289 l 597 -289 z "},"검":{"ha":1250,"x_min":181,"x_max":1014,"o":"m 725 940 l 633 1031 l 181 1031 l 181 899 l 515 899 l 200 524 l 306 440 l 725 940 m 1014 -164 l 1014 239 l 1014 1058 l 875 1058 l 875 788 l 639 788 l 639 656 l 875 656 l 875 239 l 431 239 l 431 -164 q 463 -242 431 -210 q 542 -275 496 -275 l 903 -275 q 981 -242 949 -275 q 1014 -164 1014 -210 m 875 -143 l 569 -143 l 569 107 l 875 107 l 875 -143 z "},"겁":{"ha":1250,"x_min":181,"x_max":1014,"o":"m 725 940 l 633 1031 l 181 1031 l 181 899 l 515 899 l 200 524 l 306 440 l 725 940 m 1014 -171 l 1014 239 l 1014 1058 l 875 1058 l 875 788 l 639 788 l 639 656 l 875 656 l 875 183 l 875 114 l 569 114 l 569 239 l 431 239 l 431 -171 q 463 -249 431 -217 q 542 -282 496 -282 l 903 -282 q 981 -249 949 -282 q 1014 -171 1014 -217 m 875 -150 l 569 -150 l 569 -18 l 875 -18 l 875 -150 z "},"것":{"ha":1250,"x_min":181,"x_max":1057,"o":"m 1014 183 l 1014 1058 l 875 1058 l 875 788 l 639 788 l 639 656 l 875 656 l 875 183 l 1014 183 m 725 940 l 633 1031 l 181 1031 l 181 899 l 515 899 l 200 524 l 306 440 l 725 940 m 1057 -204 l 694 225 l 332 -204 l 440 -289 l 694 15 l 949 -289 l 1057 -204 z "},"겄":{"ha":1250,"x_min":181,"x_max":1057,"o":"m 1014 183 l 1014 1058 l 875 1058 l 875 788 l 639 788 l 639 656 l 875 656 l 875 183 l 1014 183 m 725 940 l 633 1031 l 181 1031 l 181 899 l 515 899 l 200 524 l 306 440 l 725 940 m 1057 -236 l 824 239 l 653 -43 l 483 239 l 250 -236 l 372 -289 l 496 -36 l 653 -275 l 811 -36 l 935 -289 l 1057 -236 z "},"겅":{"ha":1250,"x_min":181,"x_max":1014,"o":"m 725 940 l 633 1031 l 181 1031 l 181 899 l 515 899 l 200 524 l 306 440 l 725 940 m 1014 -37 l 1014 1058 l 875 1058 l 875 788 l 639 788 l 639 656 l 875 656 l 875 192 q 738 228 814 228 q 631 207 681 228 q 543 150 581 186 q 483 66 506 114 q 461 -37 461 18 q 483 -141 461 -93 q 543 -225 506 -189 q 631 -282 581 -261 q 738 -303 681 -303 q 844 -282 793 -303 q 932 -225 894 -261 q 992 -140 969 -189 q 1014 -37 1014 -92 m 875 -37 q 835 -135 875 -97 q 738 -174 796 -174 q 641 -135 682 -174 q 600 -37 600 -97 q 641 62 600 25 q 738 99 682 99 q 835 62 796 99 q 875 -37 875 25 z "},"겆":{"ha":1250,"x_min":181,"x_max":1076,"o":"m 725 940 l 633 1031 l 181 1031 l 181 899 l 515 899 l 200 524 l 306 440 l 725 940 m 1076 -204 l 818 107 l 1014 107 l 1014 239 l 1014 1058 l 875 1058 l 875 788 l 639 788 l 639 656 l 875 656 l 875 239 l 431 239 l 431 107 l 626 107 l 368 -204 l 474 -289 l 722 13 l 971 -289 l 1076 -204 z "},"겉":{"ha":1250,"x_min":181,"x_max":1014,"o":"m 725 940 l 633 1031 l 181 1031 l 181 899 l 515 899 l 200 524 l 306 440 l 725 940 m 1014 -289 l 1014 -164 l 569 -164 l 569 -85 l 1000 -85 l 1000 36 l 569 36 l 569 114 l 1014 114 l 1014 239 l 1014 1058 l 875 1058 l 875 788 l 639 788 l 639 656 l 875 656 l 875 239 l 431 239 l 431 -178 q 463 -256 431 -224 q 542 -289 496 -289 l 1014 -289 z "},"겊":{"ha":1250,"x_min":181,"x_max":1021,"o":"m 725 940 l 633 1031 l 181 1031 l 181 899 l 515 899 l 200 524 l 306 440 l 725 940 m 611 -143 l 611 107 l 778 107 l 778 -143 l 611 -143 m 1021 -275 l 1021 -143 l 917 -143 l 917 107 l 1014 107 l 1014 239 l 1014 1058 l 875 1058 l 875 788 l 639 788 l 639 656 l 875 656 l 875 239 l 375 239 l 375 107 l 472 107 l 472 -143 l 368 -143 l 368 -275 l 1021 -275 z "},"겋":{"ha":1250,"x_min":181,"x_max":1014,"o":"m 725 940 l 633 1031 l 181 1031 l 181 899 l 515 899 l 200 524 l 306 440 l 725 940 m 933 -54 q 893 79 933 19 l 1014 79 l 1014 211 l 1014 1058 l 875 1058 l 875 788 l 639 788 l 639 656 l 875 656 l 875 211 l 743 211 l 743 322 l 604 322 l 604 211 l 333 211 l 333 79 l 454 79 q 425 16 436 50 q 414 -54 414 -18 q 435 -151 414 -106 q 491 -230 456 -196 q 574 -283 526 -264 q 674 -303 621 -303 q 772 -283 725 -303 q 856 -230 819 -264 q 913 -151 892 -196 q 933 -54 933 -106 m 794 -54 q 759 -140 794 -106 q 674 -174 724 -174 q 588 -140 624 -174 q 553 -54 553 -106 q 588 32 553 -1 q 674 65 624 65 q 759 32 724 65 q 794 -54 794 -1 z "},"게":{"ha":1250,"x_min":160,"x_max":1056,"o":"m 1056 44 l 1056 1058 l 917 1058 l 917 44 l 1056 44 m 833 44 l 833 1058 l 697 1058 l 697 760 l 514 760 l 514 628 l 697 628 l 697 44 l 833 44 m 608 965 l 504 1031 l 167 1031 l 167 899 l 417 899 l 160 451 l 276 388 l 608 965 z "},"겐":{"ha":1250,"x_min":167,"x_max":1069,"o":"m 1056 183 l 1056 1058 l 917 1058 l 917 183 l 1056 183 m 833 183 l 833 1058 l 697 1058 l 697 788 l 528 788 l 528 656 l 697 656 l 697 183 l 833 183 m 624 965 l 533 1031 l 167 1031 l 167 899 l 421 899 l 169 513 l 283 442 l 624 965 m 1069 -275 l 1069 -143 l 611 -143 l 611 183 l 472 183 l 472 -164 q 505 -242 472 -210 q 583 -275 538 -275 l 1069 -275 z "},"겔":{"ha":1250,"x_min":167,"x_max":1069,"o":"m 833 350 l 833 1058 l 697 1058 l 697 788 l 528 788 l 528 656 l 697 656 l 697 350 l 833 350 m 624 965 l 533 1031 l 167 1031 l 167 899 l 421 899 l 169 513 l 283 442 l 624 965 m 1069 -303 l 1069 -178 l 611 -178 l 611 -85 l 1056 -85 l 1056 253 l 1056 1058 l 917 1058 l 917 253 l 472 253 l 472 128 l 917 128 l 917 36 l 472 36 l 472 -192 q 505 -270 472 -237 q 583 -303 538 -303 l 1069 -303 z "},"겜":{"ha":1250,"x_min":167,"x_max":1056,"o":"m 833 350 l 833 1058 l 697 1058 l 697 788 l 528 788 l 528 656 l 697 656 l 697 350 l 833 350 m 624 965 l 533 1031 l 167 1031 l 167 899 l 421 899 l 169 513 l 283 442 l 624 965 m 1056 -164 l 1056 239 l 1056 1058 l 917 1058 l 917 239 l 472 239 l 472 -164 q 505 -242 472 -210 q 583 -275 538 -275 l 944 -275 q 1023 -242 990 -275 q 1056 -164 1056 -210 m 917 -143 l 611 -143 l 611 107 l 917 107 l 917 -143 z "},"겝":{"ha":1250,"x_min":167,"x_max":1056,"o":"m 833 350 l 833 1058 l 697 1058 l 697 788 l 528 788 l 528 656 l 697 656 l 697 350 l 833 350 m 624 965 l 533 1031 l 167 1031 l 167 899 l 421 899 l 169 513 l 283 442 l 624 965 m 1056 -171 l 1056 239 l 1056 1058 l 917 1058 l 917 183 l 917 114 l 611 114 l 611 239 l 472 239 l 472 -171 q 505 -249 472 -217 q 583 -282 538 -282 l 944 -282 q 1023 -249 990 -282 q 1056 -171 1056 -217 m 917 -150 l 611 -150 l 611 -18 l 917 -18 l 917 -150 z "},"겟":{"ha":1250,"x_min":167,"x_max":1099,"o":"m 1056 183 l 1056 1058 l 917 1058 l 917 183 l 1056 183 m 833 350 l 833 1058 l 697 1058 l 697 788 l 528 788 l 528 656 l 697 656 l 697 350 l 833 350 m 624 965 l 533 1031 l 167 1031 l 167 899 l 421 899 l 169 513 l 283 442 l 624 965 m 1099 -204 l 736 225 l 374 -204 l 482 -289 l 736 15 l 990 -289 l 1099 -204 z "},"겠":{"ha":1250,"x_min":167,"x_max":1099,"o":"m 1056 183 l 1056 1058 l 917 1058 l 917 183 l 1056 183 m 833 350 l 833 1058 l 697 1058 l 697 788 l 528 788 l 528 656 l 697 656 l 697 350 l 833 350 m 624 965 l 533 1031 l 167 1031 l 167 899 l 421 899 l 169 513 l 283 442 l 624 965 m 1099 -236 l 865 239 l 694 -43 l 525 239 l 292 -236 l 414 -289 l 538 -36 l 694 -275 l 853 -36 l 976 -289 l 1099 -236 z "},"겡":{"ha":1250,"x_min":167,"x_max":1056,"o":"m 833 350 l 833 1058 l 697 1058 l 697 788 l 528 788 l 528 656 l 697 656 l 697 350 l 833 350 m 1056 -37 l 1056 1058 l 917 1058 l 917 192 q 779 228 856 228 q 672 207 722 228 q 585 150 622 186 q 525 66 547 114 q 503 -37 503 18 q 525 -141 503 -93 q 585 -225 547 -189 q 672 -282 622 -261 q 779 -303 722 -303 q 885 -282 835 -303 q 974 -225 936 -261 q 1033 -140 1011 -189 q 1056 -37 1056 -92 m 917 -37 q 877 -135 917 -97 q 779 -174 838 -174 q 683 -135 724 -174 q 642 -37 642 -97 q 683 62 642 25 q 779 99 724 99 q 877 62 838 99 q 917 -37 917 25 m 624 965 l 533 1031 l 167 1031 l 167 899 l 421 899 l 169 513 l 283 442 l 624 965 z "},"겨":{"ha":1250,"x_min":181,"x_max":1014,"o":"m 728 957 l 626 1031 l 181 1031 l 181 899 l 522 899 l 196 431 l 308 357 l 639 829 l 639 746 l 875 746 l 875 642 l 639 642 l 639 510 l 875 510 l 875 44 l 1014 44 l 1014 1058 l 875 1058 l 875 878 l 672 878 l 728 957 z "},"격":{"ha":1250,"x_min":181,"x_max":1014,"o":"m 1014 -275 l 1014 239 l 1014 1058 l 875 1058 l 875 878 l 672 878 l 725 940 l 633 1031 l 181 1031 l 181 899 l 515 899 l 200 524 l 306 440 l 639 838 l 639 746 l 875 746 l 875 642 l 639 642 l 639 510 l 875 510 l 875 239 l 417 239 l 417 107 l 875 107 l 875 -275 l 1014 -275 z "},"겪":{"ha":1250,"x_min":181,"x_max":1014,"o":"m 1014 -275 l 1014 239 l 1014 1058 l 875 1058 l 875 878 l 672 878 l 725 940 l 633 1031 l 181 1031 l 181 899 l 515 899 l 200 524 l 306 440 l 639 838 l 639 746 l 875 746 l 875 642 l 639 642 l 639 510 l 875 510 l 875 239 l 333 239 l 333 107 l 542 107 l 542 -275 l 681 -275 l 681 107 l 875 107 l 875 -275 l 1014 -275 z "},"견":{"ha":1250,"x_min":181,"x_max":1028,"o":"m 725 940 l 633 1031 l 181 1031 l 181 899 l 515 899 l 200 524 l 306 440 l 639 838 l 639 746 l 875 746 l 875 642 l 639 642 l 639 510 l 875 510 l 875 183 l 1014 183 l 1014 1058 l 875 1058 l 875 878 l 672 878 l 725 940 m 1028 -275 l 1028 -143 l 569 -143 l 569 183 l 431 183 l 431 -164 q 463 -242 431 -210 q 542 -275 496 -275 l 1028 -275 z "},"겯":{"ha":1250,"x_min":181,"x_max":1028,"o":"m 1028 -275 l 1028 -143 l 569 -143 l 569 107 l 1014 107 l 1014 239 l 1014 1058 l 875 1058 l 875 878 l 672 878 l 725 940 l 633 1031 l 181 1031 l 181 899 l 515 899 l 200 524 l 306 440 l 639 838 l 639 746 l 875 746 l 875 642 l 639 642 l 639 510 l 875 510 l 875 239 l 431 239 l 431 -164 q 463 -242 431 -210 q 542 -275 496 -275 l 1028 -275 z "},"결":{"ha":1250,"x_min":181,"x_max":1028,"o":"m 1028 -303 l 1028 -178 l 569 -178 l 569 -85 l 1014 -85 l 1014 253 l 1014 1058 l 875 1058 l 875 878 l 672 878 l 725 940 l 633 1031 l 181 1031 l 181 899 l 515 899 l 200 524 l 306 440 l 639 838 l 639 746 l 875 746 l 875 642 l 639 642 l 639 510 l 875 510 l 875 253 l 431 253 l 431 128 l 875 128 l 875 36 l 431 36 l 431 -192 q 463 -270 431 -237 q 542 -303 496 -303 l 1028 -303 z "},"겸":{"ha":1250,"x_min":181,"x_max":1014,"o":"m 1014 -164 l 1014 239 l 1014 1058 l 875 1058 l 875 878 l 672 878 l 725 940 l 633 1031 l 181 1031 l 181 899 l 515 899 l 200 524 l 306 440 l 639 838 l 639 746 l 875 746 l 875 642 l 639 642 l 639 510 l 875 510 l 875 239 l 431 239 l 431 -164 q 463 -242 431 -210 q 542 -275 496 -275 l 903 -275 q 981 -242 949 -275 q 1014 -164 1014 -210 m 875 -143 l 569 -143 l 569 107 l 875 107 l 875 -143 z "},"겹":{"ha":1250,"x_min":181,"x_max":1014,"o":"m 1014 -171 l 1014 239 l 1014 1058 l 875 1058 l 875 878 l 672 878 l 725 940 l 633 1031 l 181 1031 l 181 899 l 515 899 l 200 524 l 306 440 l 639 838 l 639 746 l 875 746 l 875 642 l 639 642 l 639 510 l 875 510 l 875 183 l 875 114 l 569 114 l 569 239 l 431 239 l 431 -171 q 463 -249 431 -217 q 542 -282 496 -282 l 903 -282 q 981 -249 949 -282 q 1014 -171 1014 -217 m 875 -150 l 569 -150 l 569 -18 l 875 -18 l 875 -150 z "},"겻":{"ha":1250,"x_min":181,"x_max":1057,"o":"m 725 940 l 633 1031 l 181 1031 l 181 899 l 515 899 l 200 524 l 306 440 l 639 838 l 639 746 l 875 746 l 875 642 l 639 642 l 639 510 l 875 510 l 875 183 l 1014 183 l 1014 1058 l 875 1058 l 875 878 l 672 878 l 725 940 m 1057 -204 l 672 225 l 332 -204 l 440 -289 l 694 15 l 949 -289 l 1057 -204 z "},"겼":{"ha":1250,"x_min":181,"x_max":1057,"o":"m 725 940 l 633 1031 l 181 1031 l 181 899 l 515 899 l 200 524 l 306 440 l 639 838 l 639 746 l 875 746 l 875 642 l 639 642 l 639 510 l 875 510 l 875 183 l 1014 183 l 1014 1058 l 875 1058 l 875 878 l 672 878 l 725 940 m 1057 -236 l 824 239 l 653 -43 l 483 239 l 250 -236 l 372 -289 l 496 -36 l 653 -275 l 811 -36 l 935 -289 l 1057 -236 z "},"경":{"ha":1250,"x_min":181,"x_max":1014,"o":"m 1014 -37 l 1014 1058 l 875 1058 l 875 878 l 672 878 l 725 940 l 633 1031 l 181 1031 l 181 899 l 515 899 l 200 524 l 306 440 l 639 838 l 639 746 l 875 746 l 875 642 l 639 642 l 639 510 l 875 510 l 875 192 q 738 228 814 228 q 631 207 681 228 q 543 150 581 186 q 483 66 506 114 q 461 -37 461 18 q 483 -141 461 -93 q 543 -225 506 -189 q 631 -282 581 -261 q 738 -303 681 -303 q 844 -282 793 -303 q 932 -225 894 -261 q 992 -140 969 -189 q 1014 -37 1014 -92 m 875 -37 q 835 -135 875 -97 q 738 -174 796 -174 q 641 -135 682 -174 q 600 -37 600 -97 q 641 62 600 25 q 738 99 682 99 q 835 62 796 99 q 875 -37 875 25 z "},"곁":{"ha":1250,"x_min":181,"x_max":1014,"o":"m 1014 -289 l 1014 -164 l 569 -164 l 569 -85 l 1000 -85 l 1000 36 l 569 36 l 569 114 l 1014 114 l 1014 239 l 1014 1058 l 875 1058 l 875 878 l 672 878 l 725 940 l 633 1031 l 181 1031 l 181 899 l 515 899 l 200 524 l 306 440 l 639 838 l 639 746 l 875 746 l 875 642 l 639 642 l 639 510 l 875 510 l 875 239 l 431 239 l 431 -178 q 463 -256 431 -224 q 542 -289 496 -289 l 1014 -289 z "},"계":{"ha":1250,"x_min":160,"x_max":1056,"o":"m 1056 44 l 1056 1058 l 917 1058 l 917 44 l 1056 44 m 608 965 l 504 1031 l 167 1031 l 167 899 l 417 899 l 160 451 l 276 388 l 528 825 l 528 746 l 697 746 l 697 642 l 528 642 l 528 510 l 697 510 l 697 44 l 833 44 l 833 1058 l 697 1058 l 697 878 l 558 878 l 608 965 z "},"곈":{"ha":1250,"x_min":167,"x_max":1069,"o":"m 1056 183 l 1056 1058 l 917 1058 l 917 183 l 1056 183 m 624 965 l 533 1031 l 167 1031 l 167 899 l 421 899 l 169 513 l 283 442 l 528 818 l 528 760 l 697 760 l 697 656 l 528 656 l 528 524 l 697 524 l 697 183 l 833 183 l 833 1058 l 697 1058 l 697 892 l 575 892 l 624 965 m 1069 -275 l 1069 -143 l 611 -143 l 611 183 l 472 183 l 472 -164 q 505 -242 472 -210 q 583 -275 538 -275 l 1069 -275 z "},"곌":{"ha":1250,"x_min":167,"x_max":1069,"o":"m 624 965 l 533 1031 l 167 1031 l 167 899 l 421 899 l 169 513 l 283 442 l 528 818 l 528 760 l 697 760 l 697 656 l 528 656 l 528 524 l 697 524 l 697 350 l 833 350 l 833 1058 l 697 1058 l 697 892 l 575 892 l 624 965 m 1069 -303 l 1069 -178 l 611 -178 l 611 -85 l 1056 -85 l 1056 253 l 1056 1058 l 917 1058 l 917 253 l 472 253 l 472 128 l 917 128 l 917 36 l 472 36 l 472 -192 q 505 -270 472 -237 q 583 -303 538 -303 l 1069 -303 z "},"곕":{"ha":1250,"x_min":167,"x_max":1056,"o":"m 624 965 l 533 1031 l 167 1031 l 167 899 l 421 899 l 169 513 l 283 442 l 528 818 l 528 760 l 697 760 l 697 656 l 528 656 l 528 524 l 697 524 l 697 350 l 833 350 l 833 1058 l 697 1058 l 697 892 l 575 892 l 624 965 m 1056 -171 l 1056 239 l 1056 1058 l 917 1058 l 917 183 l 917 114 l 611 114 l 611 239 l 472 239 l 472 -171 q 505 -249 472 -217 q 583 -282 538 -282 l 944 -282 q 1023 -249 990 -282 q 1056 -171 1056 -217 m 917 -150 l 611 -150 l 611 -18 l 917 -18 l 917 -150 z "},"곗":{"ha":1250,"x_min":167,"x_max":1099,"o":"m 1056 183 l 1056 1058 l 917 1058 l 917 183 l 1056 183 m 624 965 l 533 1031 l 167 1031 l 167 899 l 421 899 l 169 513 l 283 442 l 528 818 l 528 760 l 697 760 l 697 656 l 528 656 l 528 524 l 697 524 l 697 350 l 833 350 l 833 1058 l 697 1058 l 697 892 l 575 892 l 624 965 m 1099 -204 l 736 225 l 374 -204 l 482 -289 l 736 15 l 990 -289 l 1099 -204 z "},"고":{"ha":1250,"x_min":56,"x_max":1194,"o":"m 917 544 l 917 1031 l 319 1031 l 319 899 l 778 899 l 778 544 l 917 544 m 1194 190 l 1194 322 l 639 322 l 639 642 l 500 642 l 500 322 l 56 322 l 56 190 l 1194 190 z "},"곡":{"ha":1250,"x_min":56,"x_max":1194,"o":"m 917 586 l 917 1031 l 319 1031 l 319 899 l 778 899 l 778 586 l 917 586 m 1194 343 l 1194 475 l 639 475 l 639 711 l 500 711 l 500 475 l 56 475 l 56 343 l 1194 343 m 917 -275 l 917 169 l 319 169 l 319 38 l 778 38 l 778 -275 l 917 -275 z "},"곤":{"ha":1250,"x_min":56,"x_max":1194,"o":"m 917 586 l 917 1031 l 319 1031 l 319 899 l 778 899 l 778 586 l 917 586 m 1194 315 l 1194 447 l 639 447 l 639 711 l 500 711 l 500 447 l 56 447 l 56 315 l 1194 315 m 931 -275 l 931 -143 l 472 -143 l 472 128 l 333 128 l 333 -164 q 366 -242 333 -210 q 444 -275 399 -275 l 931 -275 z "},"곧":{"ha":1250,"x_min":56,"x_max":1194,"o":"m 917 586 l 917 1031 l 319 1031 l 319 899 l 778 899 l 778 586 l 917 586 m 1194 343 l 1194 475 l 639 475 l 639 711 l 500 711 l 500 475 l 56 475 l 56 343 l 1194 343 m 931 -275 l 931 -143 l 472 -143 l 472 65 l 917 65 l 917 197 l 333 197 l 333 -164 q 366 -242 333 -210 q 444 -275 399 -275 l 931 -275 z "},"골":{"ha":1250,"x_min":56,"x_max":1194,"o":"m 917 628 l 917 1031 l 319 1031 l 319 899 l 778 899 l 778 628 l 917 628 m 1194 385 l 1194 517 l 639 517 l 639 725 l 500 725 l 500 517 l 56 517 l 56 385 l 1194 385 m 931 -303 l 931 -178 l 472 -178 l 472 -78 l 917 -78 l 917 267 l 333 267 l 333 142 l 778 142 l 778 43 l 333 43 l 333 -192 q 366 -270 333 -237 q 444 -303 399 -303 l 931 -303 z "},"곪":{"ha":1250,"x_min":56,"x_max":1194,"o":"m 917 628 l 917 1031 l 319 1031 l 319 899 l 778 899 l 778 628 l 917 628 m 1194 385 l 1194 517 l 639 517 l 639 725 l 500 725 l 500 517 l 56 517 l 56 385 l 1194 385 m 1014 -192 l 1014 267 l 639 267 l 639 -192 q 672 -270 639 -237 q 750 -303 704 -303 l 903 -303 q 981 -270 949 -303 q 1014 -192 1014 -237 m 875 -171 l 778 -171 l 778 135 l 875 135 l 875 -171 m 597 -303 l 597 -178 l 375 -178 l 375 -78 l 583 -78 l 583 267 l 236 267 l 236 142 l 444 142 l 444 43 l 236 43 l 236 -192 q 269 -270 236 -237 q 347 -303 301 -303 l 597 -303 z "},"곬":{"ha":1250,"x_min":56,"x_max":1194,"o":"m 917 628 l 917 1031 l 319 1031 l 319 899 l 778 899 l 778 628 l 917 628 m 1194 385 l 1194 517 l 639 517 l 639 725 l 500 725 l 500 517 l 56 517 l 56 385 l 1194 385 m 625 -289 l 625 -239 l 726 -303 l 840 -94 l 954 -303 l 1068 -231 l 840 183 l 625 -208 l 625 -164 l 403 -164 l 403 -71 l 611 -71 l 611 267 l 264 267 l 264 142 l 472 142 l 472 50 l 264 50 l 264 -178 q 297 -256 264 -224 q 375 -289 329 -289 l 625 -289 z "},"곯":{"ha":1250,"x_min":56,"x_max":1194,"o":"m 917 628 l 917 1031 l 319 1031 l 319 899 l 778 899 l 778 628 l 917 628 m 1194 385 l 1194 517 l 639 517 l 639 725 l 500 725 l 500 517 l 56 517 l 56 385 l 1194 385 m 597 -289 l 597 -164 l 375 -164 l 375 -64 l 583 -64 l 583 86 l 649 86 q 614 -51 614 25 q 631 -150 614 -104 q 678 -230 649 -196 q 746 -283 707 -264 q 826 -303 785 -303 q 908 -283 869 -303 q 975 -228 946 -262 q 1022 -149 1004 -194 q 1039 -51 1039 -103 q 1004 86 1039 25 l 1083 86 l 1083 218 l 896 218 l 896 308 l 757 308 l 757 218 l 583 218 l 583 281 l 236 281 l 236 156 l 444 156 l 444 57 l 236 57 l 236 -178 q 269 -256 236 -224 q 347 -289 301 -289 l 597 -289 m 900 -51 q 877 -138 900 -103 q 826 -174 854 -174 q 776 -138 799 -174 q 753 -51 753 -103 q 776 35 753 0 q 826 71 799 71 q 877 35 854 71 q 900 -51 900 0 z "},"곰":{"ha":1250,"x_min":56,"x_max":1194,"o":"m 917 586 l 917 1031 l 319 1031 l 319 899 l 778 899 l 778 586 l 917 586 m 1194 343 l 1194 475 l 639 475 l 639 711 l 500 711 l 500 475 l 56 475 l 56 343 l 1194 343 m 917 -164 l 917 197 l 333 197 l 333 -164 q 366 -242 333 -210 q 444 -275 399 -275 l 806 -275 q 884 -242 851 -275 q 917 -164 917 -210 m 778 -143 l 472 -143 l 472 65 l 778 65 l 778 -143 z "},"곱":{"ha":1250,"x_min":56,"x_max":1194,"o":"m 917 586 l 917 1031 l 319 1031 l 319 899 l 778 899 l 778 586 l 917 586 m 1194 343 l 1194 475 l 639 475 l 639 711 l 500 711 l 500 475 l 56 475 l 56 343 l 1194 343 m 917 -178 l 917 232 l 778 232 l 778 107 l 472 107 l 472 232 l 333 232 l 333 -178 q 366 -256 333 -224 q 444 -289 399 -289 l 806 -289 q 884 -256 851 -289 q 917 -178 917 -224 m 778 -157 l 472 -157 l 472 -25 l 778 -25 l 778 -157 z "},"곳":{"ha":1250,"x_min":56,"x_max":1194,"o":"m 917 586 l 917 1031 l 319 1031 l 319 899 l 778 899 l 778 586 l 917 586 m 1194 343 l 1194 475 l 639 475 l 639 711 l 500 711 l 500 475 l 56 475 l 56 343 l 1194 343 m 988 -204 l 625 225 l 263 -204 l 371 -289 l 625 15 l 879 -289 l 988 -204 z "},"공":{"ha":1250,"x_min":56,"x_max":1194,"o":"m 917 586 l 917 1031 l 319 1031 l 319 899 l 778 899 l 778 586 l 917 586 m 1194 343 l 1194 475 l 639 475 l 639 711 l 500 711 l 500 475 l 56 475 l 56 343 l 1194 343 m 901 -50 q 879 48 901 1 q 819 128 857 94 q 731 183 781 163 q 625 203 681 203 q 518 183 568 203 q 431 129 468 164 q 371 49 393 94 q 349 -50 349 3 q 371 -149 349 -103 q 431 -229 393 -194 q 518 -283 468 -264 q 625 -303 568 -303 q 731 -283 681 -303 q 819 -228 781 -262 q 879 -149 857 -194 q 901 -50 901 -103 m 763 -50 q 723 -139 763 -104 q 625 -174 683 -174 q 572 -165 597 -174 q 528 -139 547 -156 q 499 -100 510 -122 q 488 -50 488 -78 q 499 -1 488 -24 q 528 39 510 22 q 572 65 547 56 q 625 74 597 74 q 723 39 683 74 q 763 -50 763 4 z "},"곶":{"ha":1250,"x_min":56,"x_max":1194,"o":"m 917 586 l 917 1031 l 319 1031 l 319 899 l 778 899 l 778 586 l 917 586 m 1194 343 l 1194 475 l 639 475 l 639 711 l 500 711 l 500 475 l 56 475 l 56 343 l 1194 343 m 979 -194 l 722 65 l 917 65 l 917 197 l 333 197 l 333 65 l 528 65 l 271 -194 l 371 -289 l 625 -28 l 879 -289 l 979 -194 z "},"과":{"ha":1250,"x_min":14,"x_max":1208,"o":"m 708 558 l 708 1031 l 194 1031 l 194 899 l 569 899 l 569 558 l 708 558 m 889 246 l 889 44 l 1028 44 l 1028 656 l 1208 656 l 1208 788 l 1028 788 l 1028 1058 l 889 1058 l 889 378 l 465 378 l 465 683 l 326 683 l 326 378 l 14 378 l 14 246 l 889 246 z "},"곽":{"ha":1250,"x_min":14,"x_max":1208,"o":"m 708 586 l 708 1031 l 194 1031 l 194 899 l 569 899 l 569 586 l 708 586 m 1028 -275 l 1028 169 l 1028 697 l 1208 697 l 1208 829 l 1028 829 l 1028 1058 l 889 1058 l 889 475 l 465 475 l 465 711 l 326 711 l 326 475 l 14 475 l 14 343 l 889 343 l 889 169 l 431 169 l 431 38 l 889 38 l 889 -275 l 1028 -275 z "},"관":{"ha":1250,"x_min":14,"x_max":1208,"o":"m 708 586 l 708 1031 l 194 1031 l 194 899 l 569 899 l 569 586 l 708 586 m 889 315 l 889 142 l 1028 142 l 1028 697 l 1208 697 l 1208 829 l 1028 829 l 1028 1058 l 889 1058 l 889 447 l 465 447 l 465 711 l 326 711 l 326 447 l 14 447 l 14 315 l 889 315 m 1042 -275 l 1042 -143 l 583 -143 l 583 128 l 444 128 l 444 -164 q 477 -242 444 -210 q 556 -275 510 -275 l 1042 -275 z "},"괄":{"ha":1250,"x_min":14,"x_max":1208,"o":"m 708 586 l 708 1031 l 194 1031 l 194 899 l 569 899 l 569 586 l 708 586 m 1042 -303 l 1042 -178 l 583 -178 l 583 -99 l 1028 -99 l 1028 225 l 1028 697 l 1208 697 l 1208 829 l 1028 829 l 1028 1058 l 889 1058 l 889 475 l 465 475 l 465 711 l 326 711 l 326 475 l 14 475 l 14 343 l 889 343 l 889 225 l 444 225 l 444 100 l 889 100 l 889 22 l 444 22 l 444 -192 q 477 -270 444 -237 q 556 -303 510 -303 l 1042 -303 z "},"괆":{"ha":1250,"x_min":14,"x_max":1208,"o":"m 708 586 l 708 1031 l 194 1031 l 194 899 l 569 899 l 569 586 l 708 586 m 1028 -192 l 1028 225 l 1028 697 l 1208 697 l 1208 829 l 1028 829 l 1028 1058 l 889 1058 l 889 475 l 465 475 l 465 711 l 326 711 l 326 475 l 14 475 l 14 343 l 889 343 l 889 225 l 653 225 l 653 -192 q 685 -270 653 -237 q 764 -303 718 -303 l 917 -303 q 995 -270 963 -303 q 1028 -192 1028 -237 m 889 -171 l 792 -171 l 792 93 l 889 93 l 889 -171 m 611 -303 l 611 -178 l 389 -178 l 389 -99 l 597 -99 l 597 225 l 250 225 l 250 100 l 458 100 l 458 22 l 250 22 l 250 -192 q 283 -270 250 -237 q 361 -303 315 -303 l 611 -303 z "},"괌":{"ha":1250,"x_min":14,"x_max":1208,"o":"m 708 586 l 708 1031 l 194 1031 l 194 899 l 569 899 l 569 586 l 708 586 m 1028 -164 l 1028 197 l 1028 697 l 1208 697 l 1208 829 l 1028 829 l 1028 1058 l 889 1058 l 889 475 l 465 475 l 465 711 l 326 711 l 326 475 l 14 475 l 14 343 l 889 343 l 889 197 l 444 197 l 444 -164 q 477 -242 444 -210 q 556 -275 510 -275 l 917 -275 q 995 -242 963 -275 q 1028 -164 1028 -210 m 889 -143 l 583 -143 l 583 65 l 889 65 l 889 -143 z "},"괍":{"ha":1250,"x_min":14,"x_max":1208,"o":"m 708 586 l 708 1031 l 194 1031 l 194 899 l 569 899 l 569 586 l 708 586 m 583 -39 l 889 -39 l 889 -157 l 583 -157 l 583 -39 m 1028 -178 l 1028 204 l 1028 697 l 1208 697 l 1208 829 l 1028 829 l 1028 1058 l 889 1058 l 889 475 l 465 475 l 465 711 l 326 711 l 326 475 l 14 475 l 14 343 l 889 343 l 889 142 l 889 93 l 583 93 l 583 204 l 444 204 l 444 -178 q 477 -256 444 -224 q 556 -289 510 -289 l 917 -289 q 995 -256 963 -289 q 1028 -178 1028 -224 z "},"괏":{"ha":1250,"x_min":14,"x_max":1208,"o":"m 708 586 l 708 1031 l 194 1031 l 194 899 l 569 899 l 569 586 l 708 586 m 889 343 l 889 142 l 1028 142 l 1028 697 l 1208 697 l 1208 829 l 1028 829 l 1028 1058 l 889 1058 l 889 475 l 465 475 l 465 711 l 326 711 l 326 475 l 14 475 l 14 343 l 889 343 m 1071 -204 l 708 225 l 346 -204 l 454 -289 l 708 15 l 963 -289 l 1071 -204 z "},"광":{"ha":1250,"x_min":14,"x_max":1208,"o":"m 708 586 l 708 1031 l 194 1031 l 194 899 l 569 899 l 569 586 l 708 586 m 889 343 l 889 169 q 824 194 858 185 q 751 203 789 203 q 644 183 694 203 q 557 129 594 164 q 497 49 519 94 q 475 -50 475 3 q 497 -149 475 -103 q 557 -229 519 -194 q 644 -283 594 -264 q 751 -303 694 -303 q 857 -283 807 -303 q 945 -228 907 -262 q 1006 -149 983 -194 q 1028 -50 1028 -103 l 1028 697 l 1208 697 l 1208 829 l 1028 829 l 1028 1058 l 889 1058 l 889 475 l 465 475 l 465 711 l 326 711 l 326 475 l 14 475 l 14 343 l 889 343 m 889 -50 q 849 -139 889 -104 q 751 -174 810 -174 q 699 -165 724 -174 q 655 -139 674 -156 q 625 -100 636 -122 q 614 -50 614 -78 q 625 -1 614 -24 q 655 39 636 22 q 699 65 674 56 q 751 74 724 74 q 849 39 810 74 q 889 -50 889 4 z "},"괘":{"ha":1250,"x_min":14,"x_max":1083,"o":"m 597 558 l 597 1031 l 153 1031 l 153 899 l 458 899 l 458 558 l 597 558 m 757 246 l 838 246 l 838 656 l 944 656 l 944 44 l 1083 44 l 1083 1058 l 944 1058 l 944 788 l 838 788 l 838 1058 l 701 1058 l 701 378 l 396 378 l 396 683 l 257 683 l 257 378 l 14 378 l 14 246 l 701 246 l 757 246 z "},"괜":{"ha":1250,"x_min":14,"x_max":1097,"o":"m 597 586 l 597 1031 l 153 1031 l 153 899 l 458 899 l 458 586 l 597 586 m 757 315 l 838 315 l 838 697 l 944 697 l 944 142 l 1083 142 l 1083 1058 l 944 1058 l 944 829 l 838 829 l 838 1058 l 701 1058 l 701 447 l 396 447 l 396 711 l 257 711 l 257 447 l 14 447 l 14 315 l 701 315 l 757 315 m 1097 -275 l 1097 -143 l 639 -143 l 639 128 l 500 128 l 500 -164 q 533 -242 500 -210 q 611 -275 565 -275 l 1097 -275 z "},"괠":{"ha":1250,"x_min":14,"x_max":1097,"o":"m 597 586 l 597 1031 l 153 1031 l 153 899 l 458 899 l 458 586 l 597 586 m 1097 -303 l 1097 -178 l 639 -178 l 639 -99 l 1083 -99 l 1083 225 l 1083 1058 l 944 1058 l 944 829 l 838 829 l 838 1058 l 701 1058 l 701 475 l 396 475 l 396 711 l 257 711 l 257 475 l 14 475 l 14 343 l 757 343 l 838 343 l 838 697 l 944 697 l 944 225 l 500 225 l 500 100 l 944 100 l 944 22 l 500 22 l 500 -192 q 533 -270 500 -237 q 611 -303 565 -303 l 1097 -303 z "},"괩":{"ha":1250,"x_min":14,"x_max":1083,"o":"m 597 586 l 597 1031 l 153 1031 l 153 899 l 458 899 l 458 586 l 597 586 m 1083 -178 l 1083 204 l 1083 1058 l 944 1058 l 944 829 l 838 829 l 838 1058 l 701 1058 l 701 475 l 396 475 l 396 711 l 257 711 l 257 475 l 14 475 l 14 343 l 757 343 l 838 343 l 838 697 l 944 697 l 944 142 l 944 93 l 639 93 l 639 204 l 500 204 l 500 -178 q 533 -256 500 -224 q 611 -289 565 -289 l 972 -289 q 1051 -256 1018 -289 q 1083 -178 1083 -224 m 944 -157 l 639 -157 l 639 -39 l 944 -39 l 944 -157 z "},"괬":{"ha":1250,"x_min":14,"x_max":1126,"o":"m 597 586 l 597 1031 l 153 1031 l 153 899 l 458 899 l 458 586 l 597 586 m 757 343 l 838 343 l 838 697 l 944 697 l 944 142 l 1083 142 l 1083 1058 l 944 1058 l 944 829 l 838 829 l 838 1058 l 701 1058 l 701 475 l 396 475 l 396 711 l 257 711 l 257 475 l 14 475 l 14 343 l 701 343 l 757 343 m 1126 -250 l 893 211 l 722 -57 l 553 211 l 319 -250 l 442 -303 l 567 -57 l 722 -289 l 879 -57 l 1004 -303 l 1126 -250 z "},"괭":{"ha":1250,"x_min":14,"x_max":1083,"o":"m 597 586 l 597 1031 l 153 1031 l 153 899 l 458 899 l 458 586 l 597 586 m 757 343 l 838 343 l 838 697 l 944 697 l 944 169 q 879 194 914 185 q 807 203 844 203 q 700 183 750 203 q 613 129 650 164 q 553 49 575 94 q 531 -50 531 3 q 553 -149 531 -103 q 613 -229 575 -194 q 700 -283 650 -264 q 807 -303 750 -303 q 913 -283 863 -303 q 1001 -228 963 -262 q 1061 -149 1039 -194 q 1083 -50 1083 -103 l 1083 1058 l 944 1058 l 944 829 l 838 829 l 838 1058 l 701 1058 l 701 475 l 396 475 l 396 711 l 257 711 l 257 475 l 14 475 l 14 343 l 701 343 l 757 343 m 944 -50 q 905 -139 944 -104 q 807 -174 865 -174 q 754 -165 779 -174 q 710 -139 729 -156 q 681 -100 692 -122 q 669 -50 669 -78 q 681 -1 669 -24 q 710 39 692 22 q 754 65 729 56 q 807 74 779 74 q 905 39 865 74 q 944 -50 944 4 z "},"괴":{"ha":1250,"x_min":42,"x_max":1056,"o":"m 736 558 l 736 1031 l 222 1031 l 222 899 l 597 899 l 597 558 l 736 558 m 917 246 l 917 44 l 1056 44 l 1056 1058 l 917 1058 l 917 378 l 493 378 l 493 683 l 354 683 l 354 378 l 42 378 l 42 246 l 917 246 z "},"괵":{"ha":1250,"x_min":42,"x_max":1056,"o":"m 736 586 l 736 1031 l 222 1031 l 222 899 l 597 899 l 597 586 l 736 586 m 1056 -275 l 1056 169 l 1056 1058 l 917 1058 l 917 475 l 493 475 l 493 711 l 354 711 l 354 475 l 42 475 l 42 343 l 917 343 l 917 169 l 458 169 l 458 38 l 917 38 l 917 -275 l 1056 -275 z "},"괸":{"ha":1250,"x_min":42,"x_max":1069,"o":"m 736 586 l 736 1031 l 222 1031 l 222 899 l 597 899 l 597 586 l 736 586 m 917 315 l 917 142 l 1056 142 l 1056 1058 l 917 1058 l 917 447 l 493 447 l 493 711 l 354 711 l 354 447 l 42 447 l 42 315 l 917 315 m 1069 -275 l 1069 -143 l 611 -143 l 611 128 l 472 128 l 472 -164 q 505 -242 472 -210 q 583 -275 538 -275 l 1069 -275 z "},"괼":{"ha":1250,"x_min":42,"x_max":1069,"o":"m 736 586 l 736 1031 l 222 1031 l 222 899 l 597 899 l 597 586 l 736 586 m 1069 -303 l 1069 -178 l 611 -178 l 611 -99 l 1056 -99 l 1056 225 l 1056 1058 l 917 1058 l 917 475 l 493 475 l 493 711 l 354 711 l 354 475 l 42 475 l 42 343 l 917 343 l 917 225 l 472 225 l 472 100 l 917 100 l 917 22 l 472 22 l 472 -192 q 505 -270 472 -237 q 583 -303 538 -303 l 1069 -303 z "},"굄":{"ha":1250,"x_min":42,"x_max":1056,"o":"m 736 586 l 736 1031 l 222 1031 l 222 899 l 597 899 l 597 586 l 736 586 m 1056 -164 l 1056 197 l 1056 1058 l 917 1058 l 917 475 l 493 475 l 493 711 l 354 711 l 354 475 l 42 475 l 42 343 l 917 343 l 917 197 l 472 197 l 472 -164 q 505 -242 472 -210 q 583 -275 538 -275 l 944 -275 q 1023 -242 990 -275 q 1056 -164 1056 -210 m 917 -143 l 611 -143 l 611 65 l 917 65 l 917 -143 z "},"굅":{"ha":1250,"x_min":42,"x_max":1056,"o":"m 736 586 l 736 1031 l 222 1031 l 222 899 l 597 899 l 597 586 l 736 586 m 1056 -178 l 1056 204 l 1056 1058 l 917 1058 l 917 475 l 493 475 l 493 711 l 354 711 l 354 475 l 42 475 l 42 343 l 917 343 l 917 142 l 917 93 l 611 93 l 611 204 l 472 204 l 472 -178 q 505 -256 472 -224 q 583 -289 538 -289 l 944 -289 q 1023 -256 990 -289 q 1056 -178 1056 -224 m 917 -157 l 611 -157 l 611 -39 l 917 -39 l 917 -157 z "},"굇":{"ha":1250,"x_min":42,"x_max":1099,"o":"m 736 586 l 736 1031 l 222 1031 l 222 899 l 597 899 l 597 586 l 736 586 m 917 343 l 917 142 l 1056 142 l 1056 1058 l 917 1058 l 917 475 l 493 475 l 493 711 l 354 711 l 354 475 l 42 475 l 42 343 l 917 343 m 1099 -204 l 736 225 l 374 -204 l 482 -289 l 736 15 l 990 -289 l 1099 -204 z "},"굉":{"ha":1250,"x_min":42,"x_max":1056,"o":"m 736 586 l 736 1031 l 222 1031 l 222 899 l 597 899 l 597 586 l 736 586 m 917 343 l 917 169 q 851 194 886 185 q 779 203 817 203 q 672 183 722 203 q 585 129 622 164 q 525 49 547 94 q 503 -50 503 3 q 525 -149 503 -103 q 585 -229 547 -194 q 672 -283 622 -264 q 779 -303 722 -303 q 885 -283 835 -303 q 973 -228 935 -262 q 1033 -149 1011 -194 q 1056 -50 1056 -103 l 1056 1058 l 917 1058 l 917 475 l 493 475 l 493 711 l 354 711 l 354 475 l 42 475 l 42 343 l 917 343 m 917 -50 q 877 -139 917 -104 q 779 -174 838 -174 q 726 -165 751 -174 q 683 -139 701 -156 q 653 -100 664 -122 q 642 -50 642 -78 q 653 -1 642 -24 q 683 39 664 22 q 726 65 701 56 q 779 74 751 74 q 877 39 838 74 q 917 -50 917 4 z "},"교":{"ha":1250,"x_min":56,"x_max":1194,"o":"m 1194 190 l 1194 322 l 792 322 l 792 544 l 917 544 l 917 1031 l 319 1031 l 319 899 l 778 899 l 778 642 l 653 642 l 653 322 l 528 322 l 528 642 l 389 642 l 389 322 l 56 322 l 56 190 l 1194 190 z "},"굔":{"ha":1250,"x_min":56,"x_max":1194,"o":"m 389 447 l 56 447 l 56 315 l 1194 315 l 1194 447 l 792 447 l 792 586 l 917 586 l 917 1031 l 319 1031 l 319 899 l 778 899 l 778 697 l 653 697 l 653 447 l 528 447 l 528 697 l 389 697 l 389 447 m 931 -275 l 931 -143 l 472 -143 l 472 128 l 333 128 l 333 -164 q 366 -242 333 -210 q 444 -275 399 -275 l 931 -275 z "},"굘":{"ha":1250,"x_min":56,"x_max":1194,"o":"m 389 517 l 56 517 l 56 385 l 1194 385 l 1194 517 l 792 517 l 792 628 l 917 628 l 917 1031 l 319 1031 l 319 899 l 778 899 l 778 725 l 653 725 l 653 517 l 528 517 l 528 725 l 389 725 l 389 517 m 931 -303 l 931 -178 l 472 -178 l 472 -78 l 917 -78 l 917 267 l 333 267 l 333 142 l 778 142 l 778 43 l 333 43 l 333 -192 q 366 -270 333 -237 q 444 -303 399 -303 l 931 -303 z "},"굡":{"ha":1250,"x_min":56,"x_max":1194,"o":"m 389 475 l 56 475 l 56 343 l 1194 343 l 1194 475 l 792 475 l 792 586 l 917 586 l 917 1031 l 319 1031 l 319 899 l 778 899 l 778 697 l 653 697 l 653 475 l 528 475 l 528 697 l 389 697 l 389 475 m 917 -178 l 917 232 l 778 232 l 778 107 l 472 107 l 472 232 l 333 232 l 333 -178 q 366 -256 333 -224 q 444 -289 399 -289 l 806 -289 q 884 -256 851 -289 q 917 -178 917 -224 m 778 -157 l 472 -157 l 472 -25 l 778 -25 l 778 -157 z "},"굣":{"ha":1250,"x_min":56,"x_max":1194,"o":"m 389 475 l 56 475 l 56 343 l 1194 343 l 1194 475 l 792 475 l 792 586 l 917 586 l 917 1031 l 319 1031 l 319 899 l 778 899 l 778 697 l 653 697 l 653 475 l 528 475 l 528 697 l 389 697 l 389 475 m 988 -204 l 625 225 l 263 -204 l 371 -289 l 625 15 l 879 -289 l 988 -204 z "},"구":{"ha":1250,"x_min":56,"x_max":1194,"o":"m 694 -25 l 694 371 l 1194 371 l 1194 503 l 917 503 l 917 1031 l 319 1031 l 319 899 l 778 899 l 778 503 l 56 503 l 56 371 l 556 371 l 556 -25 l 694 -25 z "},"국":{"ha":1250,"x_min":56,"x_max":1194,"o":"m 917 -275 l 917 169 l 694 169 l 694 440 l 1194 440 l 1194 572 l 917 572 l 917 1031 l 319 1031 l 319 899 l 778 899 l 778 572 l 56 572 l 56 440 l 556 440 l 556 169 l 319 169 l 319 38 l 778 38 l 778 -275 l 917 -275 z "},"군":{"ha":1250,"x_min":56,"x_max":1194,"o":"m 736 86 l 736 399 l 1194 399 l 1194 531 l 917 531 l 917 1031 l 319 1031 l 319 899 l 778 899 l 778 531 l 56 531 l 56 399 l 597 399 l 597 86 l 736 86 m 931 -275 l 931 -143 l 472 -143 l 472 128 l 333 128 l 333 -164 q 366 -242 333 -210 q 444 -275 399 -275 l 931 -275 z "},"굳":{"ha":1250,"x_min":56,"x_max":1194,"o":"m 931 -275 l 931 -143 l 472 -143 l 472 65 l 917 65 l 917 197 l 694 197 l 694 440 l 1194 440 l 1194 572 l 917 572 l 917 1031 l 319 1031 l 319 899 l 778 899 l 778 572 l 56 572 l 56 440 l 556 440 l 556 197 l 333 197 l 333 -164 q 366 -242 333 -210 q 444 -275 399 -275 l 931 -275 z "},"굴":{"ha":1250,"x_min":56,"x_max":1194,"o":"m 931 -303 l 931 -178 l 472 -178 l 472 -78 l 917 -78 l 917 267 l 694 267 l 694 454 l 1194 454 l 1194 586 l 917 586 l 917 1031 l 319 1031 l 319 899 l 778 899 l 778 586 l 56 586 l 56 454 l 556 454 l 556 267 l 333 267 l 333 142 l 778 142 l 778 43 l 333 43 l 333 -192 q 366 -270 333 -237 q 444 -303 399 -303 l 931 -303 z "},"굵":{"ha":1250,"x_min":56,"x_max":1194,"o":"m 660 -303 l 660 -178 l 410 -178 l 410 -78 l 646 -78 l 646 135 l 840 135 l 840 -303 l 979 -303 l 979 267 l 694 267 l 694 454 l 1194 454 l 1194 586 l 917 586 l 917 1031 l 319 1031 l 319 899 l 778 899 l 778 586 l 56 586 l 56 454 l 556 454 l 556 267 l 271 267 l 271 142 l 507 142 l 507 43 l 271 43 l 271 -192 q 303 -270 271 -237 q 382 -303 336 -303 l 660 -303 z "},"굶":{"ha":1250,"x_min":56,"x_max":1194,"o":"m 597 -303 l 597 -178 l 375 -178 l 375 -78 l 583 -78 l 583 183 l 639 183 l 639 -192 q 672 -270 639 -237 q 750 -303 704 -303 l 903 -303 q 981 -270 949 -303 q 1014 -192 1014 -237 l 1014 267 l 694 267 l 694 454 l 1194 454 l 1194 586 l 917 586 l 917 1031 l 319 1031 l 319 899 l 778 899 l 778 586 l 56 586 l 56 454 l 556 454 l 556 267 l 236 267 l 236 142 l 444 142 l 444 43 l 236 43 l 236 -192 q 269 -270 236 -237 q 347 -303 301 -303 l 597 -303 m 875 -171 l 778 -171 l 778 135 l 875 135 l 875 -171 z "},"굻":{"ha":1250,"x_min":56,"x_max":1194,"o":"m 597 -289 l 597 -164 l 375 -164 l 375 -64 l 583 -64 l 583 86 l 649 86 q 614 -51 614 25 q 631 -150 614 -104 q 678 -230 649 -196 q 746 -283 707 -264 q 826 -303 785 -303 q 908 -283 869 -303 q 975 -228 946 -262 q 1022 -149 1004 -194 q 1039 -51 1039 -103 q 1004 86 1039 25 l 1083 86 l 1083 218 l 896 218 l 896 308 l 757 308 l 757 218 l 694 218 l 694 454 l 1194 454 l 1194 586 l 917 586 l 917 1031 l 319 1031 l 319 899 l 778 899 l 778 586 l 56 586 l 56 454 l 556 454 l 556 281 l 236 281 l 236 156 l 444 156 l 444 57 l 236 57 l 236 -178 q 269 -256 236 -224 q 347 -289 301 -289 l 597 -289 m 900 -51 q 877 -138 900 -103 q 826 -174 854 -174 q 776 -138 799 -174 q 753 -51 753 -103 q 776 35 753 0 q 826 71 799 71 q 877 35 854 71 q 900 -51 900 0 z "},"굼":{"ha":1250,"x_min":56,"x_max":1194,"o":"m 917 -164 l 917 197 l 694 197 l 694 440 l 1194 440 l 1194 572 l 917 572 l 917 1031 l 319 1031 l 319 899 l 778 899 l 778 572 l 56 572 l 56 440 l 556 440 l 556 197 l 333 197 l 333 -164 q 366 -242 333 -210 q 444 -275 399 -275 l 806 -275 q 884 -242 851 -275 q 917 -164 917 -210 m 778 -143 l 472 -143 l 472 65 l 778 65 l 778 -143 z "},"굽":{"ha":1250,"x_min":56,"x_max":1194,"o":"m 694 197 l 694 440 l 1194 440 l 1194 572 l 917 572 l 917 1031 l 319 1031 l 319 899 l 778 899 l 778 572 l 56 572 l 56 440 l 556 440 l 556 197 l 694 197 m 917 -178 l 917 232 l 778 232 l 778 107 l 472 107 l 472 232 l 333 232 l 333 -178 q 366 -256 333 -224 q 444 -289 399 -289 l 806 -289 q 884 -256 851 -289 q 917 -178 917 -224 m 778 -157 l 472 -157 l 472 -25 l 778 -25 l 778 -157 z "},"굿":{"ha":1250,"x_min":56,"x_max":1194,"o":"m 988 -204 l 694 143 l 694 440 l 1194 440 l 1194 572 l 917 572 l 917 1031 l 319 1031 l 319 899 l 778 899 l 778 572 l 56 572 l 56 440 l 556 440 l 556 143 l 263 -204 l 371 -289 l 625 15 l 879 -289 l 988 -204 z "},"궁":{"ha":1250,"x_min":56,"x_max":1194,"o":"m 901 -50 q 885 33 901 -7 q 842 105 869 72 q 776 160 814 138 q 694 194 739 183 l 694 440 l 1194 440 l 1194 572 l 917 572 l 917 1031 l 319 1031 l 319 899 l 778 899 l 778 572 l 56 572 l 56 440 l 556 440 l 556 194 q 474 161 511 183 q 408 106 436 139 q 365 34 381 74 q 349 -50 349 -6 q 371 -149 349 -103 q 431 -229 393 -194 q 518 -283 468 -264 q 625 -303 568 -303 q 731 -283 681 -303 q 819 -228 781 -262 q 879 -149 857 -194 q 901 -50 901 -103 m 763 -50 q 723 -139 763 -104 q 625 -174 683 -174 q 572 -165 597 -174 q 528 -139 547 -156 q 499 -100 510 -122 q 488 -50 488 -78 q 499 -1 488 -24 q 528 39 510 22 q 572 65 547 56 q 625 74 597 74 q 723 39 683 74 q 763 -50 763 4 z "},"궂":{"ha":1250,"x_min":56,"x_max":1194,"o":"m 979 -194 l 722 65 l 917 65 l 917 197 l 694 197 l 694 440 l 1194 440 l 1194 572 l 917 572 l 917 1031 l 319 1031 l 319 899 l 778 899 l 778 572 l 56 572 l 56 440 l 556 440 l 556 197 l 333 197 l 333 65 l 528 65 l 271 -194 l 371 -289 l 625 -28 l 879 -289 l 979 -194 z "},"궈":{"ha":1250,"x_min":42,"x_max":1056,"o":"m 1056 44 l 1056 1058 l 917 1058 l 917 354 l 667 354 l 667 225 l 917 225 l 917 44 l 1056 44 m 514 72 l 514 454 l 806 454 l 806 586 l 736 586 l 736 1031 l 222 1031 l 222 899 l 597 899 l 597 586 l 42 586 l 42 454 l 375 454 l 375 72 l 514 72 z "},"궉":{"ha":1250,"x_min":42,"x_max":1056,"o":"m 514 225 l 514 482 l 806 482 l 806 614 l 736 614 l 736 1031 l 222 1031 l 222 899 l 597 899 l 597 614 l 42 614 l 42 482 l 375 482 l 375 225 l 514 225 m 1056 -275 l 1056 156 l 1056 1058 l 917 1058 l 917 396 l 667 396 l 667 267 l 917 267 l 917 156 l 458 156 l 458 24 l 917 24 l 917 -275 l 1056 -275 z "},"권":{"ha":1250,"x_min":42,"x_max":1069,"o":"m 1056 100 l 1056 1058 l 917 1058 l 917 368 l 667 368 l 667 239 l 917 239 l 917 100 l 1056 100 m 514 197 l 514 454 l 806 454 l 806 586 l 736 586 l 736 1031 l 222 1031 l 222 899 l 597 899 l 597 586 l 42 586 l 42 454 l 375 454 l 375 197 l 514 197 m 1069 -275 l 1069 -143 l 611 -143 l 611 128 l 472 128 l 472 -164 q 505 -242 472 -210 q 583 -275 538 -275 l 1069 -275 z "},"궐":{"ha":1250,"x_min":42,"x_max":1069,"o":"m 514 253 l 514 496 l 806 496 l 806 628 l 736 628 l 736 1031 l 222 1031 l 222 899 l 597 899 l 597 628 l 42 628 l 42 496 l 375 496 l 375 253 l 514 253 m 1069 -303 l 1069 -178 l 611 -178 l 611 -99 l 1056 -99 l 1056 225 l 1056 1058 l 917 1058 l 917 424 l 667 424 l 667 294 l 917 294 l 917 225 l 472 225 l 472 100 l 917 100 l 917 22 l 472 22 l 472 -192 q 505 -270 472 -237 q 583 -303 538 -303 l 1069 -303 z "},"궜":{"ha":1250,"x_min":42,"x_max":1099,"o":"m 1056 100 l 1056 1058 l 917 1058 l 917 396 l 667 396 l 667 267 l 917 267 l 917 100 l 1056 100 m 514 225 l 514 482 l 806 482 l 806 614 l 736 614 l 736 1031 l 222 1031 l 222 899 l 597 899 l 597 614 l 42 614 l 42 482 l 375 482 l 375 225 l 514 225 m 1099 -250 l 867 179 l 694 -69 l 524 179 l 292 -250 l 414 -303 l 538 -69 l 694 -289 l 853 -69 l 976 -303 l 1099 -250 z "},"궝":{"ha":1250,"x_min":42,"x_max":1056,"o":"m 1056 -57 l 1056 1058 l 917 1058 l 917 410 l 667 410 l 667 281 l 917 281 l 917 158 q 788 189 860 189 q 685 169 733 189 q 599 117 636 150 q 541 38 563 83 q 519 -57 519 -7 q 541 -152 519 -107 q 599 -231 563 -197 q 685 -283 636 -264 q 788 -303 733 -303 q 892 -283 843 -303 q 976 -230 940 -264 q 1034 -151 1013 -196 q 1056 -57 1056 -107 m 917 -57 q 906 -103 917 -82 q 878 -140 896 -125 q 838 -165 861 -156 q 788 -174 814 -174 q 739 -165 763 -174 q 697 -140 715 -156 q 669 -103 679 -125 q 658 -57 658 -82 q 669 -10 658 -32 q 697 26 679 11 q 739 51 715 42 q 788 60 763 60 q 838 51 814 60 q 878 26 861 42 q 906 -10 896 11 q 917 -57 917 -32 m 514 225 l 514 482 l 806 482 l 806 614 l 736 614 l 736 1031 l 222 1031 l 222 899 l 597 899 l 597 614 l 42 614 l 42 482 l 375 482 l 375 225 l 514 225 z "},"궤":{"ha":1250,"x_min":14,"x_max":1083,"o":"m 1083 44 l 1083 1058 l 944 1058 l 944 44 l 1083 44 m 861 211 l 861 1058 l 725 1058 l 725 340 l 500 340 l 500 211 l 861 211 m 417 72 l 417 454 l 639 454 l 639 586 l 583 586 l 583 1031 l 153 1031 l 153 899 l 444 899 l 444 586 l 14 586 l 14 454 l 278 454 l 278 72 l 417 72 z "},"궷":{"ha":1250,"x_min":14,"x_max":1126,"o":"m 1083 100 l 1083 1058 l 944 1058 l 944 100 l 1083 100 m 861 239 l 861 1058 l 725 1058 l 725 368 l 500 368 l 500 239 l 861 239 m 417 225 l 417 482 l 639 482 l 639 614 l 583 614 l 583 1031 l 153 1031 l 153 899 l 444 899 l 444 614 l 14 614 l 14 482 l 278 482 l 278 225 l 417 225 m 1126 -204 l 764 183 l 401 -204 l 510 -289 l 764 -11 l 1018 -289 l 1126 -204 z "},"귀":{"ha":1250,"x_min":42,"x_max":1056,"o":"m 514 72 l 514 426 l 917 426 l 917 44 l 1056 44 l 1056 1058 l 917 1058 l 917 558 l 736 558 l 736 1031 l 222 1031 l 222 899 l 597 899 l 597 558 l 42 558 l 42 426 l 375 426 l 375 72 l 514 72 z "},"귁":{"ha":1250,"x_min":42,"x_max":1056,"o":"m 1056 -275 l 1056 156 l 1056 1058 l 917 1058 l 917 572 l 736 572 l 736 1031 l 222 1031 l 222 899 l 597 899 l 597 572 l 42 572 l 42 440 l 375 440 l 375 225 l 514 225 l 514 440 l 917 440 l 917 156 l 458 156 l 458 24 l 917 24 l 917 -275 l 1056 -275 z "},"귄":{"ha":1250,"x_min":42,"x_max":1069,"o":"m 514 197 l 514 413 l 917 413 l 917 100 l 1056 100 l 1056 1058 l 917 1058 l 917 544 l 736 544 l 736 1031 l 222 1031 l 222 899 l 597 899 l 597 544 l 42 544 l 42 413 l 375 413 l 375 197 l 514 197 m 1069 -275 l 1069 -143 l 611 -143 l 611 128 l 472 128 l 472 -164 q 505 -242 472 -210 q 583 -275 538 -275 l 1069 -275 z "},"귈":{"ha":1250,"x_min":42,"x_max":1069,"o":"m 1069 -303 l 1069 -178 l 611 -178 l 611 -99 l 1056 -99 l 1056 225 l 1056 1058 l 917 1058 l 917 600 l 736 600 l 736 1031 l 222 1031 l 222 899 l 597 899 l 597 600 l 42 600 l 42 468 l 375 468 l 375 253 l 514 253 l 514 468 l 917 468 l 917 225 l 472 225 l 472 100 l 917 100 l 917 22 l 472 22 l 472 -192 q 505 -270 472 -237 q 583 -303 538 -303 l 1069 -303 z "},"귐":{"ha":1250,"x_min":42,"x_max":1056,"o":"m 1056 -164 l 1056 183 l 1056 1058 l 917 1058 l 917 586 l 736 586 l 736 1031 l 222 1031 l 222 899 l 597 899 l 597 586 l 42 586 l 42 454 l 375 454 l 375 239 l 514 239 l 514 454 l 917 454 l 917 183 l 472 183 l 472 -164 q 505 -242 472 -210 q 583 -275 538 -275 l 944 -275 q 1023 -242 990 -275 q 1056 -164 1056 -210 m 917 -143 l 611 -143 l 611 51 l 917 51 l 917 -143 z "},"귑":{"ha":1250,"x_min":42,"x_max":1056,"o":"m 1056 -178 l 1056 204 l 1056 1058 l 917 1058 l 917 600 l 736 600 l 736 1031 l 222 1031 l 222 899 l 597 899 l 597 600 l 42 600 l 42 468 l 375 468 l 375 253 l 514 253 l 514 468 l 917 468 l 917 100 l 917 93 l 611 93 l 611 204 l 472 204 l 472 -178 q 505 -256 472 -224 q 583 -289 538 -289 l 944 -289 q 1023 -256 990 -289 q 1056 -178 1056 -224 m 917 -157 l 611 -157 l 611 -39 l 917 -39 l 917 -157 z "},"귓":{"ha":1250,"x_min":42,"x_max":1099,"o":"m 514 156 l 514 440 l 917 440 l 917 100 l 1056 100 l 1056 1058 l 917 1058 l 917 572 l 736 572 l 736 1031 l 222 1031 l 222 899 l 597 899 l 597 572 l 42 572 l 42 440 l 375 440 l 375 156 l 514 156 m 1099 -204 l 736 183 l 374 -204 l 482 -289 l 736 -11 l 990 -289 l 1099 -204 z "},"규":{"ha":1250,"x_min":56,"x_max":1194,"o":"m 542 -25 l 542 371 l 708 371 l 708 -25 l 847 -25 l 847 371 l 1194 371 l 1194 503 l 917 503 l 917 1031 l 319 1031 l 319 899 l 778 899 l 778 503 l 56 503 l 56 371 l 403 371 l 403 -25 l 542 -25 z "},"균":{"ha":1250,"x_min":56,"x_max":1194,"o":"m 931 -275 l 931 -143 l 472 -143 l 472 86 l 597 86 l 597 399 l 736 399 l 736 86 l 875 86 l 875 399 l 1194 399 l 1194 531 l 917 531 l 917 1031 l 319 1031 l 319 899 l 778 899 l 778 531 l 56 531 l 56 399 l 458 399 l 458 128 l 333 128 l 333 -164 q 366 -242 333 -210 q 444 -275 399 -275 l 931 -275 z "},"귤":{"ha":1250,"x_min":56,"x_max":1194,"o":"m 556 267 l 556 454 l 694 454 l 694 267 l 556 267 m 931 -303 l 931 -178 l 472 -178 l 472 -78 l 917 -78 l 917 267 l 833 267 l 833 454 l 1194 454 l 1194 586 l 917 586 l 917 1031 l 319 1031 l 319 899 l 778 899 l 778 586 l 56 586 l 56 454 l 417 454 l 417 267 l 333 267 l 333 142 l 778 142 l 778 43 l 333 43 l 333 -192 q 366 -270 333 -237 q 444 -303 399 -303 l 931 -303 z "},"그":{"ha":1250,"x_min":56,"x_max":1194,"o":"m 1194 190 l 1194 322 l 917 322 l 917 1031 l 319 1031 l 319 899 l 778 899 l 778 322 l 56 322 l 56 190 l 1194 190 z "},"극":{"ha":1250,"x_min":56,"x_max":1194,"o":"m 1194 399 l 1194 531 l 917 531 l 917 1031 l 319 1031 l 319 899 l 778 899 l 778 531 l 56 531 l 56 399 l 1194 399 m 917 -275 l 917 183 l 319 183 l 319 51 l 778 51 l 778 -275 l 917 -275 z "},"근":{"ha":1250,"x_min":56,"x_max":1194,"o":"m 1194 357 l 1194 489 l 917 489 l 917 1031 l 319 1031 l 319 899 l 778 899 l 778 489 l 56 489 l 56 357 l 1194 357 m 931 -275 l 931 -143 l 472 -143 l 472 142 l 333 142 l 333 -164 q 366 -242 333 -210 q 444 -275 399 -275 l 931 -275 z "},"귿":{"ha":1250,"x_min":56,"x_max":1194,"o":"m 1194 399 l 1194 531 l 917 531 l 917 1031 l 319 1031 l 319 899 l 778 899 l 778 531 l 56 531 l 56 399 l 1194 399 m 931 -275 l 931 -143 l 472 -143 l 472 79 l 917 79 l 917 211 l 333 211 l 333 -164 q 366 -242 333 -210 q 444 -275 399 -275 l 931 -275 z "},"글":{"ha":1250,"x_min":56,"x_max":1194,"o":"m 1194 426 l 1194 558 l 917 558 l 917 1031 l 319 1031 l 319 899 l 778 899 l 778 558 l 56 558 l 56 426 l 1194 426 m 931 -303 l 931 -178 l 472 -178 l 472 -71 l 917 -71 l 917 281 l 333 281 l 333 156 l 778 156 l 778 50 l 333 50 l 333 -192 q 366 -270 333 -237 q 444 -303 399 -303 l 931 -303 z "},"긁":{"ha":1250,"x_min":56,"x_max":1194,"o":"m 1194 426 l 1194 558 l 917 558 l 917 1031 l 319 1031 l 319 899 l 778 899 l 778 558 l 56 558 l 56 426 l 1194 426 m 660 -303 l 660 -178 l 410 -178 l 410 -71 l 646 -71 l 646 149 l 840 149 l 840 -303 l 979 -303 l 979 281 l 590 281 l 271 281 l 271 156 l 507 156 l 507 50 l 271 50 l 271 -192 q 303 -270 271 -237 q 382 -303 336 -303 l 660 -303 z "},"금":{"ha":1250,"x_min":56,"x_max":1194,"o":"m 1194 413 l 1194 544 l 917 544 l 917 1031 l 319 1031 l 319 899 l 778 899 l 778 544 l 56 544 l 56 413 l 1194 413 m 917 -164 l 917 211 l 333 211 l 333 -164 q 366 -242 333 -210 q 444 -275 399 -275 l 806 -275 q 884 -242 851 -275 q 917 -164 917 -210 m 778 -143 l 472 -143 l 472 79 l 778 79 l 778 -143 z "},"급":{"ha":1250,"x_min":56,"x_max":1194,"o":"m 1194 413 l 1194 544 l 917 544 l 917 1031 l 319 1031 l 319 899 l 778 899 l 778 544 l 56 544 l 56 413 l 1194 413 m 917 -178 l 917 232 l 778 232 l 778 107 l 472 107 l 472 232 l 333 232 l 333 -178 q 366 -256 333 -224 q 444 -289 399 -289 l 806 -289 q 884 -256 851 -289 q 917 -178 917 -224 m 778 -157 l 472 -157 l 472 -25 l 778 -25 l 778 -157 z "},"긋":{"ha":1250,"x_min":56,"x_max":1194,"o":"m 1194 385 l 1194 517 l 917 517 l 917 1031 l 319 1031 l 319 899 l 778 899 l 778 517 l 56 517 l 56 385 l 1194 385 m 988 -204 l 625 225 l 263 -204 l 371 -289 l 625 15 l 879 -289 l 988 -204 z "},"긍":{"ha":1250,"x_min":56,"x_max":1194,"o":"m 1194 385 l 1194 517 l 917 517 l 917 1031 l 319 1031 l 319 899 l 778 899 l 778 517 l 56 517 l 56 385 l 1194 385 m 901 -50 q 879 48 901 1 q 819 128 857 94 q 731 183 781 163 q 625 203 681 203 q 518 183 568 203 q 431 129 468 164 q 371 49 393 94 q 349 -50 349 3 q 371 -149 349 -103 q 431 -229 393 -194 q 518 -283 468 -264 q 625 -303 568 -303 q 731 -283 681 -303 q 819 -228 781 -262 q 879 -149 857 -194 q 901 -50 901 -103 m 763 -50 q 723 -139 763 -104 q 625 -174 683 -174 q 572 -165 597 -174 q 528 -139 547 -156 q 499 -100 510 -122 q 488 -50 488 -78 q 499 -1 488 -24 q 528 39 510 22 q 572 65 547 56 q 625 74 597 74 q 723 39 683 74 q 763 -50 763 4 z "},"긔":{"ha":1250,"x_min":42,"x_max":1056,"o":"m 917 260 l 917 44 l 1056 44 l 1056 1058 l 917 1058 l 917 392 l 736 392 l 736 1031 l 222 1031 l 222 899 l 597 899 l 597 392 l 42 392 l 42 260 l 917 260 z "},"기":{"ha":1250,"x_min":167,"x_max":1014,"o":"m 1014 44 l 1014 1058 l 875 1058 l 875 44 l 1014 44 m 714 957 l 613 1031 l 167 1031 l 167 899 l 508 899 l 182 431 l 294 357 l 714 957 z "},"긱":{"ha":1250,"x_min":167,"x_max":1014,"o":"m 711 940 l 619 1031 l 167 1031 l 167 899 l 501 899 l 186 524 l 292 440 l 711 940 m 1014 -275 l 1014 239 l 1014 1058 l 875 1058 l 875 239 l 417 239 l 417 107 l 875 107 l 875 -275 l 1014 -275 z "},"긴":{"ha":1250,"x_min":167,"x_max":1028,"o":"m 1014 183 l 1014 1058 l 875 1058 l 875 183 l 1014 183 m 711 940 l 619 1031 l 167 1031 l 167 899 l 501 899 l 186 524 l 292 440 l 711 940 m 1028 -275 l 1028 -143 l 569 -143 l 569 183 l 431 183 l 431 -164 q 463 -242 431 -210 q 542 -275 496 -275 l 1028 -275 z "},"긷":{"ha":1250,"x_min":167,"x_max":1028,"o":"m 711 940 l 619 1031 l 167 1031 l 167 899 l 501 899 l 186 524 l 292 440 l 711 940 m 1028 -275 l 1028 -143 l 569 -143 l 569 107 l 1014 107 l 1014 239 l 1014 1058 l 875 1058 l 875 239 l 431 239 l 431 -164 q 463 -242 431 -210 q 542 -275 496 -275 l 1028 -275 z "},"길":{"ha":1250,"x_min":167,"x_max":1028,"o":"m 711 940 l 619 1031 l 167 1031 l 167 899 l 501 899 l 186 524 l 292 440 l 711 940 m 1028 -303 l 1028 -178 l 569 -178 l 569 -85 l 1014 -85 l 1014 253 l 1014 1058 l 875 1058 l 875 253 l 431 253 l 431 128 l 875 128 l 875 36 l 431 36 l 431 -192 q 463 -270 431 -237 q 542 -303 496 -303 l 1028 -303 z "},"긺":{"ha":1250,"x_min":167,"x_max":1014,"o":"m 711 940 l 619 1031 l 167 1031 l 167 899 l 501 899 l 186 524 l 292 440 l 711 940 m 1014 -178 l 1014 253 l 1014 1058 l 875 1058 l 875 253 l 639 253 l 639 -178 q 672 -256 639 -224 q 750 -289 704 -289 l 903 -289 q 981 -256 949 -289 q 1014 -178 1014 -224 m 875 -157 l 778 -157 l 778 121 l 875 121 l 875 -157 m 597 -289 l 597 -164 l 375 -164 l 375 -78 l 583 -78 l 583 253 l 236 253 l 236 128 l 444 128 l 444 43 l 236 43 l 236 -178 q 269 -256 236 -224 q 347 -289 301 -289 l 597 -289 z "},"김":{"ha":1250,"x_min":167,"x_max":1014,"o":"m 711 940 l 619 1031 l 167 1031 l 167 899 l 501 899 l 186 524 l 292 440 l 711 940 m 1014 -164 l 1014 239 l 1014 1058 l 875 1058 l 875 239 l 431 239 l 431 -164 q 463 -242 431 -210 q 542 -275 496 -275 l 903 -275 q 981 -242 949 -275 q 1014 -164 1014 -210 m 875 -143 l 569 -143 l 569 107 l 875 107 l 875 -143 z "},"깁":{"ha":1250,"x_min":167,"x_max":1014,"o":"m 711 940 l 619 1031 l 167 1031 l 167 899 l 501 899 l 186 524 l 292 440 l 711 940 m 1014 -171 l 1014 239 l 1014 1058 l 875 1058 l 875 183 l 875 114 l 569 114 l 569 239 l 431 239 l 431 -171 q 463 -249 431 -217 q 542 -282 496 -282 l 903 -282 q 981 -249 949 -282 q 1014 -171 1014 -217 m 875 -150 l 569 -150 l 569 -18 l 875 -18 l 875 -150 z "},"깃":{"ha":1250,"x_min":167,"x_max":1057,"o":"m 1014 183 l 1014 1058 l 875 1058 l 875 183 l 1014 183 m 711 940 l 619 1031 l 167 1031 l 167 899 l 501 899 l 186 524 l 292 440 l 711 940 m 1057 -204 l 694 225 l 332 -204 l 440 -289 l 694 15 l 949 -289 l 1057 -204 z "},"깅":{"ha":1250,"x_min":167,"x_max":1014,"o":"m 711 940 l 619 1031 l 167 1031 l 167 899 l 501 899 l 186 524 l 292 440 l 711 940 m 1014 -37 l 1014 1058 l 875 1058 l 875 192 q 738 228 814 228 q 631 207 681 228 q 543 150 581 186 q 483 66 506 114 q 461 -37 461 18 q 483 -141 461 -93 q 543 -225 506 -189 q 631 -282 581 -261 q 738 -303 681 -303 q 844 -282 793 -303 q 932 -225 894 -261 q 992 -140 969 -189 q 1014 -37 1014 -92 m 875 -37 q 835 -135 875 -97 q 738 -174 796 -174 q 641 -135 682 -174 q 600 -37 600 -97 q 641 62 600 25 q 738 99 682 99 q 835 62 796 99 q 875 -37 875 25 z "},"깆":{"ha":1250,"x_min":167,"x_max":1076,"o":"m 711 940 l 619 1031 l 167 1031 l 167 899 l 501 899 l 186 524 l 292 440 l 711 940 m 1076 -204 l 818 107 l 1014 107 l 1014 239 l 1014 1058 l 875 1058 l 875 239 l 431 239 l 431 107 l 626 107 l 368 -204 l 474 -289 l 722 13 l 971 -289 l 1076 -204 z "},"깊":{"ha":1250,"x_min":167,"x_max":1021,"o":"m 711 940 l 619 1031 l 167 1031 l 167 899 l 501 899 l 186 524 l 292 440 l 711 940 m 611 -143 l 611 107 l 778 107 l 778 -143 l 611 -143 m 1021 -275 l 1021 -143 l 917 -143 l 917 107 l 1014 107 l 1014 239 l 1014 1058 l 875 1058 l 875 239 l 375 239 l 375 107 l 472 107 l 472 -143 l 368 -143 l 368 -275 l 1021 -275 z "},"까":{"ha":1250,"x_min":132,"x_max":1208,"o":"m 1208 656 l 1208 788 l 1028 788 l 1028 1058 l 889 1058 l 889 44 l 1028 44 l 1028 656 l 1208 656 m 475 899 l 606 899 l 399 454 l 522 400 l 786 972 l 692 1031 l 361 1031 l 139 1031 l 139 899 l 328 899 l 132 479 l 256 425 l 475 899 z "},"깍":{"ha":1250,"x_min":131,"x_max":1208,"o":"m 472 899 l 597 899 l 396 522 l 515 463 l 790 974 l 690 1031 l 361 1031 l 139 1031 l 139 899 l 319 899 l 131 546 l 250 486 l 472 899 m 1028 -275 l 1028 239 l 1028 697 l 1208 697 l 1208 829 l 1028 829 l 1028 1058 l 889 1058 l 889 239 l 431 239 l 431 107 l 889 107 l 889 -275 l 1028 -275 z "},"깎":{"ha":1250,"x_min":131,"x_max":1208,"o":"m 472 899 l 597 899 l 396 522 l 515 463 l 790 974 l 690 1031 l 361 1031 l 139 1031 l 139 899 l 319 899 l 131 546 l 250 486 l 472 899 m 1028 -275 l 1028 239 l 1028 697 l 1208 697 l 1208 829 l 1028 829 l 1028 1058 l 889 1058 l 889 239 l 347 239 l 347 107 l 556 107 l 556 -275 l 694 -275 l 694 107 l 889 107 l 889 -275 l 1028 -275 z "},"깐":{"ha":1250,"x_min":131,"x_max":1208,"o":"m 1208 697 l 1208 829 l 1028 829 l 1028 1058 l 889 1058 l 889 183 l 1028 183 l 1028 697 l 1208 697 m 472 899 l 597 899 l 396 522 l 515 463 l 790 974 l 690 1031 l 361 1031 l 139 1031 l 139 899 l 319 899 l 131 546 l 250 486 l 472 899 m 1042 -275 l 1042 -143 l 583 -143 l 583 183 l 444 183 l 444 -164 q 477 -242 444 -210 q 556 -275 510 -275 l 1042 -275 z "},"깔":{"ha":1250,"x_min":131,"x_max":1208,"o":"m 472 899 l 597 899 l 396 522 l 515 463 l 790 974 l 690 1031 l 361 1031 l 139 1031 l 139 899 l 319 899 l 131 546 l 250 486 l 472 899 m 1042 -303 l 1042 -178 l 583 -178 l 583 -85 l 1028 -85 l 1028 253 l 1028 697 l 1208 697 l 1208 829 l 1028 829 l 1028 1058 l 889 1058 l 889 253 l 444 253 l 444 128 l 889 128 l 889 36 l 444 36 l 444 -192 q 477 -270 444 -237 q 556 -303 510 -303 l 1042 -303 z "},"깖":{"ha":1250,"x_min":131,"x_max":1208,"o":"m 472 899 l 597 899 l 396 522 l 515 463 l 790 974 l 690 1031 l 361 1031 l 139 1031 l 139 899 l 319 899 l 131 546 l 250 486 l 472 899 m 1028 -178 l 1028 253 l 1028 697 l 1208 697 l 1208 829 l 1028 829 l 1028 1058 l 889 1058 l 889 253 l 653 253 l 653 -178 q 685 -256 653 -224 q 764 -289 718 -289 l 917 -289 q 995 -256 963 -289 q 1028 -178 1028 -224 m 889 -157 l 792 -157 l 792 121 l 889 121 l 889 -157 m 611 -289 l 611 -164 l 389 -164 l 389 -78 l 597 -78 l 597 253 l 250 253 l 250 128 l 458 128 l 458 43 l 250 43 l 250 -178 q 283 -256 250 -224 q 361 -289 315 -289 l 611 -289 z "},"깜":{"ha":1250,"x_min":131,"x_max":1208,"o":"m 472 899 l 597 899 l 396 522 l 515 463 l 790 974 l 690 1031 l 361 1031 l 139 1031 l 139 899 l 319 899 l 131 546 l 250 486 l 472 899 m 1028 -164 l 1028 239 l 1028 697 l 1208 697 l 1208 829 l 1028 829 l 1028 1058 l 889 1058 l 889 239 l 444 239 l 444 -164 q 477 -242 444 -210 q 556 -275 510 -275 l 917 -275 q 995 -242 963 -275 q 1028 -164 1028 -210 m 889 -143 l 583 -143 l 583 107 l 889 107 l 889 -143 z "},"깝":{"ha":1250,"x_min":131,"x_max":1208,"o":"m 472 899 l 597 899 l 396 522 l 515 463 l 790 974 l 690 1031 l 361 1031 l 139 1031 l 139 899 l 319 899 l 131 546 l 250 486 l 472 899 m 1028 -171 l 1028 239 l 1028 697 l 1208 697 l 1208 829 l 1028 829 l 1028 1058 l 889 1058 l 889 183 l 889 114 l 583 114 l 583 239 l 444 239 l 444 -171 q 477 -249 444 -217 q 556 -282 510 -282 l 917 -282 q 995 -249 963 -282 q 1028 -171 1028 -217 m 889 -150 l 583 -150 l 583 -18 l 889 -18 l 889 -150 z "},"깟":{"ha":1250,"x_min":131,"x_max":1208,"o":"m 1208 697 l 1208 829 l 1028 829 l 1028 1058 l 889 1058 l 889 183 l 1028 183 l 1028 697 l 1208 697 m 472 899 l 597 899 l 396 522 l 515 463 l 790 974 l 690 1031 l 361 1031 l 139 1031 l 139 899 l 319 899 l 131 546 l 250 486 l 472 899 m 1071 -204 l 708 225 l 346 -204 l 454 -289 l 708 15 l 963 -289 l 1071 -204 z "},"깠":{"ha":1250,"x_min":131,"x_max":1208,"o":"m 1208 697 l 1208 829 l 1028 829 l 1028 1058 l 889 1058 l 889 183 l 1028 183 l 1028 697 l 1208 697 m 472 899 l 597 899 l 396 522 l 515 463 l 790 974 l 690 1031 l 361 1031 l 139 1031 l 139 899 l 319 899 l 131 546 l 250 486 l 472 899 m 1071 -236 l 838 239 l 667 -43 l 497 239 l 264 -236 l 386 -289 l 510 -36 l 667 -275 l 825 -36 l 949 -289 l 1071 -236 z "},"깡":{"ha":1250,"x_min":131,"x_max":1208,"o":"m 1208 697 l 1208 829 l 1028 829 l 1028 1058 l 889 1058 l 889 192 q 751 228 828 228 q 644 207 694 228 q 557 150 594 186 q 497 66 519 114 q 475 -37 475 18 q 497 -141 475 -93 q 557 -225 519 -189 q 644 -282 594 -261 q 751 -303 694 -303 q 858 -282 807 -303 q 946 -225 908 -261 q 1006 -140 983 -189 q 1028 -37 1028 -92 l 1028 697 l 1208 697 m 889 -37 q 849 -135 889 -97 q 751 -174 810 -174 q 655 -135 696 -174 q 614 -37 614 -97 q 655 62 614 25 q 751 99 696 99 q 849 62 810 99 q 889 -37 889 25 m 472 899 l 597 899 l 396 522 l 515 463 l 790 974 l 690 1031 l 361 1031 l 139 1031 l 139 899 l 319 899 l 131 546 l 250 486 l 472 899 z "},"깥":{"ha":1250,"x_min":131,"x_max":1208,"o":"m 472 899 l 597 899 l 396 522 l 515 463 l 790 974 l 690 1031 l 361 1031 l 139 1031 l 139 899 l 319 899 l 131 546 l 250 486 l 472 899 m 1028 -289 l 1028 -164 l 583 -164 l 583 -85 l 1014 -85 l 1014 36 l 583 36 l 583 114 l 1028 114 l 1028 239 l 1028 697 l 1208 697 l 1208 829 l 1028 829 l 1028 1058 l 889 1058 l 889 239 l 444 239 l 444 -178 q 477 -256 444 -224 q 556 -289 510 -289 l 1028 -289 z "},"깨":{"ha":1250,"x_min":65,"x_max":1069,"o":"m 1069 44 l 1069 1058 l 931 1058 l 931 801 l 824 801 l 824 1058 l 688 1058 l 688 44 l 824 44 l 824 669 l 931 669 l 931 44 l 1069 44 m 376 899 l 469 899 l 293 461 l 419 414 l 646 982 l 549 1031 l 250 1031 l 83 1031 l 83 899 l 233 899 l 65 483 l 192 436 l 376 899 z "},"깩":{"ha":1250,"x_min":83,"x_max":1069,"o":"m 376 899 l 469 899 l 313 508 l 439 461 l 646 982 l 549 1031 l 250 1031 l 83 1031 l 83 899 l 233 899 l 85 531 l 211 483 l 376 899 m 1069 -275 l 1069 239 l 1069 1058 l 931 1058 l 931 829 l 824 829 l 824 1058 l 688 1058 l 688 350 l 824 350 l 824 697 l 931 697 l 931 239 l 472 239 l 472 107 l 931 107 l 931 -275 l 1069 -275 z "},"깬":{"ha":1250,"x_min":83,"x_max":1083,"o":"m 1069 183 l 1069 1058 l 931 1058 l 931 829 l 824 829 l 824 1058 l 688 1058 l 688 183 l 824 183 l 824 697 l 931 697 l 931 183 l 1069 183 m 376 899 l 469 899 l 313 508 l 439 461 l 646 982 l 549 1031 l 250 1031 l 83 1031 l 83 899 l 233 899 l 85 531 l 211 483 l 376 899 m 1083 -275 l 1083 -143 l 625 -143 l 625 183 l 486 183 l 486 -164 q 519 -242 486 -210 q 597 -275 551 -275 l 1083 -275 z "},"깰":{"ha":1250,"x_min":83,"x_max":1083,"o":"m 376 899 l 469 899 l 313 508 l 439 461 l 646 982 l 549 1031 l 250 1031 l 83 1031 l 83 899 l 233 899 l 85 531 l 211 483 l 376 899 m 1083 -303 l 1083 -178 l 625 -178 l 625 -85 l 1069 -85 l 1069 253 l 1069 1058 l 931 1058 l 931 829 l 824 829 l 824 1058 l 688 1058 l 688 350 l 824 350 l 824 697 l 931 697 l 931 253 l 486 253 l 486 128 l 931 128 l 931 36 l 486 36 l 486 -192 q 519 -270 486 -237 q 597 -303 551 -303 l 1083 -303 z "},"깸":{"ha":1250,"x_min":83,"x_max":1069,"o":"m 376 899 l 469 899 l 313 508 l 439 461 l 646 982 l 549 1031 l 250 1031 l 83 1031 l 83 899 l 233 899 l 85 531 l 211 483 l 376 899 m 1069 -164 l 1069 239 l 1069 1058 l 931 1058 l 931 829 l 824 829 l 824 1058 l 688 1058 l 688 350 l 824 350 l 824 697 l 931 697 l 931 239 l 486 239 l 486 -164 q 519 -242 486 -210 q 597 -275 551 -275 l 958 -275 q 1037 -242 1004 -275 q 1069 -164 1069 -210 m 931 -143 l 625 -143 l 625 107 l 931 107 l 931 -143 z "},"깹":{"ha":1250,"x_min":83,"x_max":1069,"o":"m 376 899 l 469 899 l 313 508 l 439 461 l 646 982 l 549 1031 l 250 1031 l 83 1031 l 83 899 l 233 899 l 85 531 l 211 483 l 376 899 m 1069 -171 l 1069 239 l 1069 1058 l 931 1058 l 931 829 l 824 829 l 824 1058 l 688 1058 l 688 350 l 824 350 l 824 697 l 931 697 l 931 183 l 931 114 l 625 114 l 625 239 l 486 239 l 486 -171 q 519 -249 486 -217 q 597 -282 551 -282 l 958 -282 q 1037 -249 1004 -282 q 1069 -171 1069 -217 m 931 -150 l 625 -150 l 625 -18 l 931 -18 l 931 -150 z "},"깻":{"ha":1250,"x_min":83,"x_max":1113,"o":"m 1069 183 l 1069 1058 l 931 1058 l 931 829 l 824 829 l 824 1058 l 688 1058 l 688 350 l 824 350 l 824 697 l 931 697 l 931 183 l 1069 183 m 376 899 l 469 899 l 313 508 l 439 461 l 646 982 l 549 1031 l 250 1031 l 83 1031 l 83 899 l 233 899 l 85 531 l 211 483 l 376 899 m 1113 -204 l 750 225 l 388 -204 l 496 -289 l 750 15 l 1004 -289 l 1113 -204 z "},"깼":{"ha":1250,"x_min":83,"x_max":1113,"o":"m 1069 183 l 1069 1058 l 931 1058 l 931 829 l 824 829 l 824 1058 l 688 1058 l 688 350 l 824 350 l 824 697 l 931 697 l 931 183 l 1069 183 m 376 899 l 469 899 l 313 508 l 439 461 l 646 982 l 549 1031 l 250 1031 l 83 1031 l 83 899 l 233 899 l 85 531 l 211 483 l 376 899 m 1113 -236 l 879 239 l 708 -43 l 539 239 l 306 -236 l 428 -289 l 551 -36 l 708 -275 l 867 -36 l 990 -289 l 1113 -236 z "},"깽":{"ha":1250,"x_min":83,"x_max":1069,"o":"m 1069 -37 l 1069 1058 l 931 1058 l 931 829 l 824 829 l 824 1058 l 688 1058 l 688 350 l 824 350 l 824 697 l 931 697 l 931 192 q 793 228 869 228 q 686 207 736 228 q 599 150 636 186 q 539 66 561 114 q 517 -37 517 18 q 539 -141 517 -93 q 599 -225 561 -189 q 686 -282 636 -261 q 793 -303 736 -303 q 899 -282 849 -303 q 988 -225 950 -261 q 1047 -140 1025 -189 q 1069 -37 1069 -92 m 931 -37 q 891 -135 931 -97 q 793 -174 851 -174 q 697 -135 738 -174 q 656 -37 656 -97 q 697 62 656 25 q 793 99 738 99 q 891 62 851 99 q 931 -37 931 25 m 376 899 l 469 899 l 313 508 l 439 461 l 646 982 l 549 1031 l 250 1031 l 83 1031 l 83 899 l 233 899 l 85 531 l 211 483 l 376 899 z "},"꺄":{"ha":1250,"x_min":132,"x_max":1208,"o":"m 1208 538 l 1208 669 l 1028 669 l 1028 788 l 1208 788 l 1208 919 l 1028 919 l 1028 1058 l 889 1058 l 889 44 l 1028 44 l 1028 538 l 1208 538 m 475 899 l 606 899 l 399 454 l 522 400 l 786 972 l 692 1031 l 361 1031 l 139 1031 l 139 899 l 328 899 l 132 479 l 256 425 l 475 899 z "},"꺅":{"ha":1250,"x_min":131,"x_max":1208,"o":"m 472 899 l 597 899 l 396 522 l 515 463 l 790 974 l 690 1031 l 361 1031 l 139 1031 l 139 899 l 319 899 l 131 546 l 250 486 l 472 899 m 1028 -275 l 1028 239 l 1028 579 l 1208 579 l 1208 711 l 1028 711 l 1028 815 l 1208 815 l 1208 947 l 1028 947 l 1028 1058 l 889 1058 l 889 239 l 431 239 l 431 107 l 889 107 l 889 -275 l 1028 -275 z "},"꺌":{"ha":1250,"x_min":131,"x_max":1208,"o":"m 472 899 l 597 899 l 396 522 l 515 463 l 790 974 l 690 1031 l 361 1031 l 139 1031 l 139 899 l 319 899 l 131 546 l 250 486 l 472 899 m 1042 -303 l 1042 -178 l 583 -178 l 583 -85 l 1028 -85 l 1028 253 l 1028 579 l 1208 579 l 1208 711 l 1028 711 l 1028 815 l 1208 815 l 1208 947 l 1028 947 l 1028 1058 l 889 1058 l 889 253 l 444 253 l 444 128 l 889 128 l 889 36 l 444 36 l 444 -192 q 477 -270 444 -237 q 556 -303 510 -303 l 1042 -303 z "},"꺼":{"ha":1250,"x_min":146,"x_max":1056,"o":"m 1056 44 l 1056 1058 l 917 1058 l 917 774 l 736 774 l 736 642 l 917 642 l 917 44 l 1056 44 m 489 899 l 619 899 l 413 454 l 536 400 l 800 972 l 706 1031 l 375 1031 l 153 1031 l 153 899 l 342 899 l 146 479 l 269 425 l 489 899 z "},"꺽":{"ha":1250,"x_min":144,"x_max":1056,"o":"m 486 899 l 611 899 l 410 522 l 529 463 l 804 974 l 704 1031 l 375 1031 l 153 1031 l 153 899 l 333 899 l 144 546 l 264 486 l 486 899 m 1056 -275 l 1056 239 l 1056 1058 l 917 1058 l 917 801 l 736 801 l 736 669 l 917 669 l 917 239 l 458 239 l 458 107 l 917 107 l 917 -275 l 1056 -275 z "},"꺾":{"ha":1250,"x_min":144,"x_max":1056,"o":"m 486 899 l 611 899 l 410 522 l 529 463 l 804 974 l 704 1031 l 375 1031 l 153 1031 l 153 899 l 333 899 l 144 546 l 264 486 l 486 899 m 1056 -275 l 1056 239 l 1056 1058 l 917 1058 l 917 801 l 736 801 l 736 669 l 917 669 l 917 239 l 375 239 l 375 107 l 583 107 l 583 -275 l 722 -275 l 722 107 l 917 107 l 917 -275 l 1056 -275 z "},"껀":{"ha":1250,"x_min":144,"x_max":1069,"o":"m 1056 183 l 1056 1058 l 917 1058 l 917 801 l 736 801 l 736 669 l 917 669 l 917 183 l 1056 183 m 486 899 l 611 899 l 410 522 l 529 463 l 804 974 l 704 1031 l 375 1031 l 153 1031 l 153 899 l 333 899 l 144 546 l 264 486 l 486 899 m 1069 -275 l 1069 -143 l 611 -143 l 611 183 l 472 183 l 472 -164 q 505 -242 472 -210 q 583 -275 538 -275 l 1069 -275 z "},"껄":{"ha":1250,"x_min":144,"x_max":1069,"o":"m 486 899 l 611 899 l 410 522 l 529 463 l 804 974 l 704 1031 l 375 1031 l 153 1031 l 153 899 l 333 899 l 144 546 l 264 486 l 486 899 m 1069 -303 l 1069 -178 l 611 -178 l 611 -85 l 1056 -85 l 1056 253 l 1056 1058 l 917 1058 l 917 801 l 736 801 l 736 669 l 917 669 l 917 253 l 472 253 l 472 128 l 917 128 l 917 36 l 472 36 l 472 -192 q 505 -270 472 -237 q 583 -303 538 -303 l 1069 -303 z "},"껌":{"ha":1250,"x_min":144,"x_max":1056,"o":"m 486 899 l 611 899 l 410 522 l 529 463 l 804 974 l 704 1031 l 375 1031 l 153 1031 l 153 899 l 333 899 l 144 546 l 264 486 l 486 899 m 1056 -164 l 1056 239 l 1056 1058 l 917 1058 l 917 801 l 736 801 l 736 669 l 917 669 l 917 239 l 472 239 l 472 -164 q 505 -242 472 -210 q 583 -275 538 -275 l 944 -275 q 1023 -242 990 -275 q 1056 -164 1056 -210 m 917 -143 l 611 -143 l 611 107 l 917 107 l 917 -143 z "},"껍":{"ha":1250,"x_min":144,"x_max":1056,"o":"m 486 899 l 611 899 l 410 522 l 529 463 l 804 974 l 704 1031 l 375 1031 l 153 1031 l 153 899 l 333 899 l 144 546 l 264 486 l 486 899 m 1056 -171 l 1056 239 l 1056 1058 l 917 1058 l 917 801 l 736 801 l 736 669 l 917 669 l 917 183 l 917 114 l 611 114 l 611 239 l 472 239 l 472 -171 q 505 -249 472 -217 q 583 -282 538 -282 l 944 -282 q 1023 -249 990 -282 q 1056 -171 1056 -217 m 917 -150 l 611 -150 l 611 -18 l 917 -18 l 917 -150 z "},"껏":{"ha":1250,"x_min":144,"x_max":1099,"o":"m 1056 183 l 1056 1058 l 917 1058 l 917 801 l 736 801 l 736 669 l 917 669 l 917 183 l 1056 183 m 486 899 l 611 899 l 410 522 l 529 463 l 804 974 l 704 1031 l 375 1031 l 153 1031 l 153 899 l 333 899 l 144 546 l 264 486 l 486 899 m 1099 -204 l 736 225 l 374 -204 l 482 -289 l 736 15 l 990 -289 l 1099 -204 z "},"껐":{"ha":1250,"x_min":144,"x_max":1099,"o":"m 1056 183 l 1056 1058 l 917 1058 l 917 801 l 736 801 l 736 669 l 917 669 l 917 183 l 1056 183 m 486 899 l 611 899 l 410 522 l 529 463 l 804 974 l 704 1031 l 375 1031 l 153 1031 l 153 899 l 333 899 l 144 546 l 264 486 l 486 899 m 1099 -236 l 865 239 l 694 -43 l 525 239 l 292 -236 l 414 -289 l 538 -36 l 694 -275 l 853 -36 l 976 -289 l 1099 -236 z "},"껑":{"ha":1250,"x_min":144,"x_max":1056,"o":"m 1056 -37 l 1056 1058 l 917 1058 l 917 801 l 736 801 l 736 669 l 917 669 l 917 192 q 779 228 856 228 q 672 207 722 228 q 585 150 622 186 q 525 66 547 114 q 503 -37 503 18 q 525 -141 503 -93 q 585 -225 547 -189 q 672 -282 622 -261 q 779 -303 722 -303 q 885 -282 835 -303 q 974 -225 936 -261 q 1033 -140 1011 -189 q 1056 -37 1056 -92 m 917 -37 q 877 -135 917 -97 q 779 -174 838 -174 q 683 -135 724 -174 q 642 -37 642 -97 q 683 62 642 25 q 779 99 724 99 q 877 62 838 99 q 917 -37 917 25 m 486 899 l 611 899 l 410 522 l 529 463 l 804 974 l 704 1031 l 375 1031 l 153 1031 l 153 899 l 333 899 l 144 546 l 264 486 l 486 899 z "},"께":{"ha":1250,"x_min":65,"x_max":1069,"o":"m 1069 44 l 1069 1058 l 931 1058 l 931 44 l 1069 44 m 847 44 l 847 1058 l 711 1058 l 711 774 l 569 774 l 569 642 l 711 642 l 711 44 l 847 44 m 376 899 l 469 899 l 293 461 l 419 414 l 646 982 l 549 1031 l 250 1031 l 83 1031 l 83 899 l 233 899 l 65 483 l 192 436 l 376 899 z "},"껙":{"ha":1250,"x_min":83,"x_max":1069,"o":"m 376 899 l 469 899 l 313 508 l 439 461 l 569 790 l 569 669 l 711 669 l 711 350 l 847 350 l 847 1058 l 711 1058 l 711 801 l 574 801 l 646 982 l 549 1031 l 250 1031 l 83 1031 l 83 899 l 233 899 l 85 531 l 211 483 l 376 899 m 1069 -275 l 1069 239 l 1069 1058 l 931 1058 l 931 239 l 472 239 l 472 107 l 931 107 l 931 -275 l 1069 -275 z "},"껜":{"ha":1250,"x_min":83,"x_max":1083,"o":"m 1069 183 l 1069 1058 l 931 1058 l 931 183 l 1069 183 m 376 899 l 469 899 l 313 508 l 439 461 l 569 790 l 569 669 l 711 669 l 711 183 l 847 183 l 847 1058 l 711 1058 l 711 801 l 574 801 l 646 982 l 549 1031 l 250 1031 l 83 1031 l 83 899 l 233 899 l 85 531 l 211 483 l 376 899 m 1083 -275 l 1083 -143 l 625 -143 l 625 183 l 486 183 l 486 -164 q 519 -242 486 -210 q 597 -275 551 -275 l 1083 -275 z "},"껨":{"ha":1250,"x_min":83,"x_max":1069,"o":"m 376 899 l 469 899 l 313 508 l 439 461 l 569 790 l 569 669 l 711 669 l 711 350 l 847 350 l 847 1058 l 711 1058 l 711 801 l 574 801 l 646 982 l 549 1031 l 250 1031 l 83 1031 l 83 899 l 233 899 l 85 531 l 211 483 l 376 899 m 1069 -164 l 1069 239 l 1069 1058 l 931 1058 l 931 239 l 486 239 l 486 -164 q 519 -242 486 -210 q 597 -275 551 -275 l 958 -275 q 1037 -242 1004 -275 q 1069 -164 1069 -210 m 931 -143 l 625 -143 l 625 107 l 931 107 l 931 -143 z "},"껫":{"ha":1250,"x_min":83,"x_max":1113,"o":"m 1069 183 l 1069 1058 l 931 1058 l 931 183 l 1069 183 m 376 899 l 469 899 l 313 508 l 439 461 l 569 790 l 569 669 l 711 669 l 711 350 l 847 350 l 847 1058 l 711 1058 l 711 801 l 574 801 l 646 982 l 549 1031 l 250 1031 l 83 1031 l 83 899 l 233 899 l 85 531 l 211 483 l 376 899 m 1113 -204 l 750 225 l 388 -204 l 496 -289 l 750 15 l 1004 -289 l 1113 -204 z "},"껭":{"ha":1250,"x_min":83,"x_max":1069,"o":"m 1069 -37 l 1069 1058 l 931 1058 l 931 192 q 793 228 869 228 q 686 207 736 228 q 599 150 636 186 q 539 66 561 114 q 517 -37 517 18 q 539 -141 517 -93 q 599 -225 561 -189 q 686 -282 636 -261 q 793 -303 736 -303 q 899 -282 849 -303 q 988 -225 950 -261 q 1047 -140 1025 -189 q 1069 -37 1069 -92 m 931 -37 q 891 -135 931 -97 q 793 -174 851 -174 q 697 -135 738 -174 q 656 -37 656 -97 q 697 62 656 25 q 793 99 738 99 q 891 62 851 99 q 931 -37 931 25 m 376 899 l 469 899 l 313 508 l 439 461 l 569 790 l 569 669 l 711 669 l 711 350 l 847 350 l 847 1058 l 711 1058 l 711 801 l 574 801 l 646 982 l 549 1031 l 250 1031 l 83 1031 l 83 899 l 233 899 l 85 531 l 211 483 l 376 899 z "},"껴":{"ha":1250,"x_min":146,"x_max":1056,"o":"m 489 899 l 619 899 l 413 454 l 536 400 l 722 804 l 722 746 l 917 746 l 917 642 l 722 642 l 722 510 l 917 510 l 917 44 l 1056 44 l 1056 1058 l 917 1058 l 917 878 l 757 878 l 800 972 l 706 1031 l 375 1031 l 153 1031 l 153 899 l 342 899 l 146 479 l 269 425 l 489 899 z "},"껸":{"ha":1250,"x_min":144,"x_max":1069,"o":"m 486 899 l 611 899 l 410 522 l 529 463 l 722 821 l 722 760 l 917 760 l 917 656 l 722 656 l 722 524 l 917 524 l 917 183 l 1056 183 l 1056 1058 l 917 1058 l 917 892 l 760 892 l 804 974 l 704 1031 l 375 1031 l 153 1031 l 153 899 l 333 899 l 144 546 l 264 486 l 486 899 m 1069 -275 l 1069 -143 l 611 -143 l 611 183 l 472 183 l 472 -164 q 505 -242 472 -210 q 583 -275 538 -275 l 1069 -275 z "},"껼":{"ha":1250,"x_min":144,"x_max":1069,"o":"m 1069 -303 l 1069 -178 l 611 -178 l 611 -85 l 1056 -85 l 1056 253 l 1056 1058 l 917 1058 l 917 892 l 760 892 l 804 974 l 704 1031 l 375 1031 l 153 1031 l 153 899 l 333 899 l 144 546 l 264 486 l 486 899 l 611 899 l 410 522 l 529 463 l 722 821 l 722 760 l 917 760 l 917 656 l 722 656 l 722 524 l 917 524 l 917 253 l 472 253 l 472 128 l 917 128 l 917 36 l 472 36 l 472 -192 q 505 -270 472 -237 q 583 -303 538 -303 l 1069 -303 z "},"꼇":{"ha":1250,"x_min":144,"x_max":1099,"o":"m 486 899 l 611 899 l 410 522 l 529 463 l 722 821 l 722 760 l 917 760 l 917 656 l 722 656 l 722 524 l 917 524 l 917 183 l 1056 183 l 1056 1058 l 917 1058 l 917 892 l 760 892 l 804 974 l 704 1031 l 375 1031 l 153 1031 l 153 899 l 333 899 l 144 546 l 264 486 l 486 899 m 1099 -204 l 736 225 l 374 -204 l 482 -289 l 736 15 l 990 -289 l 1099 -204 z "},"꼈":{"ha":1250,"x_min":144,"x_max":1099,"o":"m 486 899 l 611 899 l 410 522 l 529 463 l 722 821 l 722 760 l 917 760 l 917 656 l 722 656 l 722 524 l 917 524 l 917 183 l 1056 183 l 1056 1058 l 917 1058 l 917 892 l 760 892 l 804 974 l 704 1031 l 375 1031 l 153 1031 l 153 899 l 333 899 l 144 546 l 264 486 l 486 899 m 1099 -236 l 865 239 l 694 -43 l 525 239 l 292 -236 l 414 -289 l 538 -36 l 694 -275 l 853 -36 l 976 -289 l 1099 -236 z "},"꼍":{"ha":1250,"x_min":144,"x_max":1056,"o":"m 1056 -289 l 1056 -164 l 611 -164 l 611 -85 l 1042 -85 l 1042 36 l 611 36 l 611 114 l 1056 114 l 1056 239 l 1056 1058 l 917 1058 l 917 892 l 760 892 l 804 974 l 704 1031 l 375 1031 l 153 1031 l 153 899 l 333 899 l 144 546 l 264 486 l 486 899 l 611 899 l 410 522 l 529 463 l 722 821 l 722 760 l 917 760 l 917 656 l 722 656 l 722 524 l 917 524 l 917 239 l 472 239 l 472 -178 q 505 -256 472 -224 q 583 -289 538 -289 l 1056 -289 z "},"꼐":{"ha":1250,"x_min":65,"x_max":1069,"o":"m 1069 44 l 1069 1058 l 931 1058 l 931 44 l 1069 44 m 376 899 l 469 899 l 293 461 l 419 414 l 569 790 l 569 746 l 711 746 l 711 642 l 569 642 l 569 510 l 711 510 l 711 44 l 847 44 l 847 1058 l 711 1058 l 711 878 l 604 878 l 646 982 l 549 1031 l 250 1031 l 83 1031 l 83 899 l 233 899 l 65 483 l 192 436 l 376 899 z "},"꼬":{"ha":1250,"x_min":56,"x_max":1194,"o":"m 1194 190 l 1194 322 l 715 322 l 715 642 l 597 642 l 597 899 l 819 899 l 819 544 l 958 544 l 958 1031 l 250 1031 l 250 899 l 458 899 l 458 544 l 576 544 l 576 322 l 56 322 l 56 190 l 1194 190 z "},"꼭":{"ha":1250,"x_min":56,"x_max":1194,"o":"m 1194 343 l 1194 475 l 715 475 l 715 683 l 611 683 l 611 899 l 806 899 l 806 586 l 944 586 l 944 1031 l 264 1031 l 264 899 l 472 899 l 472 586 l 576 586 l 576 475 l 56 475 l 56 343 l 1194 343 m 917 -275 l 917 169 l 319 169 l 319 38 l 778 38 l 778 -275 l 917 -275 z "},"꼰":{"ha":1250,"x_min":56,"x_max":1194,"o":"m 1194 315 l 1194 447 l 715 447 l 715 683 l 611 683 l 611 899 l 806 899 l 806 586 l 944 586 l 944 1031 l 264 1031 l 264 899 l 472 899 l 472 586 l 576 586 l 576 447 l 56 447 l 56 315 l 1194 315 m 931 -275 l 931 -143 l 472 -143 l 472 128 l 333 128 l 333 -164 q 366 -242 333 -210 q 444 -275 399 -275 l 931 -275 z "},"꼲":{"ha":1250,"x_min":56,"x_max":1194,"o":"m 1194 343 l 1194 475 l 715 475 l 715 683 l 611 683 l 611 899 l 806 899 l 806 586 l 944 586 l 944 1031 l 264 1031 l 264 899 l 472 899 l 472 586 l 576 586 l 576 475 l 56 475 l 56 343 l 1194 343 m 1025 -68 q 1006 24 1025 -19 l 1069 24 l 1069 156 l 882 156 l 882 267 l 743 267 l 743 156 l 556 156 l 556 24 l 619 24 q 600 -68 600 -19 q 617 -153 600 -112 q 664 -223 635 -193 q 732 -270 693 -253 q 813 -287 771 -287 q 894 -269 856 -287 q 961 -222 932 -251 q 1008 -152 990 -192 q 1025 -68 1025 -112 m 886 -68 q 863 -132 886 -106 q 813 -158 840 -158 q 762 -132 785 -158 q 739 -68 739 -106 q 762 -4 739 -31 q 813 22 785 22 q 863 -4 840 22 q 886 -68 886 -31 m 611 -275 l 611 -143 l 417 -143 l 417 169 l 278 169 l 278 -164 q 310 -242 278 -210 q 389 -275 343 -275 l 611 -275 z "},"꼴":{"ha":1250,"x_min":56,"x_max":1194,"o":"m 1194 371 l 1194 503 l 715 503 l 715 711 l 611 711 l 611 899 l 806 899 l 806 614 l 944 614 l 944 1031 l 264 1031 l 264 899 l 472 899 l 472 614 l 576 614 l 576 503 l 56 503 l 56 371 l 1194 371 m 931 -303 l 931 -178 l 472 -178 l 472 -85 l 917 -85 l 917 253 l 333 253 l 333 128 l 778 128 l 778 36 l 333 36 l 333 -192 q 366 -270 333 -237 q 444 -303 399 -303 l 931 -303 z "},"꼼":{"ha":1250,"x_min":56,"x_max":1194,"o":"m 1194 343 l 1194 475 l 715 475 l 715 683 l 611 683 l 611 899 l 806 899 l 806 586 l 944 586 l 944 1031 l 264 1031 l 264 899 l 472 899 l 472 586 l 576 586 l 576 475 l 56 475 l 56 343 l 1194 343 m 917 -164 l 917 197 l 333 197 l 333 -164 q 366 -242 333 -210 q 444 -275 399 -275 l 806 -275 q 884 -242 851 -275 q 917 -164 917 -210 m 778 -143 l 472 -143 l 472 65 l 778 65 l 778 -143 z "},"꼽":{"ha":1250,"x_min":56,"x_max":1194,"o":"m 1194 343 l 1194 475 l 715 475 l 715 683 l 611 683 l 611 899 l 806 899 l 806 586 l 944 586 l 944 1031 l 264 1031 l 264 899 l 472 899 l 472 586 l 576 586 l 576 475 l 56 475 l 56 343 l 1194 343 m 917 -178 l 917 232 l 778 232 l 778 107 l 472 107 l 472 232 l 333 232 l 333 -178 q 366 -256 333 -224 q 444 -289 399 -289 l 806 -289 q 884 -256 851 -289 q 917 -178 917 -224 m 778 -157 l 472 -157 l 472 -25 l 778 -25 l 778 -157 z "},"꼿":{"ha":1250,"x_min":56,"x_max":1194,"o":"m 1194 343 l 1194 475 l 715 475 l 715 683 l 611 683 l 611 899 l 806 899 l 806 586 l 944 586 l 944 1031 l 264 1031 l 264 899 l 472 899 l 472 586 l 576 586 l 576 475 l 56 475 l 56 343 l 1194 343 m 988 -204 l 625 225 l 263 -204 l 371 -289 l 625 15 l 879 -289 l 988 -204 z "},"꽁":{"ha":1250,"x_min":56,"x_max":1194,"o":"m 1194 343 l 1194 475 l 715 475 l 715 683 l 611 683 l 611 899 l 806 899 l 806 586 l 944 586 l 944 1031 l 264 1031 l 264 899 l 472 899 l 472 586 l 576 586 l 576 475 l 56 475 l 56 343 l 1194 343 m 901 -50 q 879 48 901 1 q 819 128 857 94 q 731 183 781 163 q 625 203 681 203 q 518 183 568 203 q 431 129 468 164 q 371 49 393 94 q 349 -50 349 3 q 371 -149 349 -103 q 431 -229 393 -194 q 518 -283 468 -264 q 625 -303 568 -303 q 731 -283 681 -303 q 819 -228 781 -262 q 879 -149 857 -194 q 901 -50 901 -103 m 763 -50 q 723 -139 763 -104 q 625 -174 683 -174 q 572 -165 597 -174 q 528 -139 547 -156 q 499 -100 510 -122 q 488 -50 488 -78 q 499 -1 488 -24 q 528 39 510 22 q 572 65 547 56 q 625 74 597 74 q 723 39 683 74 q 763 -50 763 4 z "},"꽂":{"ha":1250,"x_min":56,"x_max":1194,"o":"m 1194 343 l 1194 475 l 715 475 l 715 683 l 611 683 l 611 899 l 806 899 l 806 586 l 944 586 l 944 1031 l 264 1031 l 264 899 l 472 899 l 472 586 l 576 586 l 576 475 l 56 475 l 56 343 l 1194 343 m 979 -194 l 722 65 l 917 65 l 917 197 l 333 197 l 333 65 l 528 65 l 271 -194 l 371 -289 l 625 -28 l 879 -289 l 979 -194 z "},"꽃":{"ha":1250,"x_min":56,"x_max":1194,"o":"m 1194 343 l 1194 475 l 715 475 l 715 683 l 611 683 l 611 899 l 806 899 l 806 586 l 944 586 l 944 1031 l 264 1031 l 264 899 l 472 899 l 472 586 l 576 586 l 576 475 l 56 475 l 56 343 l 1194 343 m 979 -194 l 728 38 l 917 38 l 917 169 l 694 169 l 694 253 l 556 253 l 556 169 l 333 169 l 333 38 l 522 38 l 271 -194 l 371 -289 l 625 -51 l 879 -289 l 979 -194 z "},"꽈":{"ha":1250,"x_min":28,"x_max":1222,"o":"m 903 246 l 903 44 l 1042 44 l 1042 656 l 1222 656 l 1222 788 l 1042 788 l 1042 1058 l 903 1058 l 903 378 l 576 378 l 576 683 l 472 683 l 472 899 l 625 899 l 625 558 l 764 558 l 764 1031 l 181 1031 l 181 899 l 333 899 l 333 558 l 438 558 l 438 378 l 28 378 l 28 246 l 903 246 z "},"꽉":{"ha":1250,"x_min":28,"x_max":1222,"o":"m 1042 -275 l 1042 169 l 1042 697 l 1222 697 l 1222 829 l 1042 829 l 1042 1058 l 903 1058 l 903 475 l 576 475 l 576 711 l 472 711 l 472 899 l 625 899 l 625 586 l 764 586 l 764 1031 l 181 1031 l 181 899 l 333 899 l 333 586 l 438 586 l 438 475 l 28 475 l 28 343 l 903 343 l 903 169 l 444 169 l 444 38 l 903 38 l 903 -275 l 1042 -275 z "},"꽐":{"ha":1250,"x_min":28,"x_max":1222,"o":"m 1056 -303 l 1056 -178 l 597 -178 l 597 -99 l 1042 -99 l 1042 225 l 1042 697 l 1222 697 l 1222 829 l 1042 829 l 1042 1058 l 903 1058 l 903 475 l 576 475 l 576 711 l 472 711 l 472 899 l 625 899 l 625 586 l 764 586 l 764 1031 l 181 1031 l 181 899 l 333 899 l 333 586 l 438 586 l 438 475 l 28 475 l 28 343 l 903 343 l 903 225 l 458 225 l 458 100 l 903 100 l 903 22 l 458 22 l 458 -192 q 491 -270 458 -237 q 569 -303 524 -303 l 1056 -303 z "},"꽜":{"ha":1250,"x_min":28,"x_max":1222,"o":"m 903 343 l 903 142 l 1042 142 l 1042 697 l 1222 697 l 1222 829 l 1042 829 l 1042 1058 l 903 1058 l 903 475 l 576 475 l 576 711 l 472 711 l 472 899 l 625 899 l 625 586 l 764 586 l 764 1031 l 181 1031 l 181 899 l 333 899 l 333 586 l 438 586 l 438 475 l 28 475 l 28 343 l 903 343 m 1085 -250 l 851 211 l 681 -57 l 511 211 l 278 -250 l 400 -303 l 525 -57 l 681 -289 l 838 -57 l 963 -303 l 1085 -250 z "},"꽝":{"ha":1250,"x_min":28,"x_max":1222,"o":"m 903 343 l 903 169 q 838 194 872 185 q 765 203 803 203 q 658 183 708 203 q 571 129 608 164 q 511 49 533 94 q 489 -50 489 3 q 511 -149 489 -103 q 571 -229 533 -194 q 658 -283 608 -264 q 765 -303 708 -303 q 871 -283 821 -303 q 959 -228 921 -262 q 1019 -149 997 -194 q 1042 -50 1042 -103 l 1042 697 l 1222 697 l 1222 829 l 1042 829 l 1042 1058 l 903 1058 l 903 475 l 576 475 l 576 711 l 472 711 l 472 899 l 625 899 l 625 586 l 764 586 l 764 1031 l 181 1031 l 181 899 l 333 899 l 333 586 l 438 586 l 438 475 l 28 475 l 28 343 l 903 343 m 903 -50 q 863 -139 903 -104 q 765 -174 824 -174 q 713 -165 738 -174 q 669 -139 688 -156 q 639 -100 650 -122 q 628 -50 628 -78 q 639 -1 628 -24 q 669 39 650 22 q 713 65 688 56 q 765 74 738 74 q 863 39 824 74 q 903 -50 903 4 z "},"꽤":{"ha":1250,"x_min":14,"x_max":1083,"o":"m 757 246 l 838 246 l 838 656 l 944 656 l 944 44 l 1083 44 l 1083 1058 l 944 1058 l 944 788 l 838 788 l 838 1058 l 701 1058 l 701 378 l 465 378 l 465 683 l 361 683 l 361 899 l 486 899 l 486 558 l 625 558 l 625 1031 l 97 1031 l 97 899 l 222 899 l 222 558 l 326 558 l 326 378 l 14 378 l 14 246 l 701 246 l 757 246 z "},"꽥":{"ha":1250,"x_min":14,"x_max":1083,"o":"m 1083 -275 l 1083 169 l 1083 1058 l 944 1058 l 944 829 l 838 829 l 838 1058 l 701 1058 l 701 475 l 465 475 l 465 711 l 361 711 l 361 899 l 486 899 l 486 586 l 625 586 l 625 1031 l 97 1031 l 97 899 l 222 899 l 222 586 l 326 586 l 326 475 l 14 475 l 14 343 l 757 343 l 838 343 l 838 697 l 944 697 l 944 169 l 486 169 l 486 38 l 944 38 l 944 -275 l 1083 -275 z "},"꽹":{"ha":1250,"x_min":14,"x_max":1083,"o":"m 757 343 l 838 343 l 838 697 l 944 697 l 944 169 q 879 194 914 185 q 807 203 844 203 q 700 183 750 203 q 613 129 650 164 q 553 49 575 94 q 531 -50 531 3 q 553 -149 531 -103 q 613 -229 575 -194 q 700 -283 650 -264 q 807 -303 750 -303 q 913 -283 863 -303 q 1001 -228 963 -262 q 1061 -149 1039 -194 q 1083 -50 1083 -103 l 1083 1058 l 944 1058 l 944 829 l 838 829 l 838 1058 l 701 1058 l 701 475 l 465 475 l 465 711 l 361 711 l 361 899 l 486 899 l 486 586 l 625 586 l 625 1031 l 97 1031 l 97 899 l 222 899 l 222 586 l 326 586 l 326 475 l 14 475 l 14 343 l 701 343 l 757 343 m 944 -50 q 905 -139 944 -104 q 807 -174 865 -174 q 754 -165 779 -174 q 710 -139 729 -156 q 681 -100 692 -122 q 669 -50 669 -78 q 681 -1 669 -24 q 710 39 692 22 q 754 65 729 56 q 807 74 779 74 q 905 39 865 74 q 944 -50 944 4 z "},"꾀":{"ha":1250,"x_min":42,"x_max":1056,"o":"m 917 246 l 917 44 l 1056 44 l 1056 1058 l 917 1058 l 917 378 l 590 378 l 590 683 l 486 683 l 486 899 l 639 899 l 639 558 l 778 558 l 778 1031 l 194 1031 l 194 899 l 347 899 l 347 558 l 451 558 l 451 378 l 42 378 l 42 246 l 917 246 z "},"꾄":{"ha":1250,"x_min":42,"x_max":1069,"o":"m 917 315 l 917 142 l 1056 142 l 1056 1058 l 917 1058 l 917 447 l 590 447 l 590 711 l 486 711 l 486 899 l 639 899 l 639 586 l 778 586 l 778 1031 l 194 1031 l 194 899 l 347 899 l 347 586 l 451 586 l 451 447 l 42 447 l 42 315 l 917 315 m 1069 -275 l 1069 -143 l 611 -143 l 611 128 l 472 128 l 472 -164 q 505 -242 472 -210 q 583 -275 538 -275 l 1069 -275 z "},"꾈":{"ha":1250,"x_min":42,"x_max":1069,"o":"m 1069 -303 l 1069 -178 l 611 -178 l 611 -99 l 1056 -99 l 1056 225 l 1056 1058 l 917 1058 l 917 475 l 590 475 l 590 711 l 486 711 l 486 899 l 639 899 l 639 586 l 778 586 l 778 1031 l 194 1031 l 194 899 l 347 899 l 347 586 l 451 586 l 451 475 l 42 475 l 42 343 l 917 343 l 917 225 l 472 225 l 472 100 l 917 100 l 917 22 l 472 22 l 472 -192 q 505 -270 472 -237 q 583 -303 538 -303 l 1069 -303 z "},"꾐":{"ha":1250,"x_min":42,"x_max":1056,"o":"m 1056 -164 l 1056 197 l 1056 1058 l 917 1058 l 917 475 l 590 475 l 590 711 l 486 711 l 486 899 l 639 899 l 639 586 l 778 586 l 778 1031 l 194 1031 l 194 899 l 347 899 l 347 586 l 451 586 l 451 475 l 42 475 l 42 343 l 917 343 l 917 197 l 472 197 l 472 -164 q 505 -242 472 -210 q 583 -275 538 -275 l 944 -275 q 1023 -242 990 -275 q 1056 -164 1056 -210 m 917 -143 l 611 -143 l 611 65 l 917 65 l 917 -143 z "},"꾑":{"ha":1250,"x_min":42,"x_max":1056,"o":"m 1056 -178 l 1056 204 l 1056 1058 l 917 1058 l 917 475 l 590 475 l 590 711 l 486 711 l 486 899 l 639 899 l 639 586 l 778 586 l 778 1031 l 194 1031 l 194 899 l 347 899 l 347 586 l 451 586 l 451 475 l 42 475 l 42 343 l 917 343 l 917 142 l 917 93 l 611 93 l 611 204 l 472 204 l 472 -178 q 505 -256 472 -224 q 583 -289 538 -289 l 944 -289 q 1023 -256 990 -289 q 1056 -178 1056 -224 m 917 -157 l 611 -157 l 611 -39 l 917 -39 l 917 -157 z "},"꾕":{"ha":1250,"x_min":42,"x_max":1056,"o":"m 917 343 l 917 169 q 851 194 886 185 q 779 203 817 203 q 672 183 722 203 q 585 129 622 164 q 525 49 547 94 q 503 -50 503 3 q 525 -149 503 -103 q 585 -229 547 -194 q 672 -283 622 -264 q 779 -303 722 -303 q 885 -283 835 -303 q 973 -228 935 -262 q 1033 -149 1011 -194 q 1056 -50 1056 -103 l 1056 1058 l 917 1058 l 917 475 l 590 475 l 590 711 l 486 711 l 486 899 l 639 899 l 639 586 l 778 586 l 778 1031 l 194 1031 l 194 899 l 347 899 l 347 586 l 451 586 l 451 475 l 42 475 l 42 343 l 917 343 m 917 -50 q 877 -139 917 -104 q 779 -174 838 -174 q 726 -165 751 -174 q 683 -139 701 -156 q 653 -100 664 -122 q 642 -50 642 -78 q 653 -1 642 -24 q 683 39 664 22 q 726 65 701 56 q 779 74 751 74 q 877 39 838 74 q 917 -50 917 4 z "},"꾜":{"ha":1250,"x_min":56,"x_max":1194,"o":"m 556 322 l 556 544 l 597 544 l 597 899 l 819 899 l 819 642 l 694 642 l 694 322 l 556 322 m 1194 190 l 1194 322 l 833 322 l 833 544 l 958 544 l 958 1031 l 250 1031 l 250 899 l 458 899 l 458 642 l 417 642 l 417 322 l 56 322 l 56 190 l 1194 190 z "},"꾸":{"ha":1250,"x_min":56,"x_max":1194,"o":"m 958 544 l 958 1031 l 250 1031 l 250 899 l 458 899 l 458 544 l 597 544 l 597 899 l 819 899 l 819 544 l 958 544 m 694 -25 l 694 301 l 1194 301 l 1194 433 l 56 433 l 56 301 l 556 301 l 556 -25 l 694 -25 z "},"꾹":{"ha":1250,"x_min":56,"x_max":1194,"o":"m 944 558 l 944 1031 l 264 1031 l 264 899 l 472 899 l 472 558 l 611 558 l 611 899 l 806 899 l 806 558 l 944 558 m 917 -275 l 917 169 l 694 169 l 694 329 l 1194 329 l 1194 461 l 56 461 l 56 329 l 556 329 l 556 169 l 319 169 l 319 38 l 778 38 l 778 -275 l 917 -275 z "},"꾼":{"ha":1250,"x_min":56,"x_max":1194,"o":"m 944 558 l 944 1031 l 264 1031 l 264 899 l 472 899 l 472 558 l 611 558 l 611 899 l 806 899 l 806 558 l 944 558 m 736 58 l 736 315 l 1194 315 l 1194 447 l 56 447 l 56 315 l 597 315 l 597 58 l 736 58 m 931 -275 l 931 -143 l 472 -143 l 472 128 l 333 128 l 333 -164 q 366 -242 333 -210 q 444 -275 399 -275 l 931 -275 z "},"꿀":{"ha":1250,"x_min":56,"x_max":1194,"o":"m 944 614 l 944 1031 l 264 1031 l 264 899 l 472 899 l 472 614 l 611 614 l 611 899 l 806 899 l 806 614 l 944 614 m 931 -303 l 931 -178 l 472 -178 l 472 -85 l 917 -85 l 917 253 l 694 253 l 694 399 l 1194 399 l 1194 531 l 56 531 l 56 399 l 556 399 l 556 253 l 333 253 l 333 128 l 778 128 l 778 36 l 333 36 l 333 -192 q 366 -270 333 -237 q 444 -303 399 -303 l 931 -303 z "},"꿇":{"ha":1250,"x_min":56,"x_max":1194,"o":"m 944 614 l 944 1031 l 264 1031 l 264 899 l 472 899 l 472 614 l 611 614 l 611 899 l 806 899 l 806 614 l 944 614 m 597 -289 l 597 -164 l 375 -164 l 375 -71 l 583 -71 l 583 58 l 640 58 q 614 -58 614 3 q 631 -154 614 -110 q 678 -232 649 -199 q 747 -284 708 -265 q 826 -303 785 -303 q 907 -283 868 -303 q 975 -231 946 -264 q 1022 -153 1004 -197 q 1039 -58 1039 -108 q 1013 58 1039 3 l 1083 58 l 1083 190 l 896 190 l 896 281 l 757 281 l 757 190 l 694 190 l 694 399 l 1194 399 l 1194 531 l 56 531 l 56 399 l 556 399 l 556 267 l 236 267 l 236 142 l 444 142 l 444 50 l 236 50 l 236 -178 q 269 -256 236 -224 q 347 -289 301 -289 l 597 -289 m 900 -58 q 894 -103 900 -82 q 877 -140 888 -124 q 853 -165 867 -156 q 826 -174 840 -174 q 799 -165 813 -174 q 776 -140 786 -156 q 759 -103 765 -124 q 753 -58 753 -82 q 776 24 753 -10 q 826 57 799 57 q 877 24 854 57 q 900 -58 900 -10 z "},"꿈":{"ha":1250,"x_min":56,"x_max":1194,"o":"m 944 586 l 944 1031 l 264 1031 l 264 899 l 472 899 l 472 586 l 611 586 l 611 899 l 806 899 l 806 586 l 944 586 m 917 -164 l 917 197 l 694 197 l 694 371 l 1194 371 l 1194 503 l 56 503 l 56 371 l 556 371 l 556 197 l 333 197 l 333 -164 q 366 -242 333 -210 q 444 -275 399 -275 l 806 -275 q 884 -242 851 -275 q 917 -164 917 -210 m 778 -143 l 472 -143 l 472 65 l 778 65 l 778 -143 z "},"꿉":{"ha":1250,"x_min":56,"x_max":1194,"o":"m 944 586 l 944 1031 l 264 1031 l 264 899 l 472 899 l 472 586 l 611 586 l 611 899 l 806 899 l 806 586 l 944 586 m 694 183 l 694 371 l 1194 371 l 1194 503 l 56 503 l 56 371 l 556 371 l 556 183 l 694 183 m 917 -178 l 917 232 l 778 232 l 778 107 l 472 107 l 472 232 l 333 232 l 333 -178 q 366 -256 333 -224 q 444 -289 399 -289 l 806 -289 q 884 -256 851 -289 q 917 -178 917 -224 m 778 -157 l 472 -157 l 472 -25 l 778 -25 l 778 -157 z "},"꿋":{"ha":1250,"x_min":56,"x_max":1194,"o":"m 944 586 l 944 1031 l 264 1031 l 264 899 l 472 899 l 472 586 l 611 586 l 611 899 l 806 899 l 806 586 l 944 586 m 988 -204 l 694 143 l 694 371 l 1194 371 l 1194 503 l 56 503 l 56 371 l 556 371 l 556 143 l 263 -204 l 371 -289 l 625 15 l 879 -289 l 988 -204 z "},"꿍":{"ha":1250,"x_min":56,"x_max":1194,"o":"m 944 586 l 944 1031 l 264 1031 l 264 899 l 472 899 l 472 586 l 611 586 l 611 899 l 806 899 l 806 586 l 944 586 m 901 -50 q 885 33 901 -7 q 842 105 869 72 q 776 160 814 138 q 694 194 739 183 l 694 371 l 1194 371 l 1194 503 l 56 503 l 56 371 l 556 371 l 556 194 q 474 161 511 183 q 408 106 436 139 q 365 34 381 74 q 349 -50 349 -6 q 371 -149 349 -103 q 431 -229 393 -194 q 518 -283 468 -264 q 625 -303 568 -303 q 731 -283 681 -303 q 819 -228 781 -262 q 879 -149 857 -194 q 901 -50 901 -103 m 763 -50 q 723 -139 763 -104 q 625 -174 683 -174 q 572 -165 597 -174 q 528 -139 547 -156 q 499 -100 510 -122 q 488 -50 488 -78 q 499 -1 488 -24 q 528 39 510 22 q 572 65 547 56 q 625 74 597 74 q 723 39 683 74 q 763 -50 763 4 z "},"꿎":{"ha":1250,"x_min":56,"x_max":1194,"o":"m 944 586 l 944 1031 l 264 1031 l 264 899 l 472 899 l 472 586 l 611 586 l 611 899 l 806 899 l 806 586 l 944 586 m 694 225 l 694 371 l 1194 371 l 1194 503 l 56 503 l 56 371 l 556 371 l 556 225 l 694 225 m 979 -194 l 722 65 l 917 65 l 917 197 l 333 197 l 333 65 l 528 65 l 271 -194 l 371 -289 l 625 -28 l 879 -289 l 979 -194 z "},"꿔":{"ha":1250,"x_min":42,"x_max":1056,"o":"m 1056 44 l 1056 1058 l 917 1058 l 917 326 l 667 326 l 667 197 l 917 197 l 917 44 l 1056 44 m 778 586 l 778 1031 l 194 1031 l 194 899 l 347 899 l 347 586 l 486 586 l 486 899 l 639 899 l 639 586 l 778 586 m 514 72 l 514 385 l 806 385 l 806 517 l 42 517 l 42 385 l 375 385 l 375 72 l 514 72 z "},"꿜":{"ha":1250,"x_min":42,"x_max":1069,"o":"m 778 614 l 778 1031 l 194 1031 l 194 899 l 347 899 l 347 614 l 486 614 l 486 899 l 639 899 l 639 614 l 778 614 m 514 225 l 514 413 l 806 413 l 806 544 l 42 544 l 42 413 l 375 413 l 375 225 l 514 225 m 1069 -303 l 1069 -178 l 611 -178 l 611 -112 l 1056 -112 l 1056 197 l 1056 1058 l 917 1058 l 917 368 l 667 368 l 667 239 l 917 239 l 917 197 l 472 197 l 472 72 l 917 72 l 917 8 l 472 8 l 472 -192 q 505 -270 472 -237 q 583 -303 538 -303 l 1069 -303 z "},"꿨":{"ha":1250,"x_min":42,"x_max":1099,"o":"m 1056 100 l 1056 1058 l 917 1058 l 917 368 l 667 368 l 667 239 l 917 239 l 917 100 l 1056 100 m 778 614 l 778 1031 l 194 1031 l 194 899 l 347 899 l 347 614 l 486 614 l 486 899 l 639 899 l 639 614 l 778 614 m 514 225 l 514 413 l 806 413 l 806 544 l 42 544 l 42 413 l 375 413 l 375 225 l 514 225 m 1099 -250 l 867 179 l 694 -69 l 524 179 l 292 -250 l 414 -303 l 538 -69 l 694 -289 l 853 -69 l 976 -303 l 1099 -250 z "},"꿩":{"ha":1250,"x_min":42,"x_max":1056,"o":"m 778 614 l 778 1031 l 194 1031 l 194 899 l 347 899 l 347 614 l 486 614 l 486 899 l 639 899 l 639 614 l 778 614 m 1056 -57 l 1056 1058 l 917 1058 l 917 368 l 667 368 l 667 239 l 917 239 l 917 158 q 788 189 860 189 q 685 169 733 189 q 599 117 636 150 q 541 38 563 83 q 519 -57 519 -7 q 541 -152 519 -107 q 599 -231 563 -197 q 685 -283 636 -264 q 788 -303 733 -303 q 892 -283 843 -303 q 976 -230 940 -264 q 1034 -151 1013 -196 q 1056 -57 1056 -107 m 917 -57 q 906 -103 917 -82 q 878 -140 896 -125 q 838 -165 861 -156 q 788 -174 814 -174 q 739 -165 763 -174 q 697 -140 715 -156 q 669 -103 679 -125 q 658 -57 658 -82 q 669 -10 658 -32 q 697 26 679 11 q 739 51 715 42 q 788 60 763 60 q 838 51 814 60 q 878 26 861 42 q 906 -10 896 11 q 917 -57 917 -32 m 514 225 l 514 413 l 806 413 l 806 544 l 42 544 l 42 413 l 375 413 l 375 225 l 514 225 z "},"꿰":{"ha":1250,"x_min":14,"x_max":1083,"o":"m 1083 44 l 1083 1058 l 944 1058 l 944 44 l 1083 44 m 861 197 l 861 1058 l 725 1058 l 725 326 l 500 326 l 500 197 l 861 197 m 625 586 l 625 1031 l 125 1031 l 125 899 l 250 899 l 250 586 l 389 586 l 389 899 l 486 899 l 486 586 l 625 586 m 417 72 l 417 385 l 639 385 l 639 517 l 14 517 l 14 385 l 278 385 l 278 72 l 417 72 z "},"꿱":{"ha":1250,"x_min":14,"x_max":1083,"o":"m 861 239 l 861 1058 l 725 1058 l 725 368 l 500 368 l 500 239 l 861 239 m 625 614 l 625 1031 l 125 1031 l 125 899 l 250 899 l 250 614 l 389 614 l 389 899 l 486 899 l 486 614 l 625 614 m 1083 -275 l 1083 156 l 1083 1058 l 944 1058 l 944 156 l 486 156 l 486 24 l 944 24 l 944 -275 l 1083 -275 m 417 225 l 417 413 l 639 413 l 639 544 l 14 544 l 14 413 l 278 413 l 278 225 l 417 225 z "},"꿴":{"ha":1250,"x_min":14,"x_max":1097,"o":"m 1083 100 l 1083 1058 l 944 1058 l 944 100 l 1083 100 m 861 211 l 861 1058 l 725 1058 l 725 340 l 500 340 l 500 211 l 861 211 m 625 586 l 625 1031 l 125 1031 l 125 899 l 250 899 l 250 586 l 389 586 l 389 899 l 486 899 l 486 586 l 625 586 m 1097 -275 l 1097 -143 l 639 -143 l 639 128 l 500 128 l 500 -164 q 533 -242 500 -210 q 611 -275 565 -275 l 1097 -275 m 417 197 l 417 385 l 639 385 l 639 517 l 14 517 l 14 385 l 278 385 l 278 197 l 417 197 z "},"꿸":{"ha":1250,"x_min":14,"x_max":1097,"o":"m 861 239 l 861 1058 l 725 1058 l 725 368 l 500 368 l 500 239 l 861 239 m 625 614 l 625 1031 l 125 1031 l 125 899 l 250 899 l 250 614 l 389 614 l 389 899 l 486 899 l 486 614 l 625 614 m 1097 -303 l 1097 -178 l 639 -178 l 639 -112 l 1083 -112 l 1083 197 l 1083 1058 l 944 1058 l 944 197 l 500 197 l 500 72 l 944 72 l 944 8 l 500 8 l 500 -192 q 533 -270 500 -237 q 611 -303 565 -303 l 1097 -303 m 417 225 l 417 413 l 639 413 l 639 544 l 14 544 l 14 413 l 278 413 l 278 225 l 417 225 z "},"뀀":{"ha":1250,"x_min":14,"x_max":1083,"o":"m 861 239 l 861 1058 l 725 1058 l 725 368 l 500 368 l 500 239 l 861 239 m 625 614 l 625 1031 l 125 1031 l 125 899 l 250 899 l 250 614 l 389 614 l 389 899 l 486 899 l 486 614 l 625 614 m 1083 -164 l 1083 169 l 1083 1058 l 944 1058 l 944 169 l 500 169 l 500 -164 q 533 -242 500 -210 q 611 -275 565 -275 l 972 -275 q 1051 -242 1018 -275 q 1083 -164 1083 -210 m 944 -143 l 639 -143 l 639 38 l 944 38 l 944 -143 m 417 225 l 417 413 l 639 413 l 639 544 l 14 544 l 14 413 l 278 413 l 278 225 l 417 225 z "},"뀁":{"ha":1250,"x_min":14,"x_max":1083,"o":"m 861 239 l 861 1058 l 725 1058 l 725 368 l 500 368 l 500 239 l 861 239 m 625 614 l 625 1031 l 125 1031 l 125 899 l 250 899 l 250 614 l 389 614 l 389 899 l 486 899 l 486 614 l 625 614 m 1083 -178 l 1083 176 l 1083 1058 l 944 1058 l 944 100 l 944 79 l 639 79 l 639 176 l 500 176 l 500 -178 q 533 -256 500 -224 q 611 -289 565 -289 l 972 -289 q 1051 -256 1018 -289 q 1083 -178 1083 -224 m 944 -157 l 639 -157 l 639 -53 l 944 -53 l 944 -157 m 417 225 l 417 413 l 639 413 l 639 544 l 14 544 l 14 413 l 278 413 l 278 225 l 417 225 z "},"뀄":{"ha":1250,"x_min":14,"x_max":1126,"o":"m 1083 100 l 1083 1058 l 944 1058 l 944 100 l 1083 100 m 861 239 l 861 1058 l 725 1058 l 725 368 l 500 368 l 500 239 l 861 239 m 625 614 l 625 1031 l 125 1031 l 125 899 l 250 899 l 250 614 l 389 614 l 389 899 l 486 899 l 486 614 l 625 614 m 417 225 l 417 413 l 639 413 l 639 544 l 14 544 l 14 413 l 278 413 l 278 225 l 417 225 m 1126 -250 l 894 179 l 722 -69 l 551 179 l 319 -250 l 442 -303 l 565 -69 l 722 -289 l 881 -69 l 1004 -303 l 1126 -250 z "},"뀌":{"ha":1250,"x_min":42,"x_max":1056,"o":"m 778 586 l 778 1031 l 194 1031 l 194 899 l 347 899 l 347 586 l 486 586 l 486 899 l 639 899 l 639 586 l 778 586 m 514 72 l 514 357 l 917 357 l 917 44 l 1056 44 l 1056 1058 l 917 1058 l 917 489 l 42 489 l 42 357 l 375 357 l 375 72 l 514 72 z "},"뀐":{"ha":1250,"x_min":42,"x_max":1069,"o":"m 778 586 l 778 1031 l 194 1031 l 194 899 l 347 899 l 347 586 l 486 586 l 486 899 l 639 899 l 639 586 l 778 586 m 514 197 l 514 357 l 917 357 l 917 100 l 1056 100 l 1056 1058 l 917 1058 l 917 489 l 42 489 l 42 357 l 375 357 l 375 197 l 514 197 m 1069 -275 l 1069 -143 l 611 -143 l 611 128 l 472 128 l 472 -164 q 505 -242 472 -210 q 583 -275 538 -275 l 1069 -275 z "},"뀔":{"ha":1250,"x_min":42,"x_max":1069,"o":"m 778 586 l 778 1031 l 194 1031 l 194 899 l 347 899 l 347 586 l 486 586 l 486 899 l 639 899 l 639 586 l 778 586 m 1069 -303 l 1069 -178 l 611 -178 l 611 -112 l 1056 -112 l 1056 197 l 1056 1058 l 917 1058 l 917 517 l 42 517 l 42 385 l 375 385 l 375 225 l 514 225 l 514 385 l 917 385 l 917 197 l 472 197 l 472 72 l 917 72 l 917 8 l 472 8 l 472 -192 q 505 -270 472 -237 q 583 -303 538 -303 l 1069 -303 z "},"뀜":{"ha":1250,"x_min":42,"x_max":1056,"o":"m 778 586 l 778 1031 l 194 1031 l 194 899 l 347 899 l 347 586 l 486 586 l 486 899 l 639 899 l 639 586 l 778 586 m 1056 -164 l 1056 169 l 1056 1058 l 917 1058 l 917 517 l 42 517 l 42 385 l 375 385 l 375 225 l 514 225 l 514 385 l 917 385 l 917 169 l 472 169 l 472 -164 q 505 -242 472 -210 q 583 -275 538 -275 l 944 -275 q 1023 -242 990 -275 q 1056 -164 1056 -210 m 917 -143 l 611 -143 l 611 38 l 917 38 l 917 -143 z "},"뀝":{"ha":1250,"x_min":42,"x_max":1056,"o":"m 778 586 l 778 1031 l 194 1031 l 194 899 l 347 899 l 347 586 l 486 586 l 486 899 l 639 899 l 639 586 l 778 586 m 1056 -178 l 1056 176 l 1056 1058 l 917 1058 l 917 517 l 42 517 l 42 385 l 375 385 l 375 225 l 514 225 l 514 385 l 917 385 l 917 100 l 917 79 l 611 79 l 611 176 l 472 176 l 472 -178 q 505 -256 472 -224 q 583 -289 538 -289 l 944 -289 q 1023 -256 990 -289 q 1056 -178 1056 -224 m 917 -157 l 611 -157 l 611 -53 l 917 -53 l 917 -157 z "},"뀨":{"ha":1250,"x_min":56,"x_max":1194,"o":"m 958 544 l 958 1031 l 250 1031 l 250 899 l 458 899 l 458 544 l 597 544 l 597 899 l 819 899 l 819 544 l 958 544 m 542 -25 l 542 301 l 708 301 l 708 -25 l 847 -25 l 847 301 l 1194 301 l 1194 433 l 56 433 l 56 301 l 403 301 l 403 -25 l 542 -25 z "},"끄":{"ha":1250,"x_min":56,"x_max":1194,"o":"m 958 489 l 958 1031 l 250 1031 l 250 899 l 458 899 l 458 489 l 597 489 l 597 899 l 819 899 l 819 489 l 958 489 m 1194 190 l 1194 322 l 56 322 l 56 190 l 1194 190 z "},"끅":{"ha":1250,"x_min":56,"x_max":1194,"o":"m 944 586 l 944 1031 l 264 1031 l 264 899 l 472 899 l 472 586 l 611 586 l 611 899 l 806 899 l 806 586 l 944 586 m 1194 343 l 1194 475 l 56 475 l 56 343 l 1194 343 m 917 -275 l 917 169 l 319 169 l 319 38 l 778 38 l 778 -275 l 917 -275 z "},"끈":{"ha":1250,"x_min":56,"x_max":1194,"o":"m 944 572 l 944 1031 l 264 1031 l 264 899 l 472 899 l 472 572 l 611 572 l 611 899 l 806 899 l 806 572 l 944 572 m 1194 315 l 1194 447 l 56 447 l 56 315 l 1194 315 m 931 -275 l 931 -143 l 472 -143 l 472 128 l 333 128 l 333 -164 q 366 -242 333 -210 q 444 -275 399 -275 l 931 -275 z "},"끊":{"ha":1250,"x_min":56,"x_max":1194,"o":"m 944 586 l 944 1031 l 264 1031 l 264 899 l 472 899 l 472 586 l 611 586 l 611 899 l 806 899 l 806 586 l 944 586 m 1194 343 l 1194 475 l 56 475 l 56 343 l 1194 343 m 1025 -68 q 1006 24 1025 -19 l 1069 24 l 1069 156 l 882 156 l 882 267 l 743 267 l 743 156 l 556 156 l 556 24 l 619 24 q 600 -68 600 -19 q 617 -153 600 -112 q 664 -223 635 -193 q 732 -270 693 -253 q 813 -287 771 -287 q 894 -269 856 -287 q 961 -222 932 -251 q 1008 -152 990 -192 q 1025 -68 1025 -112 m 886 -68 q 863 -132 886 -106 q 813 -158 840 -158 q 762 -132 785 -158 q 739 -68 739 -106 q 762 -4 739 -31 q 813 22 785 22 q 863 -4 840 22 q 886 -68 886 -31 m 611 -275 l 611 -143 l 417 -143 l 417 169 l 278 169 l 278 -164 q 310 -242 278 -210 q 389 -275 343 -275 l 611 -275 z "},"끌":{"ha":1250,"x_min":56,"x_max":1194,"o":"m 944 614 l 944 1031 l 264 1031 l 264 899 l 472 899 l 472 614 l 611 614 l 611 899 l 806 899 l 806 614 l 944 614 m 1194 371 l 1194 503 l 56 503 l 56 371 l 1194 371 m 931 -303 l 931 -178 l 472 -178 l 472 -85 l 917 -85 l 917 253 l 333 253 l 333 128 l 778 128 l 778 36 l 333 36 l 333 -192 q 366 -270 333 -237 q 444 -303 399 -303 l 931 -303 z "},"끎":{"ha":1250,"x_min":56,"x_max":1194,"o":"m 944 614 l 944 1031 l 264 1031 l 264 899 l 472 899 l 472 614 l 611 614 l 611 899 l 806 899 l 806 614 l 944 614 m 1194 371 l 1194 503 l 56 503 l 56 371 l 1194 371 m 1014 -192 l 1014 253 l 639 253 l 639 -192 q 672 -270 639 -237 q 750 -303 704 -303 l 903 -303 q 981 -270 949 -303 q 1014 -192 1014 -237 m 875 -171 l 778 -171 l 778 121 l 875 121 l 875 -171 m 597 -303 l 597 -178 l 375 -178 l 375 -85 l 583 -85 l 583 253 l 236 253 l 236 128 l 444 128 l 444 36 l 236 36 l 236 -192 q 269 -270 236 -237 q 347 -303 301 -303 l 597 -303 z "},"끓":{"ha":1250,"x_min":56,"x_max":1194,"o":"m 944 614 l 944 1031 l 264 1031 l 264 899 l 472 899 l 472 614 l 611 614 l 611 899 l 806 899 l 806 614 l 944 614 m 1194 371 l 1194 503 l 56 503 l 56 371 l 1194 371 m 597 -289 l 597 -164 l 375 -164 l 375 -85 l 583 -85 l 583 58 l 640 58 q 614 -58 614 3 q 631 -154 614 -110 q 678 -232 649 -199 q 747 -284 708 -265 q 826 -303 785 -303 q 907 -283 868 -303 q 975 -231 946 -264 q 1022 -153 1004 -197 q 1039 -58 1039 -108 q 1013 58 1039 3 l 1083 58 l 1083 190 l 896 190 l 896 281 l 757 281 l 757 190 l 583 190 l 583 253 l 236 253 l 236 128 l 444 128 l 444 36 l 236 36 l 236 -178 q 269 -256 236 -224 q 347 -289 301 -289 l 597 -289 m 900 -58 q 894 -103 900 -82 q 877 -140 888 -124 q 853 -165 867 -156 q 826 -174 840 -174 q 799 -165 813 -174 q 776 -140 786 -156 q 759 -103 765 -124 q 753 -58 753 -82 q 776 24 753 -10 q 826 57 799 57 q 877 24 854 57 q 900 -58 900 -10 z "},"끔":{"ha":1250,"x_min":56,"x_max":1194,"o":"m 944 586 l 944 1031 l 264 1031 l 264 899 l 472 899 l 472 586 l 611 586 l 611 899 l 806 899 l 806 586 l 944 586 m 1194 343 l 1194 475 l 56 475 l 56 343 l 1194 343 m 917 -164 l 917 197 l 333 197 l 333 -164 q 366 -242 333 -210 q 444 -275 399 -275 l 806 -275 q 884 -242 851 -275 q 917 -164 917 -210 m 778 -143 l 472 -143 l 472 65 l 778 65 l 778 -143 z "},"끕":{"ha":1250,"x_min":56,"x_max":1194,"o":"m 944 586 l 944 1031 l 264 1031 l 264 899 l 472 899 l 472 586 l 611 586 l 611 899 l 806 899 l 806 586 l 944 586 m 1194 343 l 1194 475 l 56 475 l 56 343 l 1194 343 m 917 -178 l 917 232 l 778 232 l 778 107 l 472 107 l 472 232 l 333 232 l 333 -178 q 366 -256 333 -224 q 444 -289 399 -289 l 806 -289 q 884 -256 851 -289 q 917 -178 917 -224 m 778 -157 l 472 -157 l 472 -25 l 778 -25 l 778 -157 z "},"끗":{"ha":1250,"x_min":56,"x_max":1194,"o":"m 944 586 l 944 1031 l 264 1031 l 264 899 l 472 899 l 472 586 l 611 586 l 611 899 l 806 899 l 806 586 l 944 586 m 1194 343 l 1194 475 l 56 475 l 56 343 l 1194 343 m 988 -204 l 625 225 l 263 -204 l 371 -289 l 625 15 l 879 -289 l 988 -204 z "},"끙":{"ha":1250,"x_min":56,"x_max":1194,"o":"m 944 586 l 944 1031 l 264 1031 l 264 899 l 472 899 l 472 586 l 611 586 l 611 899 l 806 899 l 806 586 l 944 586 m 1194 343 l 1194 475 l 56 475 l 56 343 l 1194 343 m 901 -50 q 879 48 901 1 q 819 128 857 94 q 731 183 781 163 q 625 203 681 203 q 518 183 568 203 q 431 129 468 164 q 371 49 393 94 q 349 -50 349 3 q 371 -149 349 -103 q 431 -229 393 -194 q 518 -283 468 -264 q 625 -303 568 -303 q 731 -283 681 -303 q 819 -228 781 -262 q 879 -149 857 -194 q 901 -50 901 -103 m 763 -50 q 723 -139 763 -104 q 625 -174 683 -174 q 572 -165 597 -174 q 528 -139 547 -156 q 499 -100 510 -122 q 488 -50 488 -78 q 499 -1 488 -24 q 528 39 510 22 q 572 65 547 56 q 625 74 597 74 q 723 39 683 74 q 763 -50 763 4 z "},"끝":{"ha":1250,"x_min":56,"x_max":1194,"o":"m 944 586 l 944 1031 l 264 1031 l 264 899 l 472 899 l 472 586 l 611 586 l 611 899 l 806 899 l 806 586 l 944 586 m 1194 343 l 1194 475 l 56 475 l 56 343 l 1194 343 m 917 -303 l 917 -178 l 472 -178 l 472 -99 l 903 -99 l 903 22 l 472 22 l 472 100 l 917 100 l 917 225 l 333 225 l 333 -192 q 366 -270 333 -237 q 444 -303 399 -303 l 917 -303 z "},"끼":{"ha":1250,"x_min":160,"x_max":1056,"o":"m 1056 44 l 1056 1058 l 917 1058 l 917 44 l 1056 44 m 503 899 l 633 899 l 426 454 l 550 400 l 814 972 l 719 1031 l 389 1031 l 167 1031 l 167 899 l 356 899 l 160 479 l 283 425 l 503 899 z "},"끽":{"ha":1250,"x_min":158,"x_max":1056,"o":"m 500 899 l 625 899 l 424 522 l 543 463 l 818 974 l 718 1031 l 389 1031 l 167 1031 l 167 899 l 347 899 l 158 546 l 278 486 l 500 899 m 1056 -275 l 1056 239 l 1056 1058 l 917 1058 l 917 239 l 458 239 l 458 107 l 917 107 l 917 -275 l 1056 -275 z "},"낀":{"ha":1250,"x_min":158,"x_max":1069,"o":"m 1056 183 l 1056 1058 l 917 1058 l 917 183 l 1056 183 m 500 899 l 625 899 l 424 522 l 543 463 l 818 974 l 718 1031 l 389 1031 l 167 1031 l 167 899 l 347 899 l 158 546 l 278 486 l 500 899 m 1069 -275 l 1069 -143 l 611 -143 l 611 183 l 472 183 l 472 -164 q 505 -242 472 -210 q 583 -275 538 -275 l 1069 -275 z "},"낄":{"ha":1250,"x_min":158,"x_max":1069,"o":"m 500 899 l 625 899 l 424 522 l 543 463 l 818 974 l 718 1031 l 389 1031 l 167 1031 l 167 899 l 347 899 l 158 546 l 278 486 l 500 899 m 1069 -303 l 1069 -178 l 611 -178 l 611 -85 l 1056 -85 l 1056 253 l 1056 1058 l 917 1058 l 917 253 l 472 253 l 472 128 l 917 128 l 917 36 l 472 36 l 472 -192 q 505 -270 472 -237 q 583 -303 538 -303 l 1069 -303 z "},"낌":{"ha":1250,"x_min":158,"x_max":1056,"o":"m 500 899 l 625 899 l 424 522 l 543 463 l 818 974 l 718 1031 l 389 1031 l 167 1031 l 167 899 l 347 899 l 158 546 l 278 486 l 500 899 m 1056 -164 l 1056 239 l 1056 1058 l 917 1058 l 917 239 l 472 239 l 472 -164 q 505 -242 472 -210 q 583 -275 538 -275 l 944 -275 q 1023 -242 990 -275 q 1056 -164 1056 -210 m 917 -143 l 611 -143 l 611 107 l 917 107 l 917 -143 z "},"낍":{"ha":1250,"x_min":158,"x_max":1056,"o":"m 500 899 l 625 899 l 424 522 l 543 463 l 818 974 l 718 1031 l 389 1031 l 167 1031 l 167 899 l 347 899 l 158 546 l 278 486 l 500 899 m 1056 -171 l 1056 239 l 1056 1058 l 917 1058 l 917 183 l 917 114 l 611 114 l 611 239 l 472 239 l 472 -171 q 505 -249 472 -217 q 583 -282 538 -282 l 944 -282 q 1023 -249 990 -282 q 1056 -171 1056 -217 m 917 -150 l 611 -150 l 611 -18 l 917 -18 l 917 -150 z "},"낏":{"ha":1250,"x_min":158,"x_max":1099,"o":"m 1056 183 l 1056 1058 l 917 1058 l 917 183 l 1056 183 m 500 899 l 625 899 l 424 522 l 543 463 l 818 974 l 718 1031 l 389 1031 l 167 1031 l 167 899 l 347 899 l 158 546 l 278 486 l 500 899 m 1099 -204 l 736 225 l 374 -204 l 482 -289 l 736 15 l 990 -289 l 1099 -204 z "},"낑":{"ha":1250,"x_min":158,"x_max":1056,"o":"m 1056 -37 l 1056 1058 l 917 1058 l 917 192 q 779 228 856 228 q 672 207 722 228 q 585 150 622 186 q 525 66 547 114 q 503 -37 503 18 q 525 -141 503 -93 q 585 -225 547 -189 q 672 -282 622 -261 q 779 -303 722 -303 q 885 -282 835 -303 q 974 -225 936 -261 q 1033 -140 1011 -189 q 1056 -37 1056 -92 m 917 -37 q 877 -135 917 -97 q 779 -174 838 -174 q 683 -135 724 -174 q 642 -37 642 -97 q 683 62 642 25 q 779 99 724 99 q 877 62 838 99 q 917 -37 917 25 m 500 899 l 625 899 l 424 522 l 543 463 l 818 974 l 718 1031 l 389 1031 l 167 1031 l 167 899 l 347 899 l 158 546 l 278 486 l 500 899 z "},"나":{"ha":1250,"x_min":153,"x_max":1181,"o":"m 1181 656 l 1181 788 l 1000 788 l 1000 1058 l 861 1058 l 861 44 l 1000 44 l 1000 656 l 1181 656 m 653 433 l 653 565 l 292 565 l 292 1031 l 153 1031 l 153 544 q 185 466 153 499 q 264 433 218 433 l 653 433 z "},"낙":{"ha":1250,"x_min":153,"x_max":1181,"o":"m 653 489 l 653 621 l 292 621 l 292 1031 l 153 1031 l 153 600 q 185 522 153 554 q 264 489 218 489 l 653 489 m 1000 -275 l 1000 239 l 1000 697 l 1181 697 l 1181 829 l 1000 829 l 1000 1058 l 861 1058 l 861 239 l 403 239 l 403 107 l 861 107 l 861 -275 l 1000 -275 z "},"낚":{"ha":1250,"x_min":153,"x_max":1181,"o":"m 653 489 l 653 621 l 292 621 l 292 1031 l 153 1031 l 153 600 q 185 522 153 554 q 264 489 218 489 l 653 489 m 1000 -275 l 1000 239 l 1000 697 l 1181 697 l 1181 829 l 1000 829 l 1000 1058 l 861 1058 l 861 239 l 319 239 l 319 107 l 528 107 l 528 -275 l 667 -275 l 667 107 l 861 107 l 861 -275 l 1000 -275 z "},"난":{"ha":1250,"x_min":153,"x_max":1181,"o":"m 1181 697 l 1181 829 l 1000 829 l 1000 1058 l 861 1058 l 861 183 l 1000 183 l 1000 697 l 1181 697 m 653 489 l 653 621 l 292 621 l 292 1031 l 153 1031 l 153 600 q 185 522 153 554 q 264 489 218 489 l 653 489 m 1014 -275 l 1014 -143 l 556 -143 l 556 183 l 417 183 l 417 -164 q 449 -242 417 -210 q 528 -275 482 -275 l 1014 -275 z "},"낟":{"ha":1250,"x_min":153,"x_max":1181,"o":"m 653 489 l 653 621 l 292 621 l 292 1031 l 153 1031 l 153 600 q 185 522 153 554 q 264 489 218 489 l 653 489 m 1014 -275 l 1014 -143 l 556 -143 l 556 107 l 1000 107 l 1000 239 l 1000 697 l 1181 697 l 1181 829 l 1000 829 l 1000 1058 l 861 1058 l 861 239 l 417 239 l 417 -164 q 449 -242 417 -210 q 528 -275 482 -275 l 1014 -275 z "},"날":{"ha":1250,"x_min":153,"x_max":1181,"o":"m 653 489 l 653 621 l 292 621 l 292 1031 l 153 1031 l 153 600 q 185 522 153 554 q 264 489 218 489 l 653 489 m 1014 -303 l 1014 -178 l 556 -178 l 556 -85 l 1000 -85 l 1000 253 l 1000 697 l 1181 697 l 1181 829 l 1000 829 l 1000 1058 l 861 1058 l 861 253 l 417 253 l 417 128 l 861 128 l 861 36 l 417 36 l 417 -192 q 449 -270 417 -237 q 528 -303 482 -303 l 1014 -303 z "},"낡":{"ha":1250,"x_min":153,"x_max":1181,"o":"m 653 489 l 653 621 l 292 621 l 292 1031 l 153 1031 l 153 600 q 185 522 153 554 q 264 489 218 489 l 653 489 m 681 -289 l 681 -164 l 431 -164 l 431 -78 l 667 -78 l 667 121 l 861 121 l 861 -289 l 1000 -289 l 1000 253 l 1000 697 l 1181 697 l 1181 829 l 1000 829 l 1000 1058 l 861 1058 l 861 253 l 611 253 l 292 253 l 292 128 l 528 128 l 528 43 l 292 43 l 292 -178 q 324 -256 292 -224 q 403 -289 357 -289 l 681 -289 z "},"낢":{"ha":1250,"x_min":153,"x_max":1181,"o":"m 653 489 l 653 621 l 292 621 l 292 1031 l 153 1031 l 153 600 q 185 522 153 554 q 264 489 218 489 l 653 489 m 1000 -178 l 1000 253 l 1000 697 l 1181 697 l 1181 829 l 1000 829 l 1000 1058 l 861 1058 l 861 253 l 625 253 l 625 -178 q 658 -256 625 -224 q 736 -289 690 -289 l 889 -289 q 967 -256 935 -289 q 1000 -178 1000 -224 m 861 -157 l 764 -157 l 764 121 l 861 121 l 861 -157 m 583 -289 l 583 -164 l 361 -164 l 361 -78 l 569 -78 l 569 253 l 222 253 l 222 128 l 431 128 l 431 43 l 222 43 l 222 -178 q 255 -256 222 -224 q 333 -289 288 -289 l 583 -289 z "},"남":{"ha":1250,"x_min":153,"x_max":1181,"o":"m 653 489 l 653 621 l 292 621 l 292 1031 l 153 1031 l 153 600 q 185 522 153 554 q 264 489 218 489 l 653 489 m 1000 -164 l 1000 239 l 1000 697 l 1181 697 l 1181 829 l 1000 829 l 1000 1058 l 861 1058 l 861 239 l 417 239 l 417 -164 q 449 -242 417 -210 q 528 -275 482 -275 l 889 -275 q 967 -242 935 -275 q 1000 -164 1000 -210 m 861 -143 l 556 -143 l 556 107 l 861 107 l 861 -143 z "},"납":{"ha":1250,"x_min":153,"x_max":1181,"o":"m 653 489 l 653 621 l 292 621 l 292 1031 l 153 1031 l 153 600 q 185 522 153 554 q 264 489 218 489 l 653 489 m 1000 -171 l 1000 239 l 1000 697 l 1181 697 l 1181 829 l 1000 829 l 1000 1058 l 861 1058 l 861 183 l 861 114 l 556 114 l 556 239 l 417 239 l 417 -171 q 449 -249 417 -217 q 528 -282 482 -282 l 889 -282 q 967 -249 935 -282 q 1000 -171 1000 -217 m 861 -150 l 556 -150 l 556 -18 l 861 -18 l 861 -150 z "},"낫":{"ha":1250,"x_min":153,"x_max":1181,"o":"m 1181 697 l 1181 829 l 1000 829 l 1000 1058 l 861 1058 l 861 183 l 1000 183 l 1000 697 l 1181 697 m 653 489 l 653 621 l 292 621 l 292 1031 l 153 1031 l 153 600 q 185 522 153 554 q 264 489 218 489 l 653 489 m 1043 -204 l 681 225 l 318 -204 l 426 -289 l 681 15 l 935 -289 l 1043 -204 z "},"났":{"ha":1250,"x_min":153,"x_max":1181,"o":"m 1181 697 l 1181 829 l 1000 829 l 1000 1058 l 861 1058 l 861 183 l 1000 183 l 1000 697 l 1181 697 m 653 489 l 653 621 l 292 621 l 292 1031 l 153 1031 l 153 600 q 185 522 153 554 q 264 489 218 489 l 653 489 m 1043 -236 l 810 239 l 639 -43 l 469 239 l 236 -236 l 358 -289 l 482 -36 l 639 -275 l 797 -36 l 921 -289 l 1043 -236 z "},"낭":{"ha":1250,"x_min":153,"x_max":1181,"o":"m 1181 697 l 1181 829 l 1000 829 l 1000 1058 l 861 1058 l 861 192 q 724 228 800 228 q 617 207 667 228 q 529 150 567 186 q 469 66 492 114 q 447 -37 447 18 q 469 -141 447 -93 q 529 -225 492 -189 q 617 -282 567 -261 q 724 -303 667 -303 q 830 -282 779 -303 q 918 -225 881 -261 q 978 -140 956 -189 q 1000 -37 1000 -92 l 1000 697 l 1181 697 m 861 -37 q 822 -135 861 -97 q 724 -174 782 -174 q 627 -135 668 -174 q 586 -37 586 -97 q 627 62 586 25 q 724 99 668 99 q 822 62 782 99 q 861 -37 861 25 m 653 489 l 653 621 l 292 621 l 292 1031 l 153 1031 l 153 600 q 185 522 153 554 q 264 489 218 489 l 653 489 z "},"낮":{"ha":1250,"x_min":153,"x_max":1181,"o":"m 653 489 l 653 621 l 292 621 l 292 1031 l 153 1031 l 153 600 q 185 522 153 554 q 264 489 218 489 l 653 489 m 1063 -204 l 804 107 l 1000 107 l 1000 239 l 1000 697 l 1181 697 l 1181 829 l 1000 829 l 1000 1058 l 861 1058 l 861 239 l 417 239 l 417 107 l 613 107 l 354 -204 l 460 -289 l 708 13 l 957 -289 l 1063 -204 z "},"낯":{"ha":1250,"x_min":153,"x_max":1181,"o":"m 653 489 l 653 621 l 292 621 l 292 1031 l 153 1031 l 153 600 q 185 522 153 554 q 264 489 218 489 l 653 489 m 1063 -194 l 804 79 l 1000 79 l 1000 211 l 1000 697 l 1181 697 l 1181 829 l 1000 829 l 1000 1058 l 861 1058 l 861 211 l 778 211 l 778 322 l 639 322 l 639 211 l 417 211 l 417 79 l 613 79 l 354 -194 l 454 -289 l 708 -12 l 963 -289 l 1063 -194 z "},"낱":{"ha":1250,"x_min":153,"x_max":1181,"o":"m 653 489 l 653 621 l 292 621 l 292 1031 l 153 1031 l 153 600 q 185 522 153 554 q 264 489 218 489 l 653 489 m 1000 -289 l 1000 -164 l 556 -164 l 556 -85 l 986 -85 l 986 36 l 556 36 l 556 114 l 1000 114 l 1000 239 l 1000 697 l 1181 697 l 1181 829 l 1000 829 l 1000 1058 l 861 1058 l 861 239 l 417 239 l 417 -178 q 449 -256 417 -224 q 528 -289 482 -289 l 1000 -289 z "},"낳":{"ha":1250,"x_min":153,"x_max":1181,"o":"m 653 489 l 653 621 l 292 621 l 292 1031 l 153 1031 l 153 600 q 185 522 153 554 q 264 489 218 489 l 653 489 m 919 -54 q 879 79 919 19 l 1000 79 l 1000 211 l 1000 697 l 1181 697 l 1181 829 l 1000 829 l 1000 1058 l 861 1058 l 861 211 l 729 211 l 729 322 l 590 322 l 590 211 l 319 211 l 319 79 l 440 79 q 411 16 422 50 q 400 -54 400 -18 q 421 -151 400 -106 q 477 -230 442 -196 q 560 -283 513 -264 q 660 -303 607 -303 q 758 -283 711 -303 q 842 -230 806 -264 q 899 -151 878 -196 q 919 -54 919 -106 m 781 -54 q 745 -140 781 -106 q 660 -174 710 -174 q 574 -140 610 -174 q 539 -54 539 -106 q 574 32 539 -1 q 660 65 610 65 q 745 32 710 65 q 781 -54 781 -1 z "},"내":{"ha":1250,"x_min":153,"x_max":1069,"o":"m 1069 44 l 1069 1058 l 931 1058 l 931 801 l 824 801 l 824 1058 l 688 1058 l 688 44 l 824 44 l 824 669 l 931 669 l 931 44 l 1069 44 m 569 433 l 569 565 l 292 565 l 292 1031 l 153 1031 l 153 544 q 185 466 153 499 q 264 433 218 433 l 569 433 z "},"낵":{"ha":1250,"x_min":153,"x_max":1069,"o":"m 569 489 l 569 621 l 292 621 l 292 1031 l 153 1031 l 153 600 q 185 522 153 554 q 264 489 218 489 l 569 489 m 1069 -275 l 1069 239 l 1069 1058 l 931 1058 l 931 829 l 824 829 l 824 1058 l 688 1058 l 688 350 l 824 350 l 824 697 l 931 697 l 931 239 l 472 239 l 472 107 l 931 107 l 931 -275 l 1069 -275 z "},"낸":{"ha":1250,"x_min":153,"x_max":1083,"o":"m 1069 183 l 1069 1058 l 931 1058 l 931 829 l 824 829 l 824 1058 l 688 1058 l 688 183 l 824 183 l 824 697 l 931 697 l 931 183 l 1069 183 m 569 489 l 569 621 l 292 621 l 292 1031 l 153 1031 l 153 600 q 185 522 153 554 q 264 489 218 489 l 569 489 m 1083 -275 l 1083 -143 l 625 -143 l 625 183 l 486 183 l 486 -164 q 519 -242 486 -210 q 597 -275 551 -275 l 1083 -275 z "},"낼":{"ha":1250,"x_min":153,"x_max":1083,"o":"m 569 489 l 569 621 l 292 621 l 292 1031 l 153 1031 l 153 600 q 185 522 153 554 q 264 489 218 489 l 569 489 m 1083 -303 l 1083 -178 l 625 -178 l 625 -85 l 1069 -85 l 1069 253 l 1069 1058 l 931 1058 l 931 829 l 824 829 l 824 1058 l 688 1058 l 688 350 l 824 350 l 824 697 l 931 697 l 931 253 l 486 253 l 486 128 l 931 128 l 931 36 l 486 36 l 486 -192 q 519 -270 486 -237 q 597 -303 551 -303 l 1083 -303 z "},"냄":{"ha":1250,"x_min":153,"x_max":1069,"o":"m 569 489 l 569 621 l 292 621 l 292 1031 l 153 1031 l 153 600 q 185 522 153 554 q 264 489 218 489 l 569 489 m 1069 -164 l 1069 239 l 1069 1058 l 931 1058 l 931 829 l 824 829 l 824 1058 l 688 1058 l 688 350 l 824 350 l 824 697 l 931 697 l 931 239 l 486 239 l 486 -164 q 519 -242 486 -210 q 597 -275 551 -275 l 958 -275 q 1037 -242 1004 -275 q 1069 -164 1069 -210 m 931 -143 l 625 -143 l 625 107 l 931 107 l 931 -143 z "},"냅":{"ha":1250,"x_min":153,"x_max":1069,"o":"m 569 489 l 569 621 l 292 621 l 292 1031 l 153 1031 l 153 600 q 185 522 153 554 q 264 489 218 489 l 569 489 m 1069 -171 l 1069 239 l 1069 1058 l 931 1058 l 931 829 l 824 829 l 824 1058 l 688 1058 l 688 350 l 824 350 l 824 697 l 931 697 l 931 183 l 931 114 l 625 114 l 625 239 l 486 239 l 486 -171 q 519 -249 486 -217 q 597 -282 551 -282 l 958 -282 q 1037 -249 1004 -282 q 1069 -171 1069 -217 m 931 -150 l 625 -150 l 625 -18 l 931 -18 l 931 -150 z "},"냇":{"ha":1250,"x_min":153,"x_max":1113,"o":"m 1069 183 l 1069 1058 l 931 1058 l 931 829 l 824 829 l 824 1058 l 688 1058 l 688 350 l 824 350 l 824 697 l 931 697 l 931 183 l 1069 183 m 569 489 l 569 621 l 292 621 l 292 1031 l 153 1031 l 153 600 q 185 522 153 554 q 264 489 218 489 l 569 489 m 1113 -204 l 750 225 l 388 -204 l 496 -289 l 750 15 l 1004 -289 l 1113 -204 z "},"냈":{"ha":1250,"x_min":153,"x_max":1113,"o":"m 1069 183 l 1069 1058 l 931 1058 l 931 829 l 824 829 l 824 1058 l 688 1058 l 688 350 l 824 350 l 824 697 l 931 697 l 931 183 l 1069 183 m 569 489 l 569 621 l 292 621 l 292 1031 l 153 1031 l 153 600 q 185 522 153 554 q 264 489 218 489 l 569 489 m 1113 -236 l 879 239 l 708 -43 l 539 239 l 306 -236 l 428 -289 l 551 -36 l 708 -275 l 867 -36 l 990 -289 l 1113 -236 z "},"냉":{"ha":1250,"x_min":153,"x_max":1069,"o":"m 1069 -37 l 1069 1058 l 931 1058 l 931 829 l 824 829 l 824 1058 l 688 1058 l 688 350 l 824 350 l 824 697 l 931 697 l 931 192 q 793 228 869 228 q 686 207 736 228 q 599 150 636 186 q 539 66 561 114 q 517 -37 517 18 q 539 -141 517 -93 q 599 -225 561 -189 q 686 -282 636 -261 q 793 -303 736 -303 q 899 -282 849 -303 q 988 -225 950 -261 q 1047 -140 1025 -189 q 1069 -37 1069 -92 m 931 -37 q 891 -135 931 -97 q 793 -174 851 -174 q 697 -135 738 -174 q 656 -37 656 -97 q 697 62 656 25 q 793 99 738 99 q 891 62 851 99 q 931 -37 931 25 m 569 489 l 569 621 l 292 621 l 292 1031 l 153 1031 l 153 600 q 185 522 153 554 q 264 489 218 489 l 569 489 z "},"냐":{"ha":1250,"x_min":153,"x_max":1181,"o":"m 1181 538 l 1181 669 l 1000 669 l 1000 788 l 1181 788 l 1181 919 l 1000 919 l 1000 1058 l 861 1058 l 861 44 l 1000 44 l 1000 538 l 1181 538 m 653 433 l 653 565 l 292 565 l 292 1031 l 153 1031 l 153 544 q 185 466 153 499 q 264 433 218 433 l 653 433 z "},"냑":{"ha":1250,"x_min":153,"x_max":1181,"o":"m 653 489 l 653 621 l 292 621 l 292 1031 l 153 1031 l 153 600 q 185 522 153 554 q 264 489 218 489 l 653 489 m 1000 -275 l 1000 239 l 1000 579 l 1181 579 l 1181 711 l 1000 711 l 1000 815 l 1181 815 l 1181 947 l 1000 947 l 1000 1058 l 861 1058 l 861 239 l 403 239 l 403 107 l 861 107 l 861 -275 l 1000 -275 z "},"냔":{"ha":1250,"x_min":153,"x_max":1181,"o":"m 1181 579 l 1181 711 l 1000 711 l 1000 815 l 1181 815 l 1181 947 l 1000 947 l 1000 1058 l 861 1058 l 861 183 l 1000 183 l 1000 579 l 1181 579 m 653 489 l 653 621 l 292 621 l 292 1031 l 153 1031 l 153 600 q 185 522 153 554 q 264 489 218 489 l 653 489 m 1014 -275 l 1014 -143 l 556 -143 l 556 183 l 417 183 l 417 -164 q 449 -242 417 -210 q 528 -275 482 -275 l 1014 -275 z "},"냘":{"ha":1250,"x_min":153,"x_max":1181,"o":"m 653 489 l 653 621 l 292 621 l 292 1031 l 153 1031 l 153 600 q 185 522 153 554 q 264 489 218 489 l 653 489 m 1014 -303 l 1014 -178 l 556 -178 l 556 -85 l 1000 -85 l 1000 253 l 1000 579 l 1181 579 l 1181 711 l 1000 711 l 1000 815 l 1181 815 l 1181 947 l 1000 947 l 1000 1058 l 861 1058 l 861 253 l 417 253 l 417 128 l 861 128 l 861 36 l 417 36 l 417 -192 q 449 -270 417 -237 q 528 -303 482 -303 l 1014 -303 z "},"냠":{"ha":1250,"x_min":153,"x_max":1181,"o":"m 653 489 l 653 621 l 292 621 l 292 1031 l 153 1031 l 153 600 q 185 522 153 554 q 264 489 218 489 l 653 489 m 1000 -164 l 1000 239 l 1000 579 l 1181 579 l 1181 711 l 1000 711 l 1000 815 l 1181 815 l 1181 947 l 1000 947 l 1000 1058 l 861 1058 l 861 239 l 417 239 l 417 -164 q 449 -242 417 -210 q 528 -275 482 -275 l 889 -275 q 967 -242 935 -275 q 1000 -164 1000 -210 m 861 -143 l 556 -143 l 556 107 l 861 107 l 861 -143 z "},"냥":{"ha":1250,"x_min":153,"x_max":1181,"o":"m 1181 579 l 1181 711 l 1000 711 l 1000 815 l 1181 815 l 1181 947 l 1000 947 l 1000 1058 l 861 1058 l 861 192 q 724 228 800 228 q 617 207 667 228 q 529 150 567 186 q 469 66 492 114 q 447 -37 447 18 q 469 -141 447 -93 q 529 -225 492 -189 q 617 -282 567 -261 q 724 -303 667 -303 q 830 -282 779 -303 q 918 -225 881 -261 q 978 -140 956 -189 q 1000 -37 1000 -92 l 1000 579 l 1181 579 m 861 -37 q 822 -135 861 -97 q 724 -174 782 -174 q 627 -135 668 -174 q 586 -37 586 -97 q 627 62 586 25 q 724 99 668 99 q 822 62 782 99 q 861 -37 861 25 m 653 489 l 653 621 l 292 621 l 292 1031 l 153 1031 l 153 600 q 185 522 153 554 q 264 489 218 489 l 653 489 z "},"너":{"ha":1250,"x_min":181,"x_max":1028,"o":"m 1028 44 l 1028 1058 l 889 1058 l 889 857 l 611 857 l 611 725 l 889 725 l 889 44 l 1028 44 m 681 433 l 681 565 l 319 565 l 319 1031 l 181 1031 l 181 544 q 213 466 181 499 q 292 433 246 433 l 681 433 z "},"넉":{"ha":1250,"x_min":181,"x_max":1028,"o":"m 681 489 l 681 621 l 319 621 l 319 1031 l 181 1031 l 181 600 q 213 522 181 554 q 292 489 246 489 l 681 489 m 1028 -275 l 1028 239 l 1028 1058 l 889 1058 l 889 885 l 611 885 l 611 753 l 889 753 l 889 239 l 431 239 l 431 107 l 889 107 l 889 -275 l 1028 -275 z "},"넋":{"ha":1250,"x_min":181,"x_max":1096,"o":"m 1028 183 l 1028 1058 l 889 1058 l 889 885 l 611 885 l 611 753 l 889 753 l 889 183 l 1028 183 m 681 489 l 681 621 l 319 621 l 319 1031 l 181 1031 l 181 600 q 213 522 181 554 q 292 489 246 489 l 681 489 m 653 -275 l 653 -225 l 754 -289 l 868 -101 l 982 -289 l 1096 -217 l 868 156 l 653 -196 l 653 239 l 306 239 l 306 107 l 514 107 l 514 -275 l 653 -275 z "},"넌":{"ha":1250,"x_min":181,"x_max":1042,"o":"m 1028 183 l 1028 1058 l 889 1058 l 889 885 l 611 885 l 611 753 l 889 753 l 889 183 l 1028 183 m 681 489 l 681 621 l 319 621 l 319 1031 l 181 1031 l 181 600 q 213 522 181 554 q 292 489 246 489 l 681 489 m 1042 -275 l 1042 -143 l 583 -143 l 583 183 l 444 183 l 444 -164 q 477 -242 444 -210 q 556 -275 510 -275 l 1042 -275 z "},"널":{"ha":1250,"x_min":181,"x_max":1042,"o":"m 681 489 l 681 621 l 319 621 l 319 1031 l 181 1031 l 181 600 q 213 522 181 554 q 292 489 246 489 l 681 489 m 1042 -303 l 1042 -178 l 583 -178 l 583 -85 l 1028 -85 l 1028 253 l 1028 1058 l 889 1058 l 889 885 l 611 885 l 611 753 l 889 753 l 889 253 l 444 253 l 444 128 l 889 128 l 889 36 l 444 36 l 444 -192 q 477 -270 444 -237 q 556 -303 510 -303 l 1042 -303 z "},"넒":{"ha":1250,"x_min":181,"x_max":1028,"o":"m 681 489 l 681 621 l 319 621 l 319 1031 l 181 1031 l 181 600 q 213 522 181 554 q 292 489 246 489 l 681 489 m 1028 -178 l 1028 253 l 1028 1058 l 889 1058 l 889 885 l 611 885 l 611 753 l 889 753 l 889 253 l 653 253 l 653 -178 q 685 -256 653 -224 q 764 -289 718 -289 l 917 -289 q 995 -256 963 -289 q 1028 -178 1028 -224 m 889 -157 l 792 -157 l 792 121 l 889 121 l 889 -157 m 611 -289 l 611 -164 l 389 -164 l 389 -78 l 597 -78 l 597 253 l 250 253 l 250 128 l 458 128 l 458 43 l 250 43 l 250 -178 q 283 -256 250 -224 q 361 -289 315 -289 l 611 -289 z "},"넓":{"ha":1250,"x_min":181,"x_max":1028,"o":"m 681 489 l 681 621 l 319 621 l 319 1031 l 181 1031 l 181 600 q 213 522 181 554 q 292 489 246 489 l 681 489 m 1028 -178 l 1028 253 l 1028 1058 l 889 1058 l 889 885 l 611 885 l 611 753 l 889 753 l 889 183 l 889 114 l 792 114 l 792 253 l 653 253 l 653 -178 q 685 -256 653 -224 q 764 -289 718 -289 l 917 -289 q 995 -256 963 -289 q 1028 -178 1028 -224 m 889 -157 l 792 -157 l 792 -18 l 889 -18 l 889 -157 m 611 -289 l 611 -164 l 389 -164 l 389 -78 l 597 -78 l 597 253 l 250 253 l 250 128 l 458 128 l 458 43 l 250 43 l 250 -178 q 283 -256 250 -224 q 361 -289 315 -289 l 611 -289 z "},"넘":{"ha":1250,"x_min":181,"x_max":1028,"o":"m 681 489 l 681 621 l 319 621 l 319 1031 l 181 1031 l 181 600 q 213 522 181 554 q 292 489 246 489 l 681 489 m 1028 -164 l 1028 239 l 1028 1058 l 889 1058 l 889 885 l 611 885 l 611 753 l 889 753 l 889 239 l 444 239 l 444 -164 q 477 -242 444 -210 q 556 -275 510 -275 l 917 -275 q 995 -242 963 -275 q 1028 -164 1028 -210 m 889 -143 l 583 -143 l 583 107 l 889 107 l 889 -143 z "},"넙":{"ha":1250,"x_min":181,"x_max":1028,"o":"m 681 489 l 681 621 l 319 621 l 319 1031 l 181 1031 l 181 600 q 213 522 181 554 q 292 489 246 489 l 681 489 m 1028 -171 l 1028 239 l 1028 1058 l 889 1058 l 889 885 l 611 885 l 611 753 l 889 753 l 889 183 l 889 114 l 583 114 l 583 239 l 444 239 l 444 -171 q 477 -249 444 -217 q 556 -282 510 -282 l 917 -282 q 995 -249 963 -282 q 1028 -171 1028 -217 m 889 -150 l 583 -150 l 583 -18 l 889 -18 l 889 -150 z "},"넛":{"ha":1250,"x_min":181,"x_max":1071,"o":"m 1028 183 l 1028 1058 l 889 1058 l 889 885 l 611 885 l 611 753 l 889 753 l 889 183 l 1028 183 m 681 489 l 681 621 l 319 621 l 319 1031 l 181 1031 l 181 600 q 213 522 181 554 q 292 489 246 489 l 681 489 m 1071 -204 l 708 225 l 346 -204 l 454 -289 l 708 15 l 963 -289 l 1071 -204 z "},"넜":{"ha":1250,"x_min":181,"x_max":1071,"o":"m 1028 183 l 1028 1058 l 889 1058 l 889 885 l 611 885 l 611 753 l 889 753 l 889 183 l 1028 183 m 681 489 l 681 621 l 319 621 l 319 1031 l 181 1031 l 181 600 q 213 522 181 554 q 292 489 246 489 l 681 489 m 1071 -236 l 838 239 l 667 -43 l 497 239 l 264 -236 l 386 -289 l 510 -36 l 667 -275 l 825 -36 l 949 -289 l 1071 -236 z "},"넝":{"ha":1250,"x_min":181,"x_max":1028,"o":"m 681 489 l 681 621 l 319 621 l 319 1031 l 181 1031 l 181 600 q 213 522 181 554 q 292 489 246 489 l 681 489 m 1028 -37 l 1028 1058 l 889 1058 l 889 885 l 611 885 l 611 753 l 889 753 l 889 192 q 751 228 828 228 q 644 207 694 228 q 557 150 594 186 q 497 66 519 114 q 475 -37 475 18 q 497 -141 475 -93 q 557 -225 519 -189 q 644 -282 594 -261 q 751 -303 694 -303 q 858 -282 807 -303 q 946 -225 908 -261 q 1006 -140 983 -189 q 1028 -37 1028 -92 m 889 -37 q 849 -135 889 -97 q 751 -174 810 -174 q 655 -135 696 -174 q 614 -37 614 -97 q 655 62 614 25 q 751 99 696 99 q 849 62 810 99 q 889 -37 889 25 z "},"넣":{"ha":1250,"x_min":181,"x_max":1028,"o":"m 681 489 l 681 621 l 319 621 l 319 1031 l 181 1031 l 181 600 q 213 522 181 554 q 292 489 246 489 l 681 489 m 947 -54 q 907 79 947 19 l 1028 79 l 1028 211 l 1028 1058 l 889 1058 l 889 885 l 611 885 l 611 753 l 889 753 l 889 211 l 757 211 l 757 322 l 618 322 l 618 211 l 347 211 l 347 79 l 468 79 q 439 16 450 50 q 428 -54 428 -18 q 449 -151 428 -106 q 505 -230 469 -196 q 588 -283 540 -264 q 688 -303 635 -303 q 786 -283 739 -303 q 869 -230 833 -264 q 926 -151 906 -196 q 947 -54 947 -106 m 808 -54 q 773 -140 808 -106 q 688 -174 738 -174 q 602 -140 638 -174 q 567 -54 567 -106 q 602 32 567 -1 q 688 65 638 65 q 773 32 738 65 q 808 -54 808 -1 z "},"네":{"ha":1250,"x_min":153,"x_max":1069,"o":"m 1069 44 l 1069 1058 l 931 1058 l 931 44 l 1069 44 m 847 44 l 847 1058 l 711 1058 l 711 857 l 500 857 l 500 725 l 711 725 l 711 44 l 847 44 m 569 433 l 569 565 l 292 565 l 292 1031 l 153 1031 l 153 544 q 185 466 153 499 q 264 433 218 433 l 569 433 z "},"넥":{"ha":1250,"x_min":153,"x_max":1069,"o":"m 847 350 l 847 1058 l 711 1058 l 711 885 l 500 885 l 500 753 l 711 753 l 711 350 l 847 350 m 569 489 l 569 621 l 292 621 l 292 1031 l 153 1031 l 153 600 q 185 522 153 554 q 264 489 218 489 l 569 489 m 1069 -275 l 1069 239 l 1069 1058 l 931 1058 l 931 239 l 472 239 l 472 107 l 931 107 l 931 -275 l 1069 -275 z "},"넨":{"ha":1250,"x_min":153,"x_max":1083,"o":"m 1069 183 l 1069 1058 l 931 1058 l 931 183 l 1069 183 m 847 183 l 847 1058 l 711 1058 l 711 885 l 500 885 l 500 753 l 711 753 l 711 183 l 847 183 m 569 489 l 569 621 l 292 621 l 292 1031 l 153 1031 l 153 600 q 185 522 153 554 q 264 489 218 489 l 569 489 m 1083 -275 l 1083 -143 l 625 -143 l 625 183 l 486 183 l 486 -164 q 519 -242 486 -210 q 597 -275 551 -275 l 1083 -275 z "},"넬":{"ha":1250,"x_min":153,"x_max":1083,"o":"m 847 350 l 847 1058 l 711 1058 l 711 885 l 500 885 l 500 753 l 711 753 l 711 350 l 847 350 m 569 489 l 569 621 l 292 621 l 292 1031 l 153 1031 l 153 600 q 185 522 153 554 q 264 489 218 489 l 569 489 m 1083 -303 l 1083 -178 l 625 -178 l 625 -85 l 1069 -85 l 1069 253 l 1069 1058 l 931 1058 l 931 253 l 486 253 l 486 128 l 931 128 l 931 36 l 486 36 l 486 -192 q 519 -270 486 -237 q 597 -303 551 -303 l 1083 -303 z "},"넴":{"ha":1250,"x_min":153,"x_max":1069,"o":"m 847 350 l 847 1058 l 711 1058 l 711 885 l 500 885 l 500 753 l 711 753 l 711 350 l 847 350 m 569 489 l 569 621 l 292 621 l 292 1031 l 153 1031 l 153 600 q 185 522 153 554 q 264 489 218 489 l 569 489 m 1069 -164 l 1069 239 l 1069 1058 l 931 1058 l 931 239 l 486 239 l 486 -164 q 519 -242 486 -210 q 597 -275 551 -275 l 958 -275 q 1037 -242 1004 -275 q 1069 -164 1069 -210 m 931 -143 l 625 -143 l 625 107 l 931 107 l 931 -143 z "},"넵":{"ha":1250,"x_min":153,"x_max":1069,"o":"m 847 350 l 847 1058 l 711 1058 l 711 885 l 500 885 l 500 753 l 711 753 l 711 350 l 847 350 m 569 489 l 569 621 l 292 621 l 292 1031 l 153 1031 l 153 600 q 185 522 153 554 q 264 489 218 489 l 569 489 m 1069 -171 l 1069 239 l 1069 1058 l 931 1058 l 931 183 l 931 114 l 625 114 l 625 239 l 486 239 l 486 -171 q 519 -249 486 -217 q 597 -282 551 -282 l 958 -282 q 1037 -249 1004 -282 q 1069 -171 1069 -217 m 931 -150 l 625 -150 l 625 -18 l 931 -18 l 931 -150 z "},"넷":{"ha":1250,"x_min":153,"x_max":1113,"o":"m 1069 183 l 1069 1058 l 931 1058 l 931 183 l 1069 183 m 847 350 l 847 1058 l 711 1058 l 711 885 l 500 885 l 500 753 l 711 753 l 711 350 l 847 350 m 569 489 l 569 621 l 292 621 l 292 1031 l 153 1031 l 153 600 q 185 522 153 554 q 264 489 218 489 l 569 489 m 1113 -204 l 750 225 l 388 -204 l 496 -289 l 750 15 l 1004 -289 l 1113 -204 z "},"넸":{"ha":1250,"x_min":153,"x_max":1113,"o":"m 1069 183 l 1069 1058 l 931 1058 l 931 183 l 1069 183 m 847 350 l 847 1058 l 711 1058 l 711 885 l 500 885 l 500 753 l 711 753 l 711 350 l 847 350 m 569 489 l 569 621 l 292 621 l 292 1031 l 153 1031 l 153 600 q 185 522 153 554 q 264 489 218 489 l 569 489 m 1113 -236 l 879 239 l 708 -43 l 539 239 l 306 -236 l 428 -289 l 551 -36 l 708 -275 l 867 -36 l 990 -289 l 1113 -236 z "},"넹":{"ha":1250,"x_min":153,"x_max":1069,"o":"m 847 350 l 847 1058 l 711 1058 l 711 885 l 500 885 l 500 753 l 711 753 l 711 350 l 847 350 m 1069 -37 l 1069 1058 l 931 1058 l 931 192 q 793 228 869 228 q 686 207 736 228 q 599 150 636 186 q 539 66 561 114 q 517 -37 517 18 q 539 -141 517 -93 q 599 -225 561 -189 q 686 -282 636 -261 q 793 -303 736 -303 q 899 -282 849 -303 q 988 -225 950 -261 q 1047 -140 1025 -189 q 1069 -37 1069 -92 m 931 -37 q 891 -135 931 -97 q 793 -174 851 -174 q 697 -135 738 -174 q 656 -37 656 -97 q 697 62 656 25 q 793 99 738 99 q 891 62 851 99 q 931 -37 931 25 m 569 489 l 569 621 l 292 621 l 292 1031 l 153 1031 l 153 600 q 185 522 153 554 q 264 489 218 489 l 569 489 z "},"녀":{"ha":1250,"x_min":181,"x_max":1028,"o":"m 1028 44 l 1028 1058 l 889 1058 l 889 947 l 611 947 l 611 815 l 889 815 l 889 725 l 611 725 l 611 593 l 889 593 l 889 44 l 1028 44 m 681 419 l 681 551 l 319 551 l 319 1031 l 181 1031 l 181 531 q 213 452 181 485 q 292 419 246 419 l 681 419 z "},"녁":{"ha":1250,"x_min":181,"x_max":1028,"o":"m 1028 -275 l 1028 239 l 1028 1058 l 889 1058 l 889 961 l 611 961 l 611 829 l 889 829 l 889 739 l 611 739 l 611 607 l 319 607 l 319 1031 l 181 1031 l 181 586 q 213 508 181 540 q 292 475 246 475 l 681 475 l 681 607 l 889 607 l 889 239 l 431 239 l 431 107 l 889 107 l 889 -275 l 1028 -275 z "},"년":{"ha":1250,"x_min":181,"x_max":1042,"o":"m 681 475 l 681 607 l 889 607 l 889 183 l 1028 183 l 1028 1058 l 889 1058 l 889 961 l 611 961 l 611 829 l 889 829 l 889 739 l 611 739 l 611 607 l 319 607 l 319 1031 l 181 1031 l 181 586 q 213 508 181 540 q 292 475 246 475 l 681 475 m 1042 -275 l 1042 -143 l 583 -143 l 583 183 l 444 183 l 444 -164 q 477 -242 444 -210 q 556 -275 510 -275 l 1042 -275 z "},"녈":{"ha":1250,"x_min":181,"x_max":1042,"o":"m 1042 -303 l 1042 -178 l 583 -178 l 583 -85 l 1028 -85 l 1028 253 l 1028 1058 l 889 1058 l 889 961 l 611 961 l 611 829 l 889 829 l 889 739 l 611 739 l 611 607 l 319 607 l 319 1031 l 181 1031 l 181 586 q 213 508 181 540 q 292 475 246 475 l 681 475 l 681 607 l 889 607 l 889 253 l 444 253 l 444 128 l 889 128 l 889 36 l 444 36 l 444 -192 q 477 -270 444 -237 q 556 -303 510 -303 l 1042 -303 z "},"념":{"ha":1250,"x_min":181,"x_max":1028,"o":"m 1028 -164 l 1028 239 l 1028 1058 l 889 1058 l 889 961 l 611 961 l 611 829 l 889 829 l 889 739 l 611 739 l 611 607 l 319 607 l 319 1031 l 181 1031 l 181 586 q 213 508 181 540 q 292 475 246 475 l 681 475 l 681 607 l 889 607 l 889 239 l 444 239 l 444 -164 q 477 -242 444 -210 q 556 -275 510 -275 l 917 -275 q 995 -242 963 -275 q 1028 -164 1028 -210 m 889 -143 l 583 -143 l 583 107 l 889 107 l 889 -143 z "},"녑":{"ha":1250,"x_min":181,"x_max":1028,"o":"m 1028 -171 l 1028 239 l 1028 1058 l 889 1058 l 889 961 l 611 961 l 611 829 l 889 829 l 889 739 l 611 739 l 611 607 l 319 607 l 319 1031 l 181 1031 l 181 586 q 213 508 181 540 q 292 475 246 475 l 681 475 l 681 607 l 889 607 l 889 183 l 889 114 l 583 114 l 583 239 l 444 239 l 444 -171 q 477 -249 444 -217 q 556 -282 510 -282 l 917 -282 q 995 -249 963 -282 q 1028 -171 1028 -217 m 889 -150 l 583 -150 l 583 -18 l 889 -18 l 889 -150 z "},"녔":{"ha":1250,"x_min":181,"x_max":1071,"o":"m 681 475 l 681 607 l 889 607 l 889 183 l 1028 183 l 1028 1058 l 889 1058 l 889 961 l 611 961 l 611 829 l 889 829 l 889 739 l 611 739 l 611 607 l 319 607 l 319 1031 l 181 1031 l 181 586 q 213 508 181 540 q 292 475 246 475 l 681 475 m 1071 -236 l 838 239 l 667 -43 l 497 239 l 264 -236 l 386 -289 l 510 -36 l 667 -275 l 825 -36 l 949 -289 l 1071 -236 z "},"녕":{"ha":1250,"x_min":181,"x_max":1028,"o":"m 1028 -37 l 1028 1058 l 889 1058 l 889 961 l 611 961 l 611 829 l 889 829 l 889 739 l 611 739 l 611 607 l 319 607 l 319 1031 l 181 1031 l 181 586 q 213 508 181 540 q 292 475 246 475 l 681 475 l 681 607 l 889 607 l 889 192 q 751 228 828 228 q 644 207 694 228 q 557 150 594 186 q 497 66 519 114 q 475 -37 475 18 q 497 -141 475 -93 q 557 -225 519 -189 q 644 -282 594 -261 q 751 -303 694 -303 q 858 -282 807 -303 q 946 -225 908 -261 q 1006 -140 983 -189 q 1028 -37 1028 -92 m 889 -37 q 849 -135 889 -97 q 751 -174 810 -174 q 655 -135 696 -174 q 614 -37 614 -97 q 655 62 614 25 q 751 99 696 99 q 849 62 810 99 q 889 -37 889 25 z "},"녘":{"ha":1250,"x_min":181,"x_max":1028,"o":"m 889 -129 l 889 -275 l 1028 -275 l 1028 239 l 1028 1058 l 889 1058 l 889 961 l 611 961 l 611 829 l 889 829 l 889 739 l 611 739 l 611 607 l 319 607 l 319 1031 l 181 1031 l 181 586 q 213 508 181 540 q 292 475 246 475 l 681 475 l 681 607 l 889 607 l 889 239 l 431 239 l 431 107 l 889 107 l 889 3 l 444 3 l 444 -129 l 889 -129 z "},"녜":{"ha":1250,"x_min":153,"x_max":1069,"o":"m 1069 44 l 1069 1058 l 931 1058 l 931 44 l 1069 44 m 847 44 l 847 1058 l 711 1058 l 711 947 l 514 947 l 514 815 l 711 815 l 711 725 l 514 725 l 514 593 l 711 593 l 711 44 l 847 44 m 569 419 l 569 551 l 292 551 l 292 1031 l 153 1031 l 153 531 q 185 452 153 485 q 264 419 218 419 l 569 419 z "},"녠":{"ha":1250,"x_min":153,"x_max":1083,"o":"m 1069 183 l 1069 1058 l 931 1058 l 931 183 l 1069 183 m 569 475 l 569 607 l 711 607 l 711 183 l 847 183 l 847 1058 l 711 1058 l 711 961 l 514 961 l 514 829 l 711 829 l 711 739 l 514 739 l 514 607 l 292 607 l 292 1031 l 153 1031 l 153 586 q 185 508 153 540 q 264 475 218 475 l 569 475 m 1083 -275 l 1083 -143 l 625 -143 l 625 183 l 486 183 l 486 -164 q 519 -242 486 -210 q 597 -275 551 -275 l 1083 -275 z "},"노":{"ha":1250,"x_min":56,"x_max":1194,"o":"m 1194 190 l 1194 322 l 694 322 l 694 531 l 931 531 l 931 663 l 472 663 l 472 1031 l 333 1031 l 333 642 q 366 563 333 596 q 444 531 399 531 l 556 531 l 556 322 l 56 322 l 56 190 l 1194 190 z "},"녹":{"ha":1250,"x_min":56,"x_max":1194,"o":"m 1194 301 l 1194 433 l 694 433 l 694 572 l 931 572 l 931 704 l 472 704 l 472 1031 l 333 1031 l 333 683 q 366 605 333 638 q 444 572 399 572 l 556 572 l 556 433 l 56 433 l 56 301 l 1194 301 m 917 -275 l 917 169 l 319 169 l 319 38 l 778 38 l 778 -275 l 917 -275 z "},"논":{"ha":1250,"x_min":56,"x_max":1194,"o":"m 1194 274 l 1194 406 l 694 406 l 694 572 l 931 572 l 931 704 l 472 704 l 472 1031 l 333 1031 l 333 683 q 366 605 333 638 q 444 572 399 572 l 556 572 l 556 406 l 56 406 l 56 274 l 1194 274 m 931 -275 l 931 -143 l 472 -143 l 472 128 l 333 128 l 333 -164 q 366 -242 333 -210 q 444 -275 399 -275 l 931 -275 z "},"놀":{"ha":1250,"x_min":56,"x_max":1194,"o":"m 1194 329 l 1194 461 l 694 461 l 694 586 l 931 586 l 931 718 l 472 718 l 472 1031 l 333 1031 l 333 697 q 366 619 333 651 q 444 586 399 586 l 556 586 l 556 461 l 56 461 l 56 329 l 1194 329 m 931 -303 l 931 -178 l 472 -178 l 472 -92 l 917 -92 l 917 239 l 333 239 l 333 114 l 778 114 l 778 29 l 333 29 l 333 -192 q 366 -270 333 -237 q 444 -303 399 -303 l 931 -303 z "},"놂":{"ha":1250,"x_min":56,"x_max":1194,"o":"m 1194 329 l 1194 461 l 694 461 l 694 586 l 931 586 l 931 718 l 472 718 l 472 1031 l 333 1031 l 333 697 q 366 619 333 651 q 444 586 399 586 l 556 586 l 556 461 l 56 461 l 56 329 l 1194 329 m 1014 -192 l 1014 239 l 639 239 l 639 -192 q 672 -270 639 -237 q 750 -303 704 -303 l 903 -303 q 981 -270 949 -303 q 1014 -192 1014 -237 m 875 -171 l 778 -171 l 778 107 l 875 107 l 875 -171 m 597 -303 l 597 -178 l 375 -178 l 375 -92 l 583 -92 l 583 239 l 236 239 l 236 114 l 444 114 l 444 29 l 236 29 l 236 -192 q 269 -270 236 -237 q 347 -303 301 -303 l 597 -303 z "},"놈":{"ha":1250,"x_min":56,"x_max":1194,"o":"m 1194 315 l 1194 447 l 694 447 l 694 572 l 931 572 l 931 704 l 472 704 l 472 1031 l 333 1031 l 333 683 q 366 605 333 638 q 444 572 399 572 l 556 572 l 556 447 l 56 447 l 56 315 l 1194 315 m 917 -164 l 917 197 l 333 197 l 333 -164 q 366 -242 333 -210 q 444 -275 399 -275 l 806 -275 q 884 -242 851 -275 q 917 -164 917 -210 m 778 -143 l 472 -143 l 472 65 l 778 65 l 778 -143 z "},"놉":{"ha":1250,"x_min":56,"x_max":1194,"o":"m 1194 301 l 1194 433 l 694 433 l 694 572 l 931 572 l 931 704 l 472 704 l 472 1031 l 333 1031 l 333 683 q 366 605 333 638 q 444 572 399 572 l 556 572 l 556 433 l 56 433 l 56 301 l 1194 301 m 917 -178 l 917 204 l 778 204 l 778 93 l 472 93 l 472 204 l 333 204 l 333 -178 q 366 -256 333 -224 q 444 -289 399 -289 l 806 -289 q 884 -256 851 -289 q 917 -178 917 -224 m 778 -157 l 472 -157 l 472 -39 l 778 -39 l 778 -157 z "},"놋":{"ha":1250,"x_min":56,"x_max":1194,"o":"m 1194 301 l 1194 433 l 694 433 l 694 572 l 931 572 l 931 704 l 472 704 l 472 1031 l 333 1031 l 333 683 q 366 605 333 638 q 444 572 399 572 l 556 572 l 556 433 l 56 433 l 56 301 l 1194 301 m 988 -204 l 625 225 l 263 -204 l 371 -289 l 625 15 l 879 -289 l 988 -204 z "},"농":{"ha":1250,"x_min":56,"x_max":1194,"o":"m 1194 301 l 1194 433 l 694 433 l 694 572 l 931 572 l 931 704 l 472 704 l 472 1031 l 333 1031 l 333 683 q 366 605 333 638 q 444 572 399 572 l 556 572 l 556 433 l 56 433 l 56 301 l 1194 301 m 901 -50 q 879 48 901 1 q 819 128 857 94 q 731 183 781 163 q 625 203 681 203 q 518 183 568 203 q 431 129 468 164 q 371 49 393 94 q 349 -50 349 3 q 371 -149 349 -103 q 431 -229 393 -194 q 518 -283 468 -264 q 625 -303 568 -303 q 731 -283 681 -303 q 819 -228 781 -262 q 879 -149 857 -194 q 901 -50 901 -103 m 763 -50 q 723 -139 763 -104 q 625 -174 683 -174 q 572 -165 597 -174 q 528 -139 547 -156 q 499 -100 510 -122 q 488 -50 488 -78 q 499 -1 488 -24 q 528 39 510 22 q 572 65 547 56 q 625 74 597 74 q 723 39 683 74 q 763 -50 763 4 z "},"높":{"ha":1250,"x_min":56,"x_max":1194,"o":"m 1194 301 l 1194 433 l 694 433 l 694 572 l 931 572 l 931 704 l 472 704 l 472 1031 l 333 1031 l 333 683 q 366 605 333 638 q 444 572 399 572 l 556 572 l 556 433 l 56 433 l 56 301 l 1194 301 m 542 -157 l 542 65 l 708 65 l 708 -157 l 542 -157 m 951 -289 l 951 -157 l 847 -157 l 847 65 l 944 65 l 944 197 l 306 197 l 306 65 l 403 65 l 403 -157 l 299 -157 l 299 -289 l 951 -289 z "},"놓":{"ha":1250,"x_min":56,"x_max":1194,"o":"m 1194 315 l 1194 447 l 694 447 l 694 572 l 931 572 l 931 704 l 472 704 l 472 1031 l 333 1031 l 333 683 q 366 605 333 638 q 444 572 399 572 l 556 572 l 556 447 l 56 447 l 56 315 l 1194 315 m 879 -76 q 853 24 879 -22 l 965 24 l 965 156 l 694 156 l 694 253 l 556 253 l 556 156 l 285 156 l 285 24 l 397 24 q 371 -76 371 -22 q 391 -165 371 -124 q 446 -236 411 -206 q 527 -285 481 -267 q 625 -303 574 -303 q 722 -285 676 -303 q 803 -236 768 -267 q 858 -165 838 -206 q 879 -76 879 -124 m 740 -76 q 707 -146 740 -118 q 625 -174 674 -174 q 544 -146 578 -174 q 510 -76 510 -118 q 544 -7 510 -35 q 625 21 578 21 q 707 -7 674 21 q 740 -76 740 -35 z "},"놔":{"ha":1250,"x_min":14,"x_max":1208,"o":"m 889 246 l 889 44 l 1028 44 l 1028 656 l 1208 656 l 1208 788 l 1028 788 l 1028 1058 l 889 1058 l 889 378 l 521 378 l 521 558 l 708 558 l 708 690 l 333 690 l 333 1031 l 194 1031 l 194 669 q 227 591 194 624 q 306 558 260 558 l 382 558 l 382 378 l 14 378 l 14 246 l 889 246 z "},"놘":{"ha":1250,"x_min":14,"x_max":1208,"o":"m 889 288 l 889 142 l 1028 142 l 1028 697 l 1208 697 l 1208 829 l 1028 829 l 1028 1058 l 889 1058 l 889 419 l 521 419 l 521 586 l 708 586 l 708 718 l 333 718 l 333 1031 l 194 1031 l 194 697 q 227 619 194 651 q 306 586 260 586 l 382 586 l 382 419 l 14 419 l 14 288 l 889 288 m 1042 -275 l 1042 -143 l 583 -143 l 583 128 l 444 128 l 444 -164 q 477 -242 444 -210 q 556 -275 510 -275 l 1042 -275 z "},"놜":{"ha":1250,"x_min":14,"x_max":1208,"o":"m 1042 -303 l 1042 -178 l 583 -178 l 583 -99 l 1028 -99 l 1028 225 l 1028 697 l 1208 697 l 1208 829 l 1028 829 l 1028 1058 l 889 1058 l 889 447 l 521 447 l 521 586 l 708 586 l 708 718 l 333 718 l 333 1031 l 194 1031 l 194 697 q 227 619 194 651 q 306 586 260 586 l 382 586 l 382 447 l 14 447 l 14 315 l 889 315 l 889 225 l 444 225 l 444 100 l 889 100 l 889 22 l 444 22 l 444 -192 q 477 -270 444 -237 q 556 -303 510 -303 l 1042 -303 z "},"놨":{"ha":1250,"x_min":14,"x_max":1208,"o":"m 889 315 l 889 142 l 1028 142 l 1028 697 l 1208 697 l 1208 829 l 1028 829 l 1028 1058 l 889 1058 l 889 447 l 521 447 l 521 586 l 708 586 l 708 718 l 333 718 l 333 1031 l 194 1031 l 194 697 q 227 619 194 651 q 306 586 260 586 l 382 586 l 382 447 l 14 447 l 14 315 l 889 315 m 1071 -250 l 838 211 l 667 -57 l 497 211 l 264 -250 l 386 -303 l 511 -57 l 667 -289 l 824 -57 l 949 -303 l 1071 -250 z "},"뇌":{"ha":1250,"x_min":42,"x_max":1056,"o":"m 917 246 l 917 44 l 1056 44 l 1056 1058 l 917 1058 l 917 378 l 549 378 l 549 558 l 736 558 l 736 690 l 361 690 l 361 1031 l 222 1031 l 222 669 q 255 591 222 624 q 333 558 288 558 l 410 558 l 410 378 l 42 378 l 42 246 l 917 246 z "},"뇐":{"ha":1250,"x_min":42,"x_max":1069,"o":"m 917 288 l 917 142 l 1056 142 l 1056 1058 l 917 1058 l 917 419 l 549 419 l 549 586 l 736 586 l 736 718 l 361 718 l 361 1031 l 222 1031 l 222 697 q 255 619 222 651 q 333 586 288 586 l 410 586 l 410 419 l 42 419 l 42 288 l 917 288 m 1069 -275 l 1069 -143 l 611 -143 l 611 128 l 472 128 l 472 -164 q 505 -242 472 -210 q 583 -275 538 -275 l 1069 -275 z "},"뇔":{"ha":1250,"x_min":42,"x_max":1069,"o":"m 1069 -303 l 1069 -178 l 611 -178 l 611 -99 l 1056 -99 l 1056 225 l 1056 1058 l 917 1058 l 917 447 l 549 447 l 549 586 l 736 586 l 736 718 l 361 718 l 361 1031 l 222 1031 l 222 697 q 255 619 222 651 q 333 586 288 586 l 410 586 l 410 447 l 42 447 l 42 315 l 917 315 l 917 225 l 472 225 l 472 100 l 917 100 l 917 22 l 472 22 l 472 -192 q 505 -270 472 -237 q 583 -303 538 -303 l 1069 -303 z "},"뇜":{"ha":1250,"x_min":42,"x_max":1056,"o":"m 1056 -164 l 1056 197 l 1056 1058 l 917 1058 l 917 447 l 549 447 l 549 586 l 736 586 l 736 718 l 361 718 l 361 1031 l 222 1031 l 222 697 q 255 619 222 651 q 333 586 288 586 l 410 586 l 410 447 l 42 447 l 42 315 l 917 315 l 917 197 l 472 197 l 472 -164 q 505 -242 472 -210 q 583 -275 538 -275 l 944 -275 q 1023 -242 990 -275 q 1056 -164 1056 -210 m 917 -143 l 611 -143 l 611 65 l 917 65 l 917 -143 z "},"뇝":{"ha":1250,"x_min":42,"x_max":1056,"o":"m 1056 -178 l 1056 204 l 1056 1058 l 917 1058 l 917 447 l 549 447 l 549 586 l 736 586 l 736 718 l 361 718 l 361 1031 l 222 1031 l 222 697 q 255 619 222 651 q 333 586 288 586 l 410 586 l 410 447 l 42 447 l 42 315 l 917 315 l 917 142 l 917 93 l 611 93 l 611 204 l 472 204 l 472 -178 q 505 -256 472 -224 q 583 -289 538 -289 l 944 -289 q 1023 -256 990 -289 q 1056 -178 1056 -224 m 917 -157 l 611 -157 l 611 -39 l 917 -39 l 917 -157 z "},"뇟":{"ha":1250,"x_min":42,"x_max":1099,"o":"m 917 315 l 917 142 l 1056 142 l 1056 1058 l 917 1058 l 917 447 l 549 447 l 549 586 l 736 586 l 736 718 l 361 718 l 361 1031 l 222 1031 l 222 697 q 255 619 222 651 q 333 586 288 586 l 410 586 l 410 447 l 42 447 l 42 315 l 917 315 m 1099 -204 l 736 225 l 374 -204 l 482 -289 l 736 15 l 990 -289 l 1099 -204 z "},"뇨":{"ha":1250,"x_min":56,"x_max":1194,"o":"m 556 322 l 556 531 l 694 531 l 694 322 l 556 322 m 1194 190 l 1194 322 l 833 322 l 833 531 l 931 531 l 931 663 l 472 663 l 472 1031 l 333 1031 l 333 642 q 358 573 333 603 q 417 535 382 543 l 417 322 l 56 322 l 56 190 l 1194 190 z "},"뇩":{"ha":1250,"x_min":56,"x_max":1194,"o":"m 556 572 l 694 572 l 694 433 l 556 433 l 556 572 m 417 433 l 56 433 l 56 301 l 1194 301 l 1194 433 l 833 433 l 833 572 l 931 572 l 931 704 l 472 704 l 472 1031 l 333 1031 l 333 683 q 358 615 333 644 q 417 576 382 585 l 417 433 m 917 -275 l 917 169 l 319 169 l 319 38 l 778 38 l 778 -275 l 917 -275 z "},"뇬":{"ha":1250,"x_min":56,"x_max":1194,"o":"m 556 406 l 556 572 l 694 572 l 694 406 l 556 406 m 1194 274 l 1194 406 l 833 406 l 833 572 l 931 572 l 931 704 l 472 704 l 472 1031 l 333 1031 l 333 683 q 358 615 333 644 q 417 576 382 585 l 417 406 l 56 406 l 56 274 l 1194 274 m 931 -275 l 931 -143 l 472 -143 l 472 128 l 333 128 l 333 -164 q 366 -242 333 -210 q 444 -275 399 -275 l 931 -275 z "},"뇰":{"ha":1250,"x_min":56,"x_max":1194,"o":"m 556 586 l 694 586 l 694 461 l 556 461 l 556 586 m 417 461 l 56 461 l 56 329 l 1194 329 l 1194 461 l 833 461 l 833 586 l 931 586 l 931 718 l 472 718 l 472 1031 l 333 1031 l 333 697 q 358 628 333 658 q 417 590 382 599 l 417 461 m 931 -303 l 931 -178 l 472 -178 l 472 -92 l 917 -92 l 917 239 l 333 239 l 333 114 l 778 114 l 778 29 l 333 29 l 333 -192 q 366 -270 333 -237 q 444 -303 399 -303 l 931 -303 z "},"뇹":{"ha":1250,"x_min":56,"x_max":1194,"o":"m 556 572 l 694 572 l 694 433 l 556 433 l 556 572 m 417 433 l 56 433 l 56 301 l 1194 301 l 1194 433 l 833 433 l 833 572 l 931 572 l 931 704 l 472 704 l 472 1031 l 333 1031 l 333 683 q 358 615 333 644 q 417 576 382 585 l 417 433 m 917 -178 l 917 204 l 778 204 l 778 93 l 472 93 l 472 204 l 333 204 l 333 -178 q 366 -256 333 -224 q 444 -289 399 -289 l 806 -289 q 884 -256 851 -289 q 917 -178 917 -224 m 778 -157 l 472 -157 l 472 -39 l 778 -39 l 778 -157 z "},"뇻":{"ha":1250,"x_min":56,"x_max":1194,"o":"m 556 572 l 694 572 l 694 433 l 556 433 l 556 572 m 417 433 l 56 433 l 56 301 l 1194 301 l 1194 433 l 833 433 l 833 572 l 931 572 l 931 704 l 472 704 l 472 1031 l 333 1031 l 333 683 q 358 615 333 644 q 417 576 382 585 l 417 433 m 988 -204 l 625 225 l 263 -204 l 371 -289 l 625 15 l 879 -289 l 988 -204 z "},"뇽":{"ha":1250,"x_min":56,"x_max":1194,"o":"m 556 572 l 694 572 l 694 433 l 556 433 l 556 572 m 417 433 l 56 433 l 56 301 l 1194 301 l 1194 433 l 833 433 l 833 572 l 931 572 l 931 704 l 472 704 l 472 1031 l 333 1031 l 333 683 q 358 615 333 644 q 417 576 382 585 l 417 433 m 901 -50 q 879 48 901 1 q 819 128 857 94 q 731 183 781 163 q 625 203 681 203 q 518 183 568 203 q 431 129 468 164 q 371 49 393 94 q 349 -50 349 3 q 371 -149 349 -103 q 431 -229 393 -194 q 518 -283 468 -264 q 625 -303 568 -303 q 731 -283 681 -303 q 819 -228 781 -262 q 879 -149 857 -194 q 901 -50 901 -103 m 763 -50 q 723 -139 763 -104 q 625 -174 683 -174 q 572 -165 597 -174 q 528 -139 547 -156 q 499 -100 510 -122 q 488 -50 488 -78 q 499 -1 488 -24 q 528 39 510 22 q 572 65 547 56 q 625 74 597 74 q 723 39 683 74 q 763 -50 763 4 z "},"누":{"ha":1250,"x_min":56,"x_max":1194,"o":"m 931 544 l 931 676 l 472 676 l 472 1031 l 333 1031 l 333 656 q 366 577 333 610 q 444 544 399 544 l 931 544 m 694 -25 l 694 260 l 1194 260 l 1194 392 l 56 392 l 56 260 l 556 260 l 556 -25 l 694 -25 z "},"눅":{"ha":1250,"x_min":56,"x_max":1194,"o":"m 931 572 l 931 704 l 472 704 l 472 1031 l 333 1031 l 333 683 q 366 605 333 638 q 444 572 399 572 l 931 572 m 917 -275 l 917 169 l 694 169 l 694 329 l 1194 329 l 1194 461 l 56 461 l 56 329 l 556 329 l 556 169 l 319 169 l 319 38 l 778 38 l 778 -275 l 917 -275 z "},"눈":{"ha":1250,"x_min":56,"x_max":1194,"o":"m 931 572 l 931 704 l 472 704 l 472 1031 l 333 1031 l 333 683 q 366 605 333 638 q 444 572 399 572 l 931 572 m 736 58 l 736 301 l 1194 301 l 1194 433 l 56 433 l 56 301 l 597 301 l 597 58 l 736 58 m 931 -275 l 931 -143 l 472 -143 l 472 128 l 333 128 l 333 -164 q 366 -242 333 -210 q 444 -275 399 -275 l 931 -275 z "},"눋":{"ha":1250,"x_min":56,"x_max":1194,"o":"m 931 572 l 931 704 l 472 704 l 472 1031 l 333 1031 l 333 683 q 366 605 333 638 q 444 572 399 572 l 931 572 m 931 -275 l 931 -143 l 472 -143 l 472 65 l 917 65 l 917 197 l 694 197 l 694 329 l 1194 329 l 1194 461 l 56 461 l 56 329 l 556 329 l 556 197 l 333 197 l 333 -164 q 366 -242 333 -210 q 444 -275 399 -275 l 931 -275 z "},"눌":{"ha":1250,"x_min":56,"x_max":1194,"o":"m 931 586 l 931 718 l 472 718 l 472 1031 l 333 1031 l 333 697 q 366 619 333 651 q 444 586 399 586 l 931 586 m 931 -303 l 931 -178 l 472 -178 l 472 -92 l 917 -92 l 917 239 l 694 239 l 694 357 l 1194 357 l 1194 489 l 56 489 l 56 357 l 556 357 l 556 239 l 333 239 l 333 114 l 778 114 l 778 29 l 333 29 l 333 -192 q 366 -270 333 -237 q 444 -303 399 -303 l 931 -303 z "},"눔":{"ha":1250,"x_min":56,"x_max":1194,"o":"m 931 572 l 931 704 l 472 704 l 472 1031 l 333 1031 l 333 683 q 366 605 333 638 q 444 572 399 572 l 931 572 m 917 -164 l 917 197 l 694 197 l 694 329 l 1194 329 l 1194 461 l 56 461 l 56 329 l 556 329 l 556 197 l 333 197 l 333 -164 q 366 -242 333 -210 q 444 -275 399 -275 l 806 -275 q 884 -242 851 -275 q 917 -164 917 -210 m 778 -143 l 472 -143 l 472 65 l 778 65 l 778 -143 z "},"눕":{"ha":1250,"x_min":56,"x_max":1194,"o":"m 931 572 l 931 704 l 472 704 l 472 1031 l 333 1031 l 333 683 q 366 605 333 638 q 444 572 399 572 l 931 572 m 694 169 l 694 329 l 1194 329 l 1194 461 l 56 461 l 56 329 l 556 329 l 556 169 l 694 169 m 917 -178 l 917 204 l 778 204 l 778 93 l 472 93 l 472 204 l 333 204 l 333 -178 q 366 -256 333 -224 q 444 -289 399 -289 l 806 -289 q 884 -256 851 -289 q 917 -178 917 -224 m 778 -157 l 472 -157 l 472 -39 l 778 -39 l 778 -157 z "},"눗":{"ha":1250,"x_min":56,"x_max":1194,"o":"m 931 572 l 931 704 l 472 704 l 472 1031 l 333 1031 l 333 683 q 366 605 333 638 q 444 572 399 572 l 931 572 m 988 -204 l 694 143 l 694 329 l 1194 329 l 1194 461 l 56 461 l 56 329 l 556 329 l 556 143 l 263 -204 l 371 -289 l 625 15 l 879 -289 l 988 -204 z "},"눙":{"ha":1250,"x_min":56,"x_max":1194,"o":"m 931 572 l 931 704 l 472 704 l 472 1031 l 333 1031 l 333 683 q 366 605 333 638 q 444 572 399 572 l 931 572 m 901 -50 q 885 33 901 -7 q 842 105 869 72 q 776 160 814 138 q 694 194 739 183 l 694 329 l 1194 329 l 1194 461 l 56 461 l 56 329 l 556 329 l 556 194 q 474 161 511 183 q 408 106 436 139 q 365 34 381 74 q 349 -50 349 -6 q 371 -149 349 -103 q 431 -229 393 -194 q 518 -283 468 -264 q 625 -303 568 -303 q 731 -283 681 -303 q 819 -228 781 -262 q 879 -149 857 -194 q 901 -50 901 -103 m 763 -50 q 723 -139 763 -104 q 625 -174 683 -174 q 572 -165 597 -174 q 528 -139 547 -156 q 499 -100 510 -122 q 488 -50 488 -78 q 499 -1 488 -24 q 528 39 510 22 q 572 65 547 56 q 625 74 597 74 q 723 39 683 74 q 763 -50 763 4 z "},"눠":{"ha":1250,"x_min":42,"x_max":1056,"o":"m 1056 44 l 1056 1058 l 917 1058 l 917 326 l 667 326 l 667 197 l 917 197 l 917 44 l 1056 44 m 736 628 l 736 760 l 361 760 l 361 1031 l 222 1031 l 222 739 q 255 660 222 693 q 333 628 288 628 l 736 628 m 514 72 l 514 385 l 806 385 l 806 517 l 42 517 l 42 385 l 375 385 l 375 72 l 514 72 z "},"눴":{"ha":1250,"x_min":42,"x_max":1099,"o":"m 1056 100 l 1056 1058 l 917 1058 l 917 368 l 667 368 l 667 239 l 917 239 l 917 100 l 1056 100 m 736 628 l 736 760 l 361 760 l 361 1031 l 222 1031 l 222 739 q 255 660 222 693 q 333 628 288 628 l 736 628 m 514 225 l 514 413 l 806 413 l 806 544 l 42 544 l 42 413 l 375 413 l 375 225 l 514 225 m 1099 -250 l 867 179 l 694 -69 l 524 179 l 292 -250 l 414 -303 l 538 -69 l 694 -289 l 853 -69 l 976 -303 l 1099 -250 z "},"눼":{"ha":1250,"x_min":14,"x_max":1083,"o":"m 1083 44 l 1083 1058 l 944 1058 l 944 44 l 1083 44 m 861 197 l 861 1058 l 725 1058 l 725 326 l 500 326 l 500 197 l 861 197 m 583 628 l 583 760 l 292 760 l 292 1031 l 153 1031 l 153 739 q 185 660 153 693 q 264 628 218 628 l 583 628 m 417 72 l 417 385 l 639 385 l 639 517 l 14 517 l 14 385 l 278 385 l 278 72 l 417 72 z "},"뉘":{"ha":1250,"x_min":42,"x_max":1056,"o":"m 736 628 l 736 760 l 361 760 l 361 1031 l 222 1031 l 222 739 q 255 660 222 693 q 333 628 288 628 l 736 628 m 514 72 l 514 357 l 917 357 l 917 44 l 1056 44 l 1056 1058 l 917 1058 l 917 489 l 42 489 l 42 357 l 375 357 l 375 72 l 514 72 z "},"뉜":{"ha":1250,"x_min":42,"x_max":1069,"o":"m 736 628 l 736 760 l 361 760 l 361 1031 l 222 1031 l 222 739 q 255 660 222 693 q 333 628 288 628 l 736 628 m 514 197 l 514 357 l 917 357 l 917 100 l 1056 100 l 1056 1058 l 917 1058 l 917 489 l 42 489 l 42 357 l 375 357 l 375 197 l 514 197 m 1069 -275 l 1069 -143 l 611 -143 l 611 128 l 472 128 l 472 -164 q 505 -242 472 -210 q 583 -275 538 -275 l 1069 -275 z "},"뉠":{"ha":1250,"x_min":42,"x_max":1069,"o":"m 736 628 l 736 760 l 361 760 l 361 1031 l 222 1031 l 222 739 q 255 660 222 693 q 333 628 288 628 l 736 628 m 1069 -303 l 1069 -178 l 611 -178 l 611 -112 l 1056 -112 l 1056 197 l 1056 1058 l 917 1058 l 917 517 l 42 517 l 42 385 l 375 385 l 375 225 l 514 225 l 514 385 l 917 385 l 917 197 l 472 197 l 472 72 l 917 72 l 917 8 l 472 8 l 472 -192 q 505 -270 472 -237 q 583 -303 538 -303 l 1069 -303 z "},"뉨":{"ha":1250,"x_min":42,"x_max":1056,"o":"m 736 628 l 736 760 l 361 760 l 361 1031 l 222 1031 l 222 739 q 255 660 222 693 q 333 628 288 628 l 736 628 m 1056 -164 l 1056 169 l 1056 1058 l 917 1058 l 917 517 l 42 517 l 42 385 l 375 385 l 375 225 l 514 225 l 514 385 l 917 385 l 917 169 l 472 169 l 472 -164 q 505 -242 472 -210 q 583 -275 538 -275 l 944 -275 q 1023 -242 990 -275 q 1056 -164 1056 -210 m 917 -143 l 611 -143 l 611 38 l 917 38 l 917 -143 z "},"뉩":{"ha":1250,"x_min":42,"x_max":1056,"o":"m 736 628 l 736 760 l 361 760 l 361 1031 l 222 1031 l 222 739 q 255 660 222 693 q 333 628 288 628 l 736 628 m 1056 -178 l 1056 176 l 1056 1058 l 917 1058 l 917 517 l 42 517 l 42 385 l 375 385 l 375 225 l 514 225 l 514 385 l 917 385 l 917 100 l 917 79 l 611 79 l 611 176 l 472 176 l 472 -178 q 505 -256 472 -224 q 583 -289 538 -289 l 944 -289 q 1023 -256 990 -289 q 1056 -178 1056 -224 m 917 -157 l 611 -157 l 611 -53 l 917 -53 l 917 -157 z "},"뉴":{"ha":1250,"x_min":56,"x_max":1194,"o":"m 931 544 l 931 676 l 472 676 l 472 1031 l 333 1031 l 333 656 q 366 577 333 610 q 444 544 399 544 l 931 544 m 542 -25 l 542 260 l 708 260 l 708 -25 l 847 -25 l 847 260 l 1194 260 l 1194 392 l 56 392 l 56 260 l 403 260 l 403 -25 l 542 -25 z "},"뉵":{"ha":1250,"x_min":56,"x_max":1194,"o":"m 931 572 l 931 704 l 472 704 l 472 1031 l 333 1031 l 333 683 q 366 605 333 638 q 444 572 399 572 l 931 572 m 556 169 l 556 329 l 694 329 l 694 169 l 556 169 m 917 -275 l 917 169 l 833 169 l 833 329 l 1194 329 l 1194 461 l 56 461 l 56 329 l 417 329 l 417 169 l 319 169 l 319 38 l 778 38 l 778 -275 l 917 -275 z "},"뉼":{"ha":1250,"x_min":56,"x_max":1194,"o":"m 931 586 l 931 718 l 472 718 l 472 1031 l 333 1031 l 333 697 q 366 619 333 651 q 444 586 399 586 l 931 586 m 556 239 l 556 357 l 694 357 l 694 239 l 556 239 m 931 -303 l 931 -178 l 472 -178 l 472 -92 l 917 -92 l 917 239 l 833 239 l 833 357 l 1194 357 l 1194 489 l 56 489 l 56 357 l 417 357 l 417 239 l 333 239 l 333 114 l 778 114 l 778 29 l 333 29 l 333 -192 q 366 -270 333 -237 q 444 -303 399 -303 l 931 -303 z "},"늄":{"ha":1250,"x_min":56,"x_max":1194,"o":"m 931 572 l 931 704 l 472 704 l 472 1031 l 333 1031 l 333 683 q 366 605 333 638 q 444 572 399 572 l 931 572 m 556 197 l 556 329 l 694 329 l 694 197 l 556 197 m 917 -164 l 917 197 l 833 197 l 833 329 l 1194 329 l 1194 461 l 56 461 l 56 329 l 417 329 l 417 197 l 333 197 l 333 -164 q 366 -242 333 -210 q 444 -275 399 -275 l 806 -275 q 884 -242 851 -275 q 917 -164 917 -210 m 778 -143 l 472 -143 l 472 65 l 778 65 l 778 -143 z "},"늅":{"ha":1250,"x_min":56,"x_max":1194,"o":"m 931 572 l 931 704 l 472 704 l 472 1031 l 333 1031 l 333 683 q 366 605 333 638 q 444 572 399 572 l 931 572 m 472 169 l 556 169 l 556 329 l 694 329 l 694 169 l 778 169 l 778 93 l 472 93 l 472 169 m 917 -178 l 917 204 l 833 204 l 833 329 l 1194 329 l 1194 461 l 56 461 l 56 329 l 417 329 l 417 204 l 333 204 l 333 -178 q 366 -256 333 -224 q 444 -289 399 -289 l 806 -289 q 884 -256 851 -289 q 917 -178 917 -224 m 778 -157 l 472 -157 l 472 -39 l 778 -39 l 778 -157 z "},"늉":{"ha":1250,"x_min":56,"x_max":1194,"o":"m 931 572 l 931 704 l 472 704 l 472 1031 l 333 1031 l 333 683 q 366 605 333 638 q 444 572 399 572 l 931 572 m 556 194 l 556 329 l 694 329 l 694 194 q 625 203 661 203 q 556 194 589 203 m 901 -50 q 883 40 901 -3 q 833 115 865 82 l 833 329 l 1194 329 l 1194 461 l 56 461 l 56 329 l 417 329 l 417 115 q 367 40 386 82 q 349 -50 349 -3 q 371 -149 349 -103 q 431 -229 393 -194 q 518 -283 468 -264 q 625 -303 568 -303 q 731 -283 681 -303 q 819 -228 781 -262 q 879 -149 857 -194 q 901 -50 901 -103 m 763 -50 q 723 -139 763 -104 q 625 -174 683 -174 q 572 -165 597 -174 q 528 -139 547 -156 q 499 -100 510 -122 q 488 -50 488 -78 q 499 -1 488 -24 q 528 39 510 22 q 572 65 547 56 q 625 74 597 74 q 723 39 683 74 q 763 -50 763 4 z "},"느":{"ha":1250,"x_min":56,"x_max":1194,"o":"m 931 531 l 931 663 l 472 663 l 472 1031 l 333 1031 l 333 642 q 366 563 333 596 q 444 531 399 531 l 931 531 m 1194 190 l 1194 322 l 56 322 l 56 190 l 1194 190 z "},"늑":{"ha":1250,"x_min":56,"x_max":1194,"o":"m 931 572 l 931 704 l 472 704 l 472 1031 l 333 1031 l 333 683 q 366 605 333 638 q 444 572 399 572 l 931 572 m 1194 301 l 1194 433 l 56 433 l 56 301 l 1194 301 m 917 -275 l 917 169 l 319 169 l 319 38 l 778 38 l 778 -275 l 917 -275 z "},"는":{"ha":1250,"x_min":56,"x_max":1194,"o":"m 931 572 l 931 704 l 472 704 l 472 1031 l 333 1031 l 333 683 q 366 605 333 638 q 444 572 399 572 l 931 572 m 1194 274 l 1194 406 l 56 406 l 56 274 l 1194 274 m 931 -275 l 931 -143 l 472 -143 l 472 128 l 333 128 l 333 -164 q 366 -242 333 -210 q 444 -275 399 -275 l 931 -275 z "},"늘":{"ha":1250,"x_min":56,"x_max":1194,"o":"m 931 586 l 931 718 l 472 718 l 472 1031 l 333 1031 l 333 697 q 366 619 333 651 q 444 586 399 586 l 931 586 m 1194 343 l 1194 475 l 56 475 l 56 343 l 1194 343 m 931 -303 l 931 -178 l 472 -178 l 472 -92 l 917 -92 l 917 239 l 333 239 l 333 114 l 778 114 l 778 29 l 333 29 l 333 -192 q 366 -270 333 -237 q 444 -303 399 -303 l 931 -303 z "},"늙":{"ha":1250,"x_min":56,"x_max":1194,"o":"m 931 586 l 931 718 l 472 718 l 472 1031 l 333 1031 l 333 697 q 366 619 333 651 q 444 586 399 586 l 931 586 m 1194 343 l 1194 475 l 56 475 l 56 343 l 1194 343 m 660 -303 l 660 -178 l 410 -178 l 410 -92 l 646 -92 l 646 107 l 840 107 l 840 -303 l 979 -303 l 979 239 l 590 239 l 271 239 l 271 114 l 507 114 l 507 29 l 271 29 l 271 -192 q 303 -270 271 -237 q 382 -303 336 -303 l 660 -303 z "},"늚":{"ha":1250,"x_min":56,"x_max":1194,"o":"m 931 586 l 931 718 l 472 718 l 472 1031 l 333 1031 l 333 697 q 366 619 333 651 q 444 586 399 586 l 931 586 m 1194 343 l 1194 475 l 56 475 l 56 343 l 1194 343 m 1014 -192 l 1014 239 l 639 239 l 639 -192 q 672 -270 639 -237 q 750 -303 704 -303 l 903 -303 q 981 -270 949 -303 q 1014 -192 1014 -237 m 875 -171 l 778 -171 l 778 107 l 875 107 l 875 -171 m 597 -303 l 597 -178 l 375 -178 l 375 -92 l 583 -92 l 583 239 l 236 239 l 236 114 l 444 114 l 444 29 l 236 29 l 236 -192 q 269 -270 236 -237 q 347 -303 301 -303 l 597 -303 z "},"늠":{"ha":1250,"x_min":56,"x_max":1194,"o":"m 931 572 l 931 704 l 472 704 l 472 1031 l 333 1031 l 333 683 q 366 605 333 638 q 444 572 399 572 l 931 572 m 1194 315 l 1194 447 l 56 447 l 56 315 l 1194 315 m 917 -164 l 917 197 l 333 197 l 333 -164 q 366 -242 333 -210 q 444 -275 399 -275 l 806 -275 q 884 -242 851 -275 q 917 -164 917 -210 m 778 -143 l 472 -143 l 472 65 l 778 65 l 778 -143 z "},"늡":{"ha":1250,"x_min":56,"x_max":1194,"o":"m 931 572 l 931 704 l 472 704 l 472 1031 l 333 1031 l 333 683 q 366 605 333 638 q 444 572 399 572 l 931 572 m 1194 315 l 1194 447 l 56 447 l 56 315 l 1194 315 m 917 -178 l 917 204 l 778 204 l 778 93 l 472 93 l 472 204 l 333 204 l 333 -178 q 366 -256 333 -224 q 444 -289 399 -289 l 806 -289 q 884 -256 851 -289 q 917 -178 917 -224 m 778 -157 l 472 -157 l 472 -39 l 778 -39 l 778 -157 z "},"늣":{"ha":1250,"x_min":56,"x_max":1194,"o":"m 931 572 l 931 704 l 472 704 l 472 1031 l 333 1031 l 333 683 q 366 605 333 638 q 444 572 399 572 l 931 572 m 1194 301 l 1194 433 l 56 433 l 56 301 l 1194 301 m 988 -204 l 625 225 l 263 -204 l 371 -289 l 625 15 l 879 -289 l 988 -204 z "},"능":{"ha":1250,"x_min":56,"x_max":1194,"o":"m 931 572 l 931 704 l 472 704 l 472 1031 l 333 1031 l 333 683 q 366 605 333 638 q 444 572 399 572 l 931 572 m 1194 301 l 1194 433 l 56 433 l 56 301 l 1194 301 m 901 -50 q 879 48 901 1 q 819 128 857 94 q 731 183 781 163 q 625 203 681 203 q 518 183 568 203 q 431 129 468 164 q 371 49 393 94 q 349 -50 349 3 q 371 -149 349 -103 q 431 -229 393 -194 q 518 -283 468 -264 q 625 -303 568 -303 q 731 -283 681 -303 q 819 -228 781 -262 q 879 -149 857 -194 q 901 -50 901 -103 m 763 -50 q 723 -139 763 -104 q 625 -174 683 -174 q 572 -165 597 -174 q 528 -139 547 -156 q 499 -100 510 -122 q 488 -50 488 -78 q 499 -1 488 -24 q 528 39 510 22 q 572 65 547 56 q 625 74 597 74 q 723 39 683 74 q 763 -50 763 4 z "},"늦":{"ha":1250,"x_min":56,"x_max":1194,"o":"m 931 572 l 931 704 l 472 704 l 472 1031 l 333 1031 l 333 683 q 366 605 333 638 q 444 572 399 572 l 931 572 m 1194 315 l 1194 447 l 56 447 l 56 315 l 1194 315 m 979 -194 l 722 65 l 917 65 l 917 197 l 333 197 l 333 65 l 528 65 l 271 -194 l 371 -289 l 625 -28 l 879 -289 l 979 -194 z "},"늪":{"ha":1250,"x_min":56,"x_max":1194,"o":"m 931 572 l 931 704 l 472 704 l 472 1031 l 333 1031 l 333 683 q 366 605 333 638 q 444 572 399 572 l 931 572 m 1194 315 l 1194 447 l 56 447 l 56 315 l 1194 315 m 542 -157 l 542 65 l 708 65 l 708 -157 l 542 -157 m 951 -289 l 951 -157 l 847 -157 l 847 65 l 944 65 l 944 197 l 306 197 l 306 65 l 403 65 l 403 -157 l 299 -157 l 299 -289 l 951 -289 z "},"늬":{"ha":1250,"x_min":42,"x_max":1056,"o":"m 736 558 l 736 690 l 361 690 l 361 1031 l 222 1031 l 222 669 q 255 591 222 624 q 333 558 288 558 l 736 558 m 917 246 l 917 44 l 1056 44 l 1056 1058 l 917 1058 l 917 378 l 42 378 l 42 246 l 917 246 z "},"늰":{"ha":1250,"x_min":42,"x_max":1069,"o":"m 736 586 l 736 718 l 361 718 l 361 1031 l 222 1031 l 222 697 q 255 619 222 651 q 333 586 288 586 l 736 586 m 917 288 l 917 142 l 1056 142 l 1056 1058 l 917 1058 l 917 419 l 42 419 l 42 288 l 917 288 m 1069 -275 l 1069 -143 l 611 -143 l 611 128 l 472 128 l 472 -164 q 505 -242 472 -210 q 583 -275 538 -275 l 1069 -275 z "},"늴":{"ha":1250,"x_min":42,"x_max":1069,"o":"m 736 586 l 736 718 l 361 718 l 361 1031 l 222 1031 l 222 697 q 255 619 222 651 q 333 586 288 586 l 736 586 m 1069 -303 l 1069 -178 l 611 -178 l 611 -99 l 1056 -99 l 1056 225 l 1056 1058 l 917 1058 l 917 461 l 42 461 l 42 329 l 917 329 l 917 225 l 472 225 l 472 100 l 917 100 l 917 22 l 472 22 l 472 -192 q 505 -270 472 -237 q 583 -303 538 -303 l 1069 -303 z "},"니":{"ha":1250,"x_min":181,"x_max":1028,"o":"m 1028 44 l 1028 1058 l 889 1058 l 889 44 l 1028 44 m 681 433 l 681 565 l 319 565 l 319 1031 l 181 1031 l 181 544 q 213 466 181 499 q 292 433 246 433 l 681 433 z "},"닉":{"ha":1250,"x_min":181,"x_max":1028,"o":"m 681 489 l 681 621 l 319 621 l 319 1031 l 181 1031 l 181 600 q 213 522 181 554 q 292 489 246 489 l 681 489 m 1028 -275 l 1028 239 l 1028 1058 l 889 1058 l 889 239 l 431 239 l 431 107 l 889 107 l 889 -275 l 1028 -275 z "},"닌":{"ha":1250,"x_min":181,"x_max":1042,"o":"m 1028 183 l 1028 1058 l 889 1058 l 889 183 l 1028 183 m 681 489 l 681 621 l 319 621 l 319 1031 l 181 1031 l 181 600 q 213 522 181 554 q 292 489 246 489 l 681 489 m 1042 -275 l 1042 -143 l 583 -143 l 583 183 l 444 183 l 444 -164 q 477 -242 444 -210 q 556 -275 510 -275 l 1042 -275 z "},"닐":{"ha":1250,"x_min":181,"x_max":1042,"o":"m 681 489 l 681 621 l 319 621 l 319 1031 l 181 1031 l 181 600 q 213 522 181 554 q 292 489 246 489 l 681 489 m 1042 -303 l 1042 -178 l 583 -178 l 583 -85 l 1028 -85 l 1028 253 l 1028 1058 l 889 1058 l 889 253 l 444 253 l 444 128 l 889 128 l 889 36 l 444 36 l 444 -192 q 477 -270 444 -237 q 556 -303 510 -303 l 1042 -303 z "},"닒":{"ha":1250,"x_min":181,"x_max":1028,"o":"m 681 489 l 681 621 l 319 621 l 319 1031 l 181 1031 l 181 600 q 213 522 181 554 q 292 489 246 489 l 681 489 m 1028 -178 l 1028 253 l 1028 1058 l 889 1058 l 889 253 l 653 253 l 653 -178 q 685 -256 653 -224 q 764 -289 718 -289 l 917 -289 q 995 -256 963 -289 q 1028 -178 1028 -224 m 889 -157 l 792 -157 l 792 121 l 889 121 l 889 -157 m 611 -289 l 611 -164 l 389 -164 l 389 -78 l 597 -78 l 597 253 l 250 253 l 250 128 l 458 128 l 458 43 l 250 43 l 250 -178 q 283 -256 250 -224 q 361 -289 315 -289 l 611 -289 z "},"님":{"ha":1250,"x_min":181,"x_max":1028,"o":"m 681 489 l 681 621 l 319 621 l 319 1031 l 181 1031 l 181 600 q 213 522 181 554 q 292 489 246 489 l 681 489 m 1028 -164 l 1028 239 l 1028 1058 l 889 1058 l 889 239 l 444 239 l 444 -164 q 477 -242 444 -210 q 556 -275 510 -275 l 917 -275 q 995 -242 963 -275 q 1028 -164 1028 -210 m 889 -143 l 583 -143 l 583 107 l 889 107 l 889 -143 z "},"닙":{"ha":1250,"x_min":181,"x_max":1028,"o":"m 681 489 l 681 621 l 319 621 l 319 1031 l 181 1031 l 181 600 q 213 522 181 554 q 292 489 246 489 l 681 489 m 1028 -171 l 1028 239 l 1028 1058 l 889 1058 l 889 183 l 889 114 l 583 114 l 583 239 l 444 239 l 444 -171 q 477 -249 444 -217 q 556 -282 510 -282 l 917 -282 q 995 -249 963 -282 q 1028 -171 1028 -217 m 889 -150 l 583 -150 l 583 -18 l 889 -18 l 889 -150 z "},"닛":{"ha":1250,"x_min":181,"x_max":1071,"o":"m 1028 183 l 1028 1058 l 889 1058 l 889 183 l 1028 183 m 681 489 l 681 621 l 319 621 l 319 1031 l 181 1031 l 181 600 q 213 522 181 554 q 292 489 246 489 l 681 489 m 1071 -204 l 708 225 l 346 -204 l 454 -289 l 708 15 l 963 -289 l 1071 -204 z "},"닝":{"ha":1250,"x_min":181,"x_max":1028,"o":"m 681 489 l 681 621 l 319 621 l 319 1031 l 181 1031 l 181 600 q 213 522 181 554 q 292 489 246 489 l 681 489 m 1028 -37 l 1028 1058 l 889 1058 l 889 192 q 751 228 828 228 q 644 207 694 228 q 557 150 594 186 q 497 66 519 114 q 475 -37 475 18 q 497 -141 475 -93 q 557 -225 519 -189 q 644 -282 594 -261 q 751 -303 694 -303 q 858 -282 807 -303 q 946 -225 908 -261 q 1006 -140 983 -189 q 1028 -37 1028 -92 m 889 -37 q 849 -135 889 -97 q 751 -174 810 -174 q 655 -135 696 -174 q 614 -37 614 -97 q 655 62 614 25 q 751 99 696 99 q 849 62 810 99 q 889 -37 889 25 z "},"닢":{"ha":1250,"x_min":181,"x_max":1035,"o":"m 681 489 l 681 621 l 319 621 l 319 1031 l 181 1031 l 181 600 q 213 522 181 554 q 292 489 246 489 l 681 489 m 625 -143 l 625 107 l 792 107 l 792 -143 l 625 -143 m 1035 -275 l 1035 -143 l 931 -143 l 931 107 l 1028 107 l 1028 239 l 1028 1058 l 889 1058 l 889 239 l 389 239 l 389 107 l 486 107 l 486 -143 l 382 -143 l 382 -275 l 1035 -275 z "},"다":{"ha":1250,"x_min":139,"x_max":1181,"o":"m 1181 656 l 1181 788 l 1000 788 l 1000 1058 l 861 1058 l 861 44 l 1000 44 l 1000 656 l 1181 656 m 653 433 l 653 565 l 278 565 l 278 899 l 639 899 l 639 1031 l 139 1031 l 139 544 q 172 466 139 499 q 250 433 204 433 l 653 433 z "},"닥":{"ha":1250,"x_min":139,"x_max":1181,"o":"m 653 489 l 653 621 l 278 621 l 278 899 l 639 899 l 639 1031 l 139 1031 l 139 600 q 172 522 139 554 q 250 489 204 489 l 653 489 m 1000 -275 l 1000 239 l 1000 697 l 1181 697 l 1181 829 l 1000 829 l 1000 1058 l 861 1058 l 861 239 l 403 239 l 403 107 l 861 107 l 861 -275 l 1000 -275 z "},"닦":{"ha":1250,"x_min":139,"x_max":1181,"o":"m 653 489 l 653 621 l 278 621 l 278 899 l 639 899 l 639 1031 l 139 1031 l 139 600 q 172 522 139 554 q 250 489 204 489 l 653 489 m 1000 -275 l 1000 239 l 1000 697 l 1181 697 l 1181 829 l 1000 829 l 1000 1058 l 861 1058 l 861 239 l 319 239 l 319 107 l 528 107 l 528 -275 l 667 -275 l 667 107 l 861 107 l 861 -275 l 1000 -275 z "},"단":{"ha":1250,"x_min":139,"x_max":1181,"o":"m 1181 697 l 1181 829 l 1000 829 l 1000 1058 l 861 1058 l 861 183 l 1000 183 l 1000 697 l 1181 697 m 653 489 l 653 621 l 278 621 l 278 899 l 639 899 l 639 1031 l 139 1031 l 139 600 q 172 522 139 554 q 250 489 204 489 l 653 489 m 1014 -275 l 1014 -143 l 556 -143 l 556 183 l 417 183 l 417 -164 q 449 -242 417 -210 q 528 -275 482 -275 l 1014 -275 z "},"닫":{"ha":1250,"x_min":139,"x_max":1181,"o":"m 653 489 l 653 621 l 278 621 l 278 899 l 639 899 l 639 1031 l 139 1031 l 139 600 q 172 522 139 554 q 250 489 204 489 l 653 489 m 1014 -275 l 1014 -143 l 556 -143 l 556 107 l 1000 107 l 1000 239 l 1000 697 l 1181 697 l 1181 829 l 1000 829 l 1000 1058 l 861 1058 l 861 239 l 417 239 l 417 -164 q 449 -242 417 -210 q 528 -275 482 -275 l 1014 -275 z "},"달":{"ha":1250,"x_min":139,"x_max":1181,"o":"m 653 489 l 653 621 l 278 621 l 278 899 l 639 899 l 639 1031 l 139 1031 l 139 600 q 172 522 139 554 q 250 489 204 489 l 653 489 m 1014 -303 l 1014 -178 l 556 -178 l 556 -85 l 1000 -85 l 1000 253 l 1000 697 l 1181 697 l 1181 829 l 1000 829 l 1000 1058 l 861 1058 l 861 253 l 417 253 l 417 128 l 861 128 l 861 36 l 417 36 l 417 -192 q 449 -270 417 -237 q 528 -303 482 -303 l 1014 -303 z "},"닭":{"ha":1250,"x_min":139,"x_max":1181,"o":"m 653 489 l 653 621 l 278 621 l 278 899 l 639 899 l 639 1031 l 139 1031 l 139 600 q 172 522 139 554 q 250 489 204 489 l 653 489 m 681 -289 l 681 -164 l 431 -164 l 431 -78 l 667 -78 l 667 121 l 861 121 l 861 -289 l 1000 -289 l 1000 253 l 1000 697 l 1181 697 l 1181 829 l 1000 829 l 1000 1058 l 861 1058 l 861 253 l 611 253 l 292 253 l 292 128 l 528 128 l 528 43 l 292 43 l 292 -178 q 324 -256 292 -224 q 403 -289 357 -289 l 681 -289 z "},"닮":{"ha":1250,"x_min":139,"x_max":1181,"o":"m 653 489 l 653 621 l 278 621 l 278 899 l 639 899 l 639 1031 l 139 1031 l 139 600 q 172 522 139 554 q 250 489 204 489 l 653 489 m 1000 -178 l 1000 253 l 1000 697 l 1181 697 l 1181 829 l 1000 829 l 1000 1058 l 861 1058 l 861 253 l 625 253 l 625 -178 q 658 -256 625 -224 q 736 -289 690 -289 l 889 -289 q 967 -256 935 -289 q 1000 -178 1000 -224 m 861 -157 l 764 -157 l 764 121 l 861 121 l 861 -157 m 583 -289 l 583 -164 l 361 -164 l 361 -78 l 569 -78 l 569 253 l 222 253 l 222 128 l 431 128 l 431 43 l 222 43 l 222 -178 q 255 -256 222 -224 q 333 -289 288 -289 l 583 -289 z "},"닯":{"ha":1250,"x_min":139,"x_max":1181,"o":"m 653 489 l 653 621 l 278 621 l 278 899 l 639 899 l 639 1031 l 139 1031 l 139 600 q 172 522 139 554 q 250 489 204 489 l 653 489 m 1000 -178 l 1000 253 l 1000 697 l 1181 697 l 1181 829 l 1000 829 l 1000 1058 l 861 1058 l 861 183 l 861 114 l 764 114 l 764 253 l 625 253 l 625 -178 q 658 -256 625 -224 q 736 -289 690 -289 l 889 -289 q 967 -256 935 -289 q 1000 -178 1000 -224 m 861 -157 l 764 -157 l 764 -18 l 861 -18 l 861 -157 m 583 -289 l 583 -164 l 361 -164 l 361 -78 l 569 -78 l 569 253 l 222 253 l 222 128 l 431 128 l 431 43 l 222 43 l 222 -178 q 255 -256 222 -224 q 333 -289 288 -289 l 583 -289 z "},"닳":{"ha":1250,"x_min":139,"x_max":1181,"o":"m 1181 697 l 1181 829 l 1000 829 l 1000 1058 l 861 1058 l 861 294 l 1000 294 l 1000 697 l 1181 697 m 653 489 l 653 621 l 278 621 l 278 899 l 639 899 l 639 1031 l 139 1031 l 139 600 q 172 522 139 554 q 250 489 204 489 l 653 489 m 556 -275 l 556 -150 l 333 -150 l 333 -71 l 542 -71 l 542 65 l 599 65 q 572 -51 572 10 q 590 -147 572 -103 q 637 -225 607 -192 q 705 -277 667 -258 q 785 -296 743 -296 q 865 -276 826 -296 q 933 -224 904 -257 q 980 -146 963 -190 q 997 -51 997 -101 q 971 65 997 10 l 1042 65 l 1042 197 l 854 197 l 854 308 l 715 308 l 715 197 l 542 197 l 542 253 l 194 253 l 194 128 l 403 128 l 403 50 l 194 50 l 194 -164 q 227 -242 194 -210 q 306 -275 260 -275 l 556 -275 m 858 -51 q 852 -96 858 -75 q 835 -133 846 -117 q 812 -158 825 -149 q 785 -167 799 -167 q 758 -158 771 -167 q 734 -133 744 -149 q 717 -96 724 -117 q 711 -51 711 -75 q 734 31 711 -3 q 785 64 757 64 q 835 31 813 64 q 858 -51 858 -3 z "},"담":{"ha":1250,"x_min":139,"x_max":1181,"o":"m 653 489 l 653 621 l 278 621 l 278 899 l 639 899 l 639 1031 l 139 1031 l 139 600 q 172 522 139 554 q 250 489 204 489 l 653 489 m 1000 -164 l 1000 239 l 1000 697 l 1181 697 l 1181 829 l 1000 829 l 1000 1058 l 861 1058 l 861 239 l 417 239 l 417 -164 q 449 -242 417 -210 q 528 -275 482 -275 l 889 -275 q 967 -242 935 -275 q 1000 -164 1000 -210 m 861 -143 l 556 -143 l 556 107 l 861 107 l 861 -143 z "},"답":{"ha":1250,"x_min":139,"x_max":1181,"o":"m 653 489 l 653 621 l 278 621 l 278 899 l 639 899 l 639 1031 l 139 1031 l 139 600 q 172 522 139 554 q 250 489 204 489 l 653 489 m 1000 -171 l 1000 239 l 1000 697 l 1181 697 l 1181 829 l 1000 829 l 1000 1058 l 861 1058 l 861 183 l 861 114 l 556 114 l 556 239 l 417 239 l 417 -171 q 449 -249 417 -217 q 528 -282 482 -282 l 889 -282 q 967 -249 935 -282 q 1000 -171 1000 -217 m 861 -150 l 556 -150 l 556 -18 l 861 -18 l 861 -150 z "},"닷":{"ha":1250,"x_min":139,"x_max":1181,"o":"m 1181 697 l 1181 829 l 1000 829 l 1000 1058 l 861 1058 l 861 183 l 1000 183 l 1000 697 l 1181 697 m 653 489 l 653 621 l 278 621 l 278 899 l 639 899 l 639 1031 l 139 1031 l 139 600 q 172 522 139 554 q 250 489 204 489 l 653 489 m 1043 -204 l 681 225 l 318 -204 l 426 -289 l 681 15 l 935 -289 l 1043 -204 z "},"닸":{"ha":1250,"x_min":139,"x_max":1181,"o":"m 1181 697 l 1181 829 l 1000 829 l 1000 1058 l 861 1058 l 861 183 l 1000 183 l 1000 697 l 1181 697 m 653 489 l 653 621 l 278 621 l 278 899 l 639 899 l 639 1031 l 139 1031 l 139 600 q 172 522 139 554 q 250 489 204 489 l 653 489 m 1043 -236 l 810 239 l 639 -43 l 469 239 l 236 -236 l 358 -289 l 482 -36 l 639 -275 l 797 -36 l 921 -289 l 1043 -236 z "},"당":{"ha":1250,"x_min":139,"x_max":1181,"o":"m 1181 697 l 1181 829 l 1000 829 l 1000 1058 l 861 1058 l 861 192 q 724 228 800 228 q 617 207 667 228 q 529 150 567 186 q 469 66 492 114 q 447 -37 447 18 q 469 -141 447 -93 q 529 -225 492 -189 q 617 -282 567 -261 q 724 -303 667 -303 q 830 -282 779 -303 q 918 -225 881 -261 q 978 -140 956 -189 q 1000 -37 1000 -92 l 1000 697 l 1181 697 m 861 -37 q 822 -135 861 -97 q 724 -174 782 -174 q 627 -135 668 -174 q 586 -37 586 -97 q 627 62 586 25 q 724 99 668 99 q 822 62 782 99 q 861 -37 861 25 m 653 489 l 653 621 l 278 621 l 278 899 l 639 899 l 639 1031 l 139 1031 l 139 600 q 172 522 139 554 q 250 489 204 489 l 653 489 z "},"닺":{"ha":1250,"x_min":139,"x_max":1181,"o":"m 653 489 l 653 621 l 278 621 l 278 899 l 639 899 l 639 1031 l 139 1031 l 139 600 q 172 522 139 554 q 250 489 204 489 l 653 489 m 1063 -204 l 804 107 l 1000 107 l 1000 239 l 1000 697 l 1181 697 l 1181 829 l 1000 829 l 1000 1058 l 861 1058 l 861 239 l 417 239 l 417 107 l 613 107 l 354 -204 l 460 -289 l 708 13 l 957 -289 l 1063 -204 z "},"닻":{"ha":1250,"x_min":139,"x_max":1181,"o":"m 653 489 l 653 621 l 278 621 l 278 899 l 639 899 l 639 1031 l 139 1031 l 139 600 q 172 522 139 554 q 250 489 204 489 l 653 489 m 1063 -194 l 804 79 l 1000 79 l 1000 211 l 1000 697 l 1181 697 l 1181 829 l 1000 829 l 1000 1058 l 861 1058 l 861 211 l 778 211 l 778 322 l 639 322 l 639 211 l 417 211 l 417 79 l 613 79 l 354 -194 l 454 -289 l 708 -12 l 963 -289 l 1063 -194 z "},"닿":{"ha":1250,"x_min":139,"x_max":1181,"o":"m 653 489 l 653 621 l 278 621 l 278 899 l 639 899 l 639 1031 l 139 1031 l 139 600 q 172 522 139 554 q 250 489 204 489 l 653 489 m 919 -54 q 879 79 919 19 l 1000 79 l 1000 211 l 1000 697 l 1181 697 l 1181 829 l 1000 829 l 1000 1058 l 861 1058 l 861 211 l 729 211 l 729 322 l 590 322 l 590 211 l 319 211 l 319 79 l 440 79 q 411 16 422 50 q 400 -54 400 -18 q 421 -151 400 -106 q 477 -230 442 -196 q 560 -283 513 -264 q 660 -303 607 -303 q 758 -283 711 -303 q 842 -230 806 -264 q 899 -151 878 -196 q 919 -54 919 -106 m 781 -54 q 745 -140 781 -106 q 660 -174 710 -174 q 574 -140 610 -174 q 539 -54 539 -106 q 574 32 539 -1 q 660 65 610 65 q 745 32 710 65 q 781 -54 781 -1 z "},"대":{"ha":1250,"x_min":139,"x_max":1069,"o":"m 1069 44 l 1069 1058 l 931 1058 l 931 801 l 824 801 l 824 1058 l 688 1058 l 688 44 l 824 44 l 824 669 l 931 669 l 931 44 l 1069 44 m 569 433 l 569 565 l 278 565 l 278 899 l 556 899 l 556 1031 l 139 1031 l 139 544 q 172 466 139 499 q 250 433 204 433 l 569 433 z "},"댁":{"ha":1250,"x_min":139,"x_max":1069,"o":"m 569 489 l 569 621 l 278 621 l 278 899 l 556 899 l 556 1031 l 139 1031 l 139 600 q 172 522 139 554 q 250 489 204 489 l 569 489 m 1069 -275 l 1069 239 l 1069 1058 l 931 1058 l 931 829 l 824 829 l 824 1058 l 688 1058 l 688 350 l 824 350 l 824 697 l 931 697 l 931 239 l 472 239 l 472 107 l 931 107 l 931 -275 l 1069 -275 z "},"댄":{"ha":1250,"x_min":139,"x_max":1083,"o":"m 1069 183 l 1069 1058 l 931 1058 l 931 829 l 824 829 l 824 1058 l 688 1058 l 688 183 l 824 183 l 824 697 l 931 697 l 931 183 l 1069 183 m 569 489 l 569 621 l 278 621 l 278 899 l 556 899 l 556 1031 l 139 1031 l 139 600 q 172 522 139 554 q 250 489 204 489 l 569 489 m 1083 -275 l 1083 -143 l 625 -143 l 625 183 l 486 183 l 486 -164 q 519 -242 486 -210 q 597 -275 551 -275 l 1083 -275 z "},"댈":{"ha":1250,"x_min":139,"x_max":1083,"o":"m 569 489 l 569 621 l 278 621 l 278 899 l 556 899 l 556 1031 l 139 1031 l 139 600 q 172 522 139 554 q 250 489 204 489 l 569 489 m 1083 -303 l 1083 -178 l 625 -178 l 625 -85 l 1069 -85 l 1069 253 l 1069 1058 l 931 1058 l 931 829 l 824 829 l 824 1058 l 688 1058 l 688 350 l 824 350 l 824 697 l 931 697 l 931 253 l 486 253 l 486 128 l 931 128 l 931 36 l 486 36 l 486 -192 q 519 -270 486 -237 q 597 -303 551 -303 l 1083 -303 z "},"댐":{"ha":1250,"x_min":139,"x_max":1069,"o":"m 569 489 l 569 621 l 278 621 l 278 899 l 556 899 l 556 1031 l 139 1031 l 139 600 q 172 522 139 554 q 250 489 204 489 l 569 489 m 1069 -164 l 1069 239 l 1069 1058 l 931 1058 l 931 829 l 824 829 l 824 1058 l 688 1058 l 688 350 l 824 350 l 824 697 l 931 697 l 931 239 l 486 239 l 486 -164 q 519 -242 486 -210 q 597 -275 551 -275 l 958 -275 q 1037 -242 1004 -275 q 1069 -164 1069 -210 m 931 -143 l 625 -143 l 625 107 l 931 107 l 931 -143 z "},"댑":{"ha":1250,"x_min":139,"x_max":1069,"o":"m 569 489 l 569 621 l 278 621 l 278 899 l 556 899 l 556 1031 l 139 1031 l 139 600 q 172 522 139 554 q 250 489 204 489 l 569 489 m 1069 -171 l 1069 239 l 1069 1058 l 931 1058 l 931 829 l 824 829 l 824 1058 l 688 1058 l 688 350 l 824 350 l 824 697 l 931 697 l 931 183 l 931 114 l 625 114 l 625 239 l 486 239 l 486 -171 q 519 -249 486 -217 q 597 -282 551 -282 l 958 -282 q 1037 -249 1004 -282 q 1069 -171 1069 -217 m 931 -150 l 625 -150 l 625 -18 l 931 -18 l 931 -150 z "},"댓":{"ha":1250,"x_min":139,"x_max":1113,"o":"m 1069 183 l 1069 1058 l 931 1058 l 931 829 l 824 829 l 824 1058 l 688 1058 l 688 350 l 824 350 l 824 697 l 931 697 l 931 183 l 1069 183 m 569 489 l 569 621 l 278 621 l 278 899 l 556 899 l 556 1031 l 139 1031 l 139 600 q 172 522 139 554 q 250 489 204 489 l 569 489 m 1113 -204 l 750 225 l 388 -204 l 496 -289 l 750 15 l 1004 -289 l 1113 -204 z "},"댔":{"ha":1250,"x_min":139,"x_max":1113,"o":"m 1069 183 l 1069 1058 l 931 1058 l 931 829 l 824 829 l 824 1058 l 688 1058 l 688 350 l 824 350 l 824 697 l 931 697 l 931 183 l 1069 183 m 569 489 l 569 621 l 278 621 l 278 899 l 556 899 l 556 1031 l 139 1031 l 139 600 q 172 522 139 554 q 250 489 204 489 l 569 489 m 1113 -236 l 879 239 l 708 -43 l 539 239 l 306 -236 l 428 -289 l 551 -36 l 708 -275 l 867 -36 l 990 -289 l 1113 -236 z "},"댕":{"ha":1250,"x_min":139,"x_max":1069,"o":"m 1069 -37 l 1069 1058 l 931 1058 l 931 829 l 824 829 l 824 1058 l 688 1058 l 688 350 l 824 350 l 824 697 l 931 697 l 931 192 q 793 228 869 228 q 686 207 736 228 q 599 150 636 186 q 539 66 561 114 q 517 -37 517 18 q 539 -141 517 -93 q 599 -225 561 -189 q 686 -282 636 -261 q 793 -303 736 -303 q 899 -282 849 -303 q 988 -225 950 -261 q 1047 -140 1025 -189 q 1069 -37 1069 -92 m 931 -37 q 891 -135 931 -97 q 793 -174 851 -174 q 697 -135 738 -174 q 656 -37 656 -97 q 697 62 656 25 q 793 99 738 99 q 891 62 851 99 q 931 -37 931 25 m 569 489 l 569 621 l 278 621 l 278 899 l 556 899 l 556 1031 l 139 1031 l 139 600 q 172 522 139 554 q 250 489 204 489 l 569 489 z "}}}
